<?xml version="1.0" encoding="utf-8" standalone="no"?>
<!DOCTYPE svg PUBLIC "-//W3C//DTD SVG 1.1//EN"
  "http://www.w3.org/Graphics/SVG/1.1/DTD/svg11.dtd">
<svg xmlns:xlink="http://www.w3.org/1999/xlink" width="855.970625pt" height="712.31625pt" viewBox="0 0 855.970625 712.31625" xmlns="http://www.w3.org/2000/svg" version="1.1">
 <metadata>
  <rdf:RDF xmlns:dc="http://purl.org/dc/elements/1.1/" xmlns:cc="http://creativecommons.org/ns#" xmlns:rdf="http://www.w3.org/1999/02/22-rdf-syntax-ns#">
   <cc:Work>
    <dc:type rdf:resource="http://purl.org/dc/dcmitype/StillImage"/>
    <dc:date>2026-07-03T16:32:30.027398</dc:date>
    <dc:format>image/svg+xml</dc:format>
    <dc:creator>
     <cc:Agent>
      <dc:title>Matplotlib v3.11.0, https://matplotlib.org/</dc:title>
     </cc:Agent>
    </dc:creator>
   </cc:Work>
  </rdf:RDF>
 </metadata>
 <defs>
  <style type="text/css">*{stroke-linejoin: round; stroke-linecap: butt}</style>
 </defs>
 <g id="figure_1">
  <g id="patch_1">
   <path d="M 0 712.31625 
L 855.970625 712.31625 
L 855.970625 0 
L 0 0 
z
" style="fill: #ffffff"/>
  </g>
  <g id="axes_1">
   <g id="patch_2">
    <path d="M 62.013438 672.11625 
L 848.770625 672.11625 
L 848.770625 37.922578 
L 62.013438 37.922578 
z
" style="fill: #ffffff"/>
   </g>
   <g id="patch_3">
    <path d="M 97.775128 672.11625 
L 106.340802 672.11625 
L 106.340802 671.334081 
L 97.775128 671.334081 
z
" clip-path="url(#p996ca1d02e)" style="fill: #4682b4; stroke: #000000; stroke-linejoin: miter"/>
   </g>
   <g id="patch_4">
    <path d="M 108.482221 672.11625 
L 117.047895 672.11625 
L 117.047895 672.11625 
L 108.482221 672.11625 
z
" clip-path="url(#p996ca1d02e)" style="fill: #4682b4; stroke: #000000; stroke-linejoin: miter"/>
   </g>
   <g id="patch_5">
    <path d="M 119.189314 672.11625 
L 127.754988 672.11625 
L 127.754988 672.068362 
L 119.189314 672.068362 
z
" clip-path="url(#p996ca1d02e)" style="fill: #4682b4; stroke: #000000; stroke-linejoin: miter"/>
   </g>
   <g id="patch_6">
    <path d="M 129.896407 672.11625 
L 138.462081 672.11625 
L 138.462081 672.108269 
L 129.896407 672.108269 
z
" clip-path="url(#p996ca1d02e)" style="fill: #4682b4; stroke: #000000; stroke-linejoin: miter"/>
   </g>
   <g id="patch_7">
    <path d="M 140.6035 672.11625 
L 149.169174 672.11625 
L 149.169174 672.11625 
L 140.6035 672.11625 
z
" clip-path="url(#p996ca1d02e)" style="fill: #4682b4; stroke: #000000; stroke-linejoin: miter"/>
   </g>
   <g id="patch_8">
    <path d="M 151.310592 672.11625 
L 159.876267 672.11625 
L 159.876267 672.11625 
L 151.310592 672.11625 
z
" clip-path="url(#p996ca1d02e)" style="fill: #4682b4; stroke: #000000; stroke-linejoin: miter"/>
   </g>
   <g id="patch_9">
    <path d="M 162.017685 672.11625 
L 170.58336 672.11625 
L 170.58336 672.100287 
L 162.017685 672.100287 
z
" clip-path="url(#p996ca1d02e)" style="fill: #4682b4; stroke: #000000; stroke-linejoin: miter"/>
   </g>
   <g id="patch_10">
    <path d="M 172.724778 672.11625 
L 181.290453 672.11625 
L 181.290453 672.092306 
L 172.724778 672.092306 
z
" clip-path="url(#p996ca1d02e)" style="fill: #4682b4; stroke: #000000; stroke-linejoin: miter"/>
   </g>
   <g id="patch_11">
    <path d="M 183.431871 672.11625 
L 191.997546 672.11625 
L 191.997546 672.11625 
L 183.431871 672.11625 
z
" clip-path="url(#p996ca1d02e)" style="fill: #4682b4; stroke: #000000; stroke-linejoin: miter"/>
   </g>
   <g id="patch_12">
    <path d="M 194.138964 672.11625 
L 202.704638 672.11625 
L 202.704638 672.11625 
L 194.138964 672.11625 
z
" clip-path="url(#p996ca1d02e)" style="fill: #4682b4; stroke: #000000; stroke-linejoin: miter"/>
   </g>
   <g id="patch_13">
    <path d="M 204.846057 672.11625 
L 213.411731 672.11625 
L 213.411731 672.060381 
L 204.846057 672.060381 
z
" clip-path="url(#p996ca1d02e)" style="fill: #4682b4; stroke: #000000; stroke-linejoin: miter"/>
   </g>
   <g id="patch_14">
    <path d="M 215.55315 672.11625 
L 224.118824 672.11625 
L 224.118824 672.11625 
L 215.55315 672.11625 
z
" clip-path="url(#p996ca1d02e)" style="fill: #4682b4; stroke: #000000; stroke-linejoin: miter"/>
   </g>
   <g id="patch_15">
    <path d="M 226.260243 672.11625 
L 234.825917 672.11625 
L 234.825917 672.100287 
L 226.260243 672.100287 
z
" clip-path="url(#p996ca1d02e)" style="fill: #4682b4; stroke: #000000; stroke-linejoin: miter"/>
   </g>
   <g id="patch_16">
    <path d="M 236.967336 672.11625 
L 245.53301 672.11625 
L 245.53301 672.108269 
L 236.967336 672.108269 
z
" clip-path="url(#p996ca1d02e)" style="fill: #4682b4; stroke: #000000; stroke-linejoin: miter"/>
   </g>
   <g id="patch_17">
    <path d="M 247.674429 672.11625 
L 256.240103 672.11625 
L 256.240103 672.108269 
L 247.674429 672.108269 
z
" clip-path="url(#p996ca1d02e)" style="fill: #4682b4; stroke: #000000; stroke-linejoin: miter"/>
   </g>
   <g id="patch_18">
    <path d="M 258.381522 672.11625 
L 266.947196 672.11625 
L 266.947196 672.076343 
L 258.381522 672.076343 
z
" clip-path="url(#p996ca1d02e)" style="fill: #4682b4; stroke: #000000; stroke-linejoin: miter"/>
   </g>
   <g id="patch_19">
    <path d="M 269.088615 672.11625 
L 277.654289 672.11625 
L 277.654289 672.092306 
L 269.088615 672.092306 
z
" clip-path="url(#p996ca1d02e)" style="fill: #4682b4; stroke: #000000; stroke-linejoin: miter"/>
   </g>
   <g id="patch_20">
    <path d="M 279.795707 672.11625 
L 288.361382 672.11625 
L 288.361382 672.084325 
L 279.795707 672.084325 
z
" clip-path="url(#p996ca1d02e)" style="fill: #4682b4; stroke: #000000; stroke-linejoin: miter"/>
   </g>
   <g id="patch_21">
    <path d="M 290.5028 672.11625 
L 299.068475 672.11625 
L 299.068475 672.068362 
L 290.5028 672.068362 
z
" clip-path="url(#p996ca1d02e)" style="fill: #4682b4; stroke: #000000; stroke-linejoin: miter"/>
   </g>
   <g id="patch_22">
    <path d="M 301.209893 672.11625 
L 309.775568 672.11625 
L 309.775568 672.092306 
L 301.209893 672.092306 
z
" clip-path="url(#p996ca1d02e)" style="fill: #4682b4; stroke: #000000; stroke-linejoin: miter"/>
   </g>
   <g id="patch_23">
    <path d="M 311.916986 672.11625 
L 320.482661 672.11625 
L 320.482661 672.076343 
L 311.916986 672.076343 
z
" clip-path="url(#p996ca1d02e)" style="fill: #4682b4; stroke: #000000; stroke-linejoin: miter"/>
   </g>
   <g id="patch_24">
    <path d="M 322.624079 672.11625 
L 331.189753 672.11625 
L 331.189753 672.076343 
L 322.624079 672.076343 
z
" clip-path="url(#p996ca1d02e)" style="fill: #4682b4; stroke: #000000; stroke-linejoin: miter"/>
   </g>
   <g id="patch_25">
    <path d="M 333.331172 672.11625 
L 341.896846 672.11625 
L 341.896846 672.084325 
L 333.331172 672.084325 
z
" clip-path="url(#p996ca1d02e)" style="fill: #4682b4; stroke: #000000; stroke-linejoin: miter"/>
   </g>
   <g id="patch_26">
    <path d="M 344.038265 672.11625 
L 352.603939 672.11625 
L 352.603939 672.036437 
L 344.038265 672.036437 
z
" clip-path="url(#p996ca1d02e)" style="fill: #4682b4; stroke: #000000; stroke-linejoin: miter"/>
   </g>
   <g id="patch_27">
    <path d="M 354.745358 672.11625 
L 363.311032 672.11625 
L 363.311032 672.092306 
L 354.745358 672.092306 
z
" clip-path="url(#p996ca1d02e)" style="fill: #4682b4; stroke: #000000; stroke-linejoin: miter"/>
   </g>
   <g id="patch_28">
    <path d="M 365.452451 672.11625 
L 374.018125 672.11625 
L 374.018125 672.060381 
L 365.452451 672.060381 
z
" clip-path="url(#p996ca1d02e)" style="fill: #4682b4; stroke: #000000; stroke-linejoin: miter"/>
   </g>
   <g id="patch_29">
    <path d="M 376.159544 672.11625 
L 384.725218 672.11625 
L 384.725218 672.076343 
L 376.159544 672.076343 
z
" clip-path="url(#p996ca1d02e)" style="fill: #4682b4; stroke: #000000; stroke-linejoin: miter"/>
   </g>
   <g id="patch_30">
    <path d="M 386.866637 672.11625 
L 395.432311 672.11625 
L 395.432311 672.036437 
L 386.866637 672.036437 
z
" clip-path="url(#p996ca1d02e)" style="fill: #4682b4; stroke: #000000; stroke-linejoin: miter"/>
   </g>
   <g id="patch_31">
    <path d="M 397.57373 672.11625 
L 406.139404 672.11625 
L 406.139404 671.980568 
L 397.57373 671.980568 
z
" clip-path="url(#p996ca1d02e)" style="fill: #4682b4; stroke: #000000; stroke-linejoin: miter"/>
   </g>
   <g id="patch_32">
    <path d="M 408.280822 672.11625 
L 416.846497 672.11625 
L 416.846497 671.940661 
L 408.280822 671.940661 
z
" clip-path="url(#p996ca1d02e)" style="fill: #4682b4; stroke: #000000; stroke-linejoin: miter"/>
   </g>
   <g id="patch_33">
    <path d="M 418.987915 672.11625 
L 427.55359 672.11625 
L 427.55359 671.988549 
L 418.987915 671.988549 
z
" clip-path="url(#p996ca1d02e)" style="fill: #4682b4; stroke: #000000; stroke-linejoin: miter"/>
   </g>
   <g id="patch_34">
    <path d="M 429.695008 672.11625 
L 438.260683 672.11625 
L 438.260683 671.964605 
L 429.695008 671.964605 
z
" clip-path="url(#p996ca1d02e)" style="fill: #4682b4; stroke: #000000; stroke-linejoin: miter"/>
   </g>
   <g id="patch_35">
    <path d="M 440.402101 672.11625 
L 448.967776 672.11625 
L 448.967776 671.613427 
L 440.402101 671.613427 
z
" clip-path="url(#p996ca1d02e)" style="fill: #4682b4; stroke: #000000; stroke-linejoin: miter"/>
   </g>
   <g id="patch_36">
    <path d="M 451.109194 672.11625 
L 459.674868 672.11625 
L 459.674868 671.820941 
L 451.109194 671.820941 
z
" clip-path="url(#p996ca1d02e)" style="fill: #4682b4; stroke: #000000; stroke-linejoin: miter"/>
   </g>
   <g id="patch_37">
    <path d="M 461.816287 672.11625 
L 470.381961 672.11625 
L 470.381961 671.773053 
L 461.816287 671.773053 
z
" clip-path="url(#p996ca1d02e)" style="fill: #4682b4; stroke: #000000; stroke-linejoin: miter"/>
   </g>
   <g id="patch_38">
    <path d="M 472.52338 672.11625 
L 481.089054 672.11625 
L 481.089054 671.709203 
L 472.52338 671.709203 
z
" clip-path="url(#p996ca1d02e)" style="fill: #4682b4; stroke: #000000; stroke-linejoin: miter"/>
   </g>
   <g id="patch_39">
    <path d="M 483.230473 672.11625 
L 491.796147 672.11625 
L 491.796147 671.733147 
L 483.230473 671.733147 
z
" clip-path="url(#p996ca1d02e)" style="fill: #4682b4; stroke: #000000; stroke-linejoin: miter"/>
   </g>
   <g id="patch_40">
    <path d="M 493.937566 672.11625 
L 502.50324 672.11625 
L 502.50324 671.820941 
L 493.937566 671.820941 
z
" clip-path="url(#p996ca1d02e)" style="fill: #4682b4; stroke: #000000; stroke-linejoin: miter"/>
   </g>
   <g id="patch_41">
    <path d="M 504.644659 672.11625 
L 513.210333 672.11625 
L 513.210333 671.773053 
L 504.644659 671.773053 
z
" clip-path="url(#p996ca1d02e)" style="fill: #4682b4; stroke: #000000; stroke-linejoin: miter"/>
   </g>
   <g id="patch_42">
    <path d="M 515.351752 672.11625 
L 523.917426 672.11625 
L 523.917426 671.613427 
L 515.351752 671.613427 
z
" clip-path="url(#p996ca1d02e)" style="fill: #4682b4; stroke: #000000; stroke-linejoin: miter"/>
   </g>
   <g id="patch_43">
    <path d="M 526.058844 672.11625 
L 534.624519 672.11625 
L 534.624519 671.477745 
L 526.058844 671.477745 
z
" clip-path="url(#p996ca1d02e)" style="fill: #4682b4; stroke: #000000; stroke-linejoin: miter"/>
   </g>
   <g id="patch_44">
    <path d="M 536.765937 672.11625 
L 545.331612 672.11625 
L 545.331612 671.549577 
L 536.765937 671.549577 
z
" clip-path="url(#p996ca1d02e)" style="fill: #4682b4; stroke: #000000; stroke-linejoin: miter"/>
   </g>
   <g id="patch_45">
    <path d="M 547.47303 672.11625 
L 556.038705 672.11625 
L 556.038705 671.50967 
L 547.47303 671.50967 
z
" clip-path="url(#p996ca1d02e)" style="fill: #4682b4; stroke: #000000; stroke-linejoin: miter"/>
   </g>
   <g id="patch_46">
    <path d="M 558.180123 672.11625 
L 566.745798 672.11625 
L 566.745798 671.222343 
L 558.180123 671.222343 
z
" clip-path="url(#p996ca1d02e)" style="fill: #4682b4; stroke: #000000; stroke-linejoin: miter"/>
   </g>
   <g id="patch_47">
    <path d="M 568.887216 672.11625 
L 577.45289 672.11625 
L 577.45289 670.631725 
L 568.887216 670.631725 
z
" clip-path="url(#p996ca1d02e)" style="fill: #4682b4; stroke: #000000; stroke-linejoin: miter"/>
   </g>
   <g id="patch_48">
    <path d="M 579.594309 672.11625 
L 588.159983 672.11625 
L 588.159983 669.985239 
L 579.594309 669.985239 
z
" clip-path="url(#p996ca1d02e)" style="fill: #4682b4; stroke: #000000; stroke-linejoin: miter"/>
   </g>
   <g id="patch_49">
    <path d="M 590.301402 672.11625 
L 598.867076 672.11625 
L 598.867076 669.642042 
L 590.301402 669.642042 
z
" clip-path="url(#p996ca1d02e)" style="fill: #4682b4; stroke: #000000; stroke-linejoin: miter"/>
   </g>
   <g id="patch_50">
    <path d="M 601.008495 672.11625 
L 609.574169 672.11625 
L 609.574169 669.801669 
L 601.008495 669.801669 
z
" clip-path="url(#p996ca1d02e)" style="fill: #4682b4; stroke: #000000; stroke-linejoin: miter"/>
   </g>
   <g id="patch_51">
    <path d="M 611.715588 672.11625 
L 620.281262 672.11625 
L 620.281262 668.827948 
L 611.715588 668.827948 
z
" clip-path="url(#p996ca1d02e)" style="fill: #4682b4; stroke: #000000; stroke-linejoin: miter"/>
   </g>
   <g id="patch_52">
    <path d="M 622.422681 672.11625 
L 630.988355 672.11625 
L 630.988355 668.732173 
L 622.422681 668.732173 
z
" clip-path="url(#p996ca1d02e)" style="fill: #4682b4; stroke: #000000; stroke-linejoin: miter"/>
   </g>
   <g id="patch_53">
    <path d="M 633.129774 672.11625 
L 641.695448 672.11625 
L 641.695448 668.732173 
L 633.129774 668.732173 
z
" clip-path="url(#p996ca1d02e)" style="fill: #4682b4; stroke: #000000; stroke-linejoin: miter"/>
   </g>
   <g id="patch_54">
    <path d="M 643.836867 672.11625 
L 652.402541 672.11625 
L 652.402541 667.846247 
L 643.836867 667.846247 
z
" clip-path="url(#p996ca1d02e)" style="fill: #4682b4; stroke: #000000; stroke-linejoin: miter"/>
   </g>
   <g id="patch_55">
    <path d="M 654.543959 672.11625 
L 663.109634 672.11625 
L 663.109634 666.672993 
L 654.543959 666.672993 
z
" clip-path="url(#p996ca1d02e)" style="fill: #4682b4; stroke: #000000; stroke-linejoin: miter"/>
   </g>
   <g id="patch_56">
    <path d="M 665.251052 672.11625 
L 673.816727 672.11625 
L 673.816727 666.840601 
L 665.251052 666.840601 
z
" clip-path="url(#p996ca1d02e)" style="fill: #4682b4; stroke: #000000; stroke-linejoin: miter"/>
   </g>
   <g id="patch_57">
    <path d="M 675.958145 672.11625 
L 684.52382 672.11625 
L 684.52382 650.470924 
L 675.958145 650.470924 
z
" clip-path="url(#p996ca1d02e)" style="fill: #4682b4; stroke: #000000; stroke-linejoin: miter"/>
   </g>
   <g id="patch_58">
    <path d="M 686.665238 672.11625 
L 695.230913 672.11625 
L 695.230913 635.721455 
L 686.665238 635.721455 
z
" clip-path="url(#p996ca1d02e)" style="fill: #4682b4; stroke: #000000; stroke-linejoin: miter"/>
   </g>
   <g id="patch_59">
    <path d="M 697.372331 672.11625 
L 705.938005 672.11625 
L 705.938005 611.003323 
L 697.372331 611.003323 
z
" clip-path="url(#p996ca1d02e)" style="fill: #4682b4; stroke: #000000; stroke-linejoin: miter"/>
   </g>
   <g id="patch_60">
    <path d="M 708.079424 672.11625 
L 716.645098 672.11625 
L 716.645098 543.768728 
L 708.079424 543.768728 
z
" clip-path="url(#p996ca1d02e)" style="fill: #4682b4; stroke: #000000; stroke-linejoin: miter"/>
   </g>
   <g id="patch_61">
    <path d="M 718.786517 672.11625 
L 727.352191 672.11625 
L 727.352191 532.985972 
L 718.786517 532.985972 
z
" clip-path="url(#p996ca1d02e)" style="fill: #4682b4; stroke: #000000; stroke-linejoin: miter"/>
   </g>
   <g id="patch_62">
    <path d="M 729.49361 672.11625 
L 738.059284 672.11625 
L 738.059284 501.707199 
L 729.49361 501.707199 
z
" clip-path="url(#p996ca1d02e)" style="fill: #4682b4; stroke: #000000; stroke-linejoin: miter"/>
   </g>
   <g id="patch_63">
    <path d="M 740.200703 672.11625 
L 748.766377 672.11625 
L 748.766377 439.516795 
L 740.200703 439.516795 
z
" clip-path="url(#p996ca1d02e)" style="fill: #4682b4; stroke: #000000; stroke-linejoin: miter"/>
   </g>
   <g id="patch_64">
    <path d="M 750.907796 672.11625 
L 759.47347 672.11625 
L 759.47347 364.476474 
L 750.907796 364.476474 
z
" clip-path="url(#p996ca1d02e)" style="fill: #4682b4; stroke: #000000; stroke-linejoin: miter"/>
   </g>
   <g id="patch_65">
    <path d="M 761.614889 672.11625 
L 770.180563 672.11625 
L 770.180563 342.567765 
L 761.614889 342.567765 
z
" clip-path="url(#p996ca1d02e)" style="fill: #4682b4; stroke: #000000; stroke-linejoin: miter"/>
   </g>
   <g id="patch_66">
    <path d="M 772.321982 672.11625 
L 780.887656 672.11625 
L 780.887656 293.490661 
L 772.321982 293.490661 
z
" clip-path="url(#p996ca1d02e)" style="fill: #4682b4; stroke: #000000; stroke-linejoin: miter"/>
   </g>
   <g id="patch_67">
    <path d="M 783.029074 672.11625 
L 791.594749 672.11625 
L 791.594749 237.605495 
L 783.029074 237.605495 
z
" clip-path="url(#p996ca1d02e)" style="fill: #4682b4; stroke: #000000; stroke-linejoin: miter"/>
   </g>
   <g id="patch_68">
    <path d="M 793.736167 672.11625 
L 802.301842 672.11625 
L 802.301842 68.122277 
L 793.736167 68.122277 
z
" clip-path="url(#p996ca1d02e)" style="fill: #4682b4; stroke: #000000; stroke-linejoin: miter"/>
   </g>
   <g id="patch_69">
    <path d="M 804.44326 672.11625 
L 813.008935 672.11625 
L 813.008935 285.038448 
L 804.44326 285.038448 
z
" clip-path="url(#p996ca1d02e)" style="fill: #4682b4; stroke: #000000; stroke-linejoin: miter"/>
   </g>
   <g id="matplotlib.axis_1">
    <g id="xtick_1">
     <g id="line2d_1">
      <defs>
       <path id="m43539b11f5" d="M 0 0 
L 0 3.5 
" style="stroke: #000000; stroke-width: 0.8"/>
      </defs>
      <g>
       <use xlink:href="#m43539b11f5" x="102.057965" y="672.11625" style="stroke: #000000; stroke-width: 0.8"/>
      </g>
     </g>
     <g id="text_1">
      <!-- 1960 -->
      <g transform="translate(89.332965 686.713906) scale(0.1 -0.1)">
       <defs>
        <path id="DejaVuSans-14" d="M 794 531 
L 1825 531 
L 1825 4091 
L 703 3866 
L 703 4441 
L 1819 4666 
L 2450 4666 
L 2450 531 
L 3481 531 
L 3481 0 
L 794 0 
L 794 531 
z
" transform="scale(0.015625)"/>
        <path id="DejaVuSans-1c" d="M 703 97 
L 703 672 
Q 941 559 1184 500 
Q 1428 441 1663 441 
Q 2288 441 2617 861 
Q 2947 1281 2994 2138 
Q 2813 1869 2534 1725 
Q 2256 1581 1919 1581 
Q 1219 1581 811 2004 
Q 403 2428 403 3163 
Q 403 3881 828 4315 
Q 1253 4750 1959 4750 
Q 2769 4750 3195 4129 
Q 3622 3509 3622 2328 
Q 3622 1225 3098 567 
Q 2575 -91 1691 -91 
Q 1453 -91 1209 -44 
Q 966 3 703 97 
z
M 1959 2075 
Q 2384 2075 2632 2365 
Q 2881 2656 2881 3163 
Q 2881 3666 2632 3958 
Q 2384 4250 1959 4250 
Q 1534 4250 1286 3958 
Q 1038 3666 1038 3163 
Q 1038 2656 1286 2365 
Q 1534 2075 1959 2075 
z
" transform="scale(0.015625)"/>
        <path id="DejaVuSans-19" d="M 2113 2584 
Q 1688 2584 1439 2293 
Q 1191 2003 1191 1497 
Q 1191 994 1439 701 
Q 1688 409 2113 409 
Q 2538 409 2786 701 
Q 3034 994 3034 1497 
Q 3034 2003 2786 2293 
Q 2538 2584 2113 2584 
z
M 3366 4563 
L 3366 3988 
Q 3128 4100 2886 4159 
Q 2644 4219 2406 4219 
Q 1781 4219 1451 3797 
Q 1122 3375 1075 2522 
Q 1259 2794 1537 2939 
Q 1816 3084 2150 3084 
Q 2853 3084 3261 2657 
Q 3669 2231 3669 1497 
Q 3669 778 3244 343 
Q 2819 -91 2113 -91 
Q 1303 -91 875 529 
Q 447 1150 447 2328 
Q 447 3434 972 4092 
Q 1497 4750 2381 4750 
Q 2619 4750 2861 4703 
Q 3103 4656 3366 4563 
z
" transform="scale(0.015625)"/>
        <path id="DejaVuSans-13" d="M 2034 4250 
Q 1547 4250 1301 3770 
Q 1056 3291 1056 2328 
Q 1056 1369 1301 889 
Q 1547 409 2034 409 
Q 2525 409 2770 889 
Q 3016 1369 3016 2328 
Q 3016 3291 2770 3770 
Q 2525 4250 2034 4250 
z
M 2034 4750 
Q 2819 4750 3233 4129 
Q 3647 3509 3647 2328 
Q 3647 1150 3233 529 
Q 2819 -91 2034 -91 
Q 1250 -91 836 529 
Q 422 1150 422 2328 
Q 422 3509 836 4129 
Q 1250 4750 2034 4750 
z
" transform="scale(0.015625)"/>
       </defs>
       <use xlink:href="#DejaVuSans-14"/>
       <use xlink:href="#DejaVuSans-1c" transform="translate(63.625 0)"/>
       <use xlink:href="#DejaVuSans-19" transform="translate(127.25 0)"/>
       <use xlink:href="#DejaVuSans-13" transform="translate(190.875 0)"/>
      </g>
     </g>
    </g>
    <g id="xtick_2">
     <g id="line2d_2">
      <g>
       <use xlink:href="#m43539b11f5" x="209.128894" y="672.11625" style="stroke: #000000; stroke-width: 0.8"/>
      </g>
     </g>
     <g id="text_2">
      <!-- 1970 -->
      <g transform="translate(196.403894 686.713906) scale(0.1 -0.1)">
       <defs>
        <path id="DejaVuSans-1a" d="M 525 4666 
L 3525 4666 
L 3525 4397 
L 1831 0 
L 1172 0 
L 2766 4134 
L 525 4134 
L 525 4666 
z
" transform="scale(0.015625)"/>
       </defs>
       <use xlink:href="#DejaVuSans-14"/>
       <use xlink:href="#DejaVuSans-1c" transform="translate(63.625 0)"/>
       <use xlink:href="#DejaVuSans-1a" transform="translate(127.25 0)"/>
       <use xlink:href="#DejaVuSans-13" transform="translate(190.875 0)"/>
      </g>
     </g>
    </g>
    <g id="xtick_3">
     <g id="line2d_3">
      <g>
       <use xlink:href="#m43539b11f5" x="316.199823" y="672.11625" style="stroke: #000000; stroke-width: 0.8"/>
      </g>
     </g>
     <g id="text_3">
      <!-- 1980 -->
      <g transform="translate(303.474823 686.713906) scale(0.1 -0.1)">
       <defs>
        <path id="DejaVuSans-1b" d="M 2034 2216 
Q 1584 2216 1326 1975 
Q 1069 1734 1069 1313 
Q 1069 891 1326 650 
Q 1584 409 2034 409 
Q 2484 409 2743 651 
Q 3003 894 3003 1313 
Q 3003 1734 2745 1975 
Q 2488 2216 2034 2216 
z
M 1403 2484 
Q 997 2584 770 2862 
Q 544 3141 544 3541 
Q 544 4100 942 4425 
Q 1341 4750 2034 4750 
Q 2731 4750 3128 4425 
Q 3525 4100 3525 3541 
Q 3525 3141 3298 2862 
Q 3072 2584 2669 2484 
Q 3125 2378 3379 2068 
Q 3634 1759 3634 1313 
Q 3634 634 3220 271 
Q 2806 -91 2034 -91 
Q 1263 -91 848 271 
Q 434 634 434 1313 
Q 434 1759 690 2068 
Q 947 2378 1403 2484 
z
M 1172 3481 
Q 1172 3119 1398 2916 
Q 1625 2713 2034 2713 
Q 2441 2713 2670 2916 
Q 2900 3119 2900 3481 
Q 2900 3844 2670 4047 
Q 2441 4250 2034 4250 
Q 1625 4250 1398 4047 
Q 1172 3844 1172 3481 
z
" transform="scale(0.015625)"/>
       </defs>
       <use xlink:href="#DejaVuSans-14"/>
       <use xlink:href="#DejaVuSans-1c" transform="translate(63.625 0)"/>
       <use xlink:href="#DejaVuSans-1b" transform="translate(127.25 0)"/>
       <use xlink:href="#DejaVuSans-13" transform="translate(190.875 0)"/>
      </g>
     </g>
    </g>
    <g id="xtick_4">
     <g id="line2d_4">
      <g>
       <use xlink:href="#m43539b11f5" x="423.270753" y="672.11625" style="stroke: #000000; stroke-width: 0.8"/>
      </g>
     </g>
     <g id="text_4">
      <!-- 1990 -->
      <g transform="translate(410.545753 686.713906) scale(0.1 -0.1)">
       <use xlink:href="#DejaVuSans-14"/>
       <use xlink:href="#DejaVuSans-1c" transform="translate(63.625 0)"/>
       <use xlink:href="#DejaVuSans-1c" transform="translate(127.25 0)"/>
       <use xlink:href="#DejaVuSans-13" transform="translate(190.875 0)"/>
      </g>
     </g>
    </g>
    <g id="xtick_5">
     <g id="line2d_5">
      <g>
       <use xlink:href="#m43539b11f5" x="530.341682" y="672.11625" style="stroke: #000000; stroke-width: 0.8"/>
      </g>
     </g>
     <g id="text_5">
      <!-- 2000 -->
      <g transform="translate(517.616682 686.713906) scale(0.1 -0.1)">
       <defs>
        <path id="DejaVuSans-15" d="M 1228 531 
L 3431 531 
L 3431 0 
L 469 0 
L 469 531 
Q 828 903 1448 1529 
Q 2069 2156 2228 2338 
Q 2531 2678 2651 2914 
Q 2772 3150 2772 3378 
Q 2772 3750 2511 3984 
Q 2250 4219 1831 4219 
Q 1534 4219 1204 4116 
Q 875 4013 500 3803 
L 500 4441 
Q 881 4594 1212 4672 
Q 1544 4750 1819 4750 
Q 2544 4750 2975 4387 
Q 3406 4025 3406 3419 
Q 3406 3131 3298 2873 
Q 3191 2616 2906 2266 
Q 2828 2175 2409 1742 
Q 1991 1309 1228 531 
z
" transform="scale(0.015625)"/>
       </defs>
       <use xlink:href="#DejaVuSans-15"/>
       <use xlink:href="#DejaVuSans-13" transform="translate(63.625 0)"/>
       <use xlink:href="#DejaVuSans-13" transform="translate(127.25 0)"/>
       <use xlink:href="#DejaVuSans-13" transform="translate(190.875 0)"/>
      </g>
     </g>
    </g>
    <g id="xtick_6">
     <g id="line2d_6">
      <g>
       <use xlink:href="#m43539b11f5" x="637.412611" y="672.11625" style="stroke: #000000; stroke-width: 0.8"/>
      </g>
     </g>
     <g id="text_6">
      <!-- 2010 -->
      <g transform="translate(624.687611 686.713906) scale(0.1 -0.1)">
       <use xlink:href="#DejaVuSans-15"/>
       <use xlink:href="#DejaVuSans-13" transform="translate(63.625 0)"/>
       <use xlink:href="#DejaVuSans-14" transform="translate(127.25 0)"/>
       <use xlink:href="#DejaVuSans-13" transform="translate(190.875 0)"/>
      </g>
     </g>
    </g>
    <g id="xtick_7">
     <g id="line2d_7">
      <g>
       <use xlink:href="#m43539b11f5" x="744.48354" y="672.11625" style="stroke: #000000; stroke-width: 0.8"/>
      </g>
     </g>
     <g id="text_7">
      <!-- 2020 -->
      <g transform="translate(731.75854 686.713906) scale(0.1 -0.1)">
       <use xlink:href="#DejaVuSans-15"/>
       <use xlink:href="#DejaVuSans-13" transform="translate(63.625 0)"/>
       <use xlink:href="#DejaVuSans-15" transform="translate(127.25 0)"/>
       <use xlink:href="#DejaVuSans-13" transform="translate(190.875 0)"/>
      </g>
     </g>
    </g>
    <g id="text_8">
     <!-- Year -->
     <g transform="translate(442.688906 702.233438) scale(0.12 -0.12)">
      <defs>
       <path id="DejaVuSans-3c" d="M -13 4666 
L 666 4666 
L 1959 2747 
L 3244 4666 
L 3922 4666 
L 2272 2222 
L 2272 0 
L 1638 0 
L 1638 2222 
L -13 4666 
z
" transform="scale(0.015625)"/>
       <path id="DejaVuSans-48" d="M 3597 1894 
L 3597 1613 
L 953 1613 
Q 991 1019 1311 708 
Q 1631 397 2203 397 
Q 2534 397 2845 478 
Q 3156 559 3463 722 
L 3463 178 
Q 3153 47 2828 -22 
Q 2503 -91 2169 -91 
Q 1331 -91 842 396 
Q 353 884 353 1716 
Q 353 2575 817 3079 
Q 1281 3584 2069 3584 
Q 2775 3584 3186 3129 
Q 3597 2675 3597 1894 
z
M 3022 2063 
Q 3016 2534 2758 2815 
Q 2500 3097 2075 3097 
Q 1594 3097 1305 2825 
Q 1016 2553 972 2059 
L 3022 2063 
z
" transform="scale(0.015625)"/>
       <path id="DejaVuSans-44" d="M 2194 1759 
Q 1497 1759 1228 1600 
Q 959 1441 959 1056 
Q 959 750 1161 570 
Q 1363 391 1709 391 
Q 2188 391 2477 730 
Q 2766 1069 2766 1631 
L 2766 1759 
L 2194 1759 
z
M 3341 1997 
L 3341 0 
L 2766 0 
L 2766 531 
Q 2569 213 2275 61 
Q 1981 -91 1556 -91 
Q 1019 -91 701 211 
Q 384 513 384 1019 
Q 384 1609 779 1909 
Q 1175 2209 1959 2209 
L 2766 2209 
L 2766 2266 
Q 2766 2663 2505 2880 
Q 2244 3097 1772 3097 
Q 1472 3097 1187 3025 
Q 903 2953 641 2809 
L 641 3341 
Q 956 3463 1253 3523 
Q 1550 3584 1831 3584 
Q 2591 3584 2966 3190 
Q 3341 2797 3341 1997 
z
" transform="scale(0.015625)"/>
       <path id="DejaVuSans-55" d="M 2631 2963 
Q 2534 3019 2420 3045 
Q 2306 3072 2169 3072 
Q 1681 3072 1420 2755 
Q 1159 2438 1159 1844 
L 1159 0 
L 581 0 
L 581 3500 
L 1159 3500 
L 1159 2956 
Q 1341 3275 1631 3429 
Q 1922 3584 2338 3584 
Q 2397 3584 2469 3576 
Q 2541 3569 2628 3553 
L 2631 2963 
z
" transform="scale(0.015625)"/>
      </defs>
      <use xlink:href="#DejaVuSans-3c"/>
      <use xlink:href="#DejaVuSans-48" transform="translate(47.796875 0)"/>
      <use xlink:href="#DejaVuSans-44" transform="translate(109.328125 0)"/>
      <use xlink:href="#DejaVuSans-55" transform="translate(170.609375 0)"/>
     </g>
    </g>
   </g>
   <g id="matplotlib.axis_2">
    <g id="ytick_1">
     <g id="line2d_8">
      <path d="M 62.013438 672.11625 
L 848.770625 672.11625 
" clip-path="url(#p996ca1d02e)" style="fill: none; stroke-dasharray: 2.96,1.28; stroke-dashoffset: 0; stroke: #b0b0b0; stroke-opacity: 0.3; stroke-width: 0.8"/>
     </g>
     <g id="line2d_9">
      <defs>
       <path id="mc12fc4a322" d="M 0 0 
L -3.5 0 
" style="stroke: #000000; stroke-width: 0.8"/>
      </defs>
      <g>
       <use xlink:href="#mc12fc4a322" x="62.013438" y="672.11625" style="stroke: #000000; stroke-width: 0.8"/>
      </g>
     </g>
     <g id="text_9">
      <!-- 0 -->
      <g transform="translate(48.650938 675.915078) scale(0.1 -0.1)">
       <use xlink:href="#DejaVuSans-13"/>
      </g>
     </g>
    </g>
    <g id="ytick_2">
     <g id="line2d_10">
      <path d="M 62.013438 592.303103 
L 848.770625 592.303103 
" clip-path="url(#p996ca1d02e)" style="fill: none; stroke-dasharray: 2.96,1.28; stroke-dashoffset: 0; stroke: #b0b0b0; stroke-opacity: 0.3; stroke-width: 0.8"/>
     </g>
     <g id="line2d_11">
      <g>
       <use xlink:href="#mc12fc4a322" x="62.013438" y="592.303103" style="stroke: #000000; stroke-width: 0.8"/>
      </g>
     </g>
     <g id="text_10">
      <!-- 10000 -->
      <g transform="translate(23.200938 596.101931) scale(0.1 -0.1)">
       <use xlink:href="#DejaVuSans-14"/>
       <use xlink:href="#DejaVuSans-13" transform="translate(63.625 0)"/>
       <use xlink:href="#DejaVuSans-13" transform="translate(127.25 0)"/>
       <use xlink:href="#DejaVuSans-13" transform="translate(190.875 0)"/>
       <use xlink:href="#DejaVuSans-13" transform="translate(254.5 0)"/>
      </g>
     </g>
    </g>
    <g id="ytick_3">
     <g id="line2d_12">
      <path d="M 62.013438 512.489955 
L 848.770625 512.489955 
" clip-path="url(#p996ca1d02e)" style="fill: none; stroke-dasharray: 2.96,1.28; stroke-dashoffset: 0; stroke: #b0b0b0; stroke-opacity: 0.3; stroke-width: 0.8"/>
     </g>
     <g id="line2d_13">
      <g>
       <use xlink:href="#mc12fc4a322" x="62.013438" y="512.489955" style="stroke: #000000; stroke-width: 0.8"/>
      </g>
     </g>
     <g id="text_11">
      <!-- 20000 -->
      <g transform="translate(23.200938 516.288784) scale(0.1 -0.1)">
       <use xlink:href="#DejaVuSans-15"/>
       <use xlink:href="#DejaVuSans-13" transform="translate(63.625 0)"/>
       <use xlink:href="#DejaVuSans-13" transform="translate(127.25 0)"/>
       <use xlink:href="#DejaVuSans-13" transform="translate(190.875 0)"/>
       <use xlink:href="#DejaVuSans-13" transform="translate(254.5 0)"/>
      </g>
     </g>
    </g>
    <g id="ytick_4">
     <g id="line2d_14">
      <path d="M 62.013438 432.676808 
L 848.770625 432.676808 
" clip-path="url(#p996ca1d02e)" style="fill: none; stroke-dasharray: 2.96,1.28; stroke-dashoffset: 0; stroke: #b0b0b0; stroke-opacity: 0.3; stroke-width: 0.8"/>
     </g>
     <g id="line2d_15">
      <g>
       <use xlink:href="#mc12fc4a322" x="62.013438" y="432.676808" style="stroke: #000000; stroke-width: 0.8"/>
      </g>
     </g>
     <g id="text_12">
      <!-- 30000 -->
      <g transform="translate(23.200938 436.475636) scale(0.1 -0.1)">
       <defs>
        <path id="DejaVuSans-16" d="M 2597 2516 
Q 3050 2419 3304 2112 
Q 3559 1806 3559 1356 
Q 3559 666 3084 287 
Q 2609 -91 1734 -91 
Q 1441 -91 1130 -33 
Q 819 25 488 141 
L 488 750 
Q 750 597 1062 519 
Q 1375 441 1716 441 
Q 2309 441 2620 675 
Q 2931 909 2931 1356 
Q 2931 1769 2642 2001 
Q 2353 2234 1838 2234 
L 1294 2234 
L 1294 2753 
L 1863 2753 
Q 2328 2753 2575 2939 
Q 2822 3125 2822 3475 
Q 2822 3834 2567 4026 
Q 2313 4219 1838 4219 
Q 1578 4219 1281 4162 
Q 984 4106 628 3988 
L 628 4550 
Q 988 4650 1302 4700 
Q 1616 4750 1894 4750 
Q 2613 4750 3031 4423 
Q 3450 4097 3450 3541 
Q 3450 3153 3228 2886 
Q 3006 2619 2597 2516 
z
" transform="scale(0.015625)"/>
       </defs>
       <use xlink:href="#DejaVuSans-16"/>
       <use xlink:href="#DejaVuSans-13" transform="translate(63.625 0)"/>
       <use xlink:href="#DejaVuSans-13" transform="translate(127.25 0)"/>
       <use xlink:href="#DejaVuSans-13" transform="translate(190.875 0)"/>
       <use xlink:href="#DejaVuSans-13" transform="translate(254.5 0)"/>
      </g>
     </g>
    </g>
    <g id="ytick_5">
     <g id="line2d_16">
      <path d="M 62.013438 352.863661 
L 848.770625 352.863661 
" clip-path="url(#p996ca1d02e)" style="fill: none; stroke-dasharray: 2.96,1.28; stroke-dashoffset: 0; stroke: #b0b0b0; stroke-opacity: 0.3; stroke-width: 0.8"/>
     </g>
     <g id="line2d_17">
      <g>
       <use xlink:href="#mc12fc4a322" x="62.013438" y="352.863661" style="stroke: #000000; stroke-width: 0.8"/>
      </g>
     </g>
     <g id="text_13">
      <!-- 40000 -->
      <g transform="translate(23.200938 356.662489) scale(0.1 -0.1)">
       <defs>
        <path id="DejaVuSans-17" d="M 2419 4116 
L 825 1625 
L 2419 1625 
L 2419 4116 
z
M 2253 4666 
L 3047 4666 
L 3047 1625 
L 3713 1625 
L 3713 1100 
L 3047 1100 
L 3047 0 
L 2419 0 
L 2419 1100 
L 313 1100 
L 313 1709 
L 2253 4666 
z
" transform="scale(0.015625)"/>
       </defs>
       <use xlink:href="#DejaVuSans-17"/>
       <use xlink:href="#DejaVuSans-13" transform="translate(63.625 0)"/>
       <use xlink:href="#DejaVuSans-13" transform="translate(127.25 0)"/>
       <use xlink:href="#DejaVuSans-13" transform="translate(190.875 0)"/>
       <use xlink:href="#DejaVuSans-13" transform="translate(254.5 0)"/>
      </g>
     </g>
    </g>
    <g id="ytick_6">
     <g id="line2d_18">
      <path d="M 62.013438 273.050514 
L 848.770625 273.050514 
" clip-path="url(#p996ca1d02e)" style="fill: none; stroke-dasharray: 2.96,1.28; stroke-dashoffset: 0; stroke: #b0b0b0; stroke-opacity: 0.3; stroke-width: 0.8"/>
     </g>
     <g id="line2d_19">
      <g>
       <use xlink:href="#mc12fc4a322" x="62.013438" y="273.050514" style="stroke: #000000; stroke-width: 0.8"/>
      </g>
     </g>
     <g id="text_14">
      <!-- 50000 -->
      <g transform="translate(23.200938 276.849342) scale(0.1 -0.1)">
       <defs>
        <path id="DejaVuSans-18" d="M 691 4666 
L 3169 4666 
L 3169 4134 
L 1269 4134 
L 1269 2991 
Q 1406 3038 1543 3061 
Q 1681 3084 1819 3084 
Q 2600 3084 3056 2656 
Q 3513 2228 3513 1497 
Q 3513 744 3044 326 
Q 2575 -91 1722 -91 
Q 1428 -91 1123 -41 
Q 819 9 494 109 
L 494 744 
Q 775 591 1075 516 
Q 1375 441 1709 441 
Q 2250 441 2565 725 
Q 2881 1009 2881 1497 
Q 2881 1984 2565 2268 
Q 2250 2553 1709 2553 
Q 1456 2553 1204 2497 
Q 953 2441 691 2322 
L 691 4666 
z
" transform="scale(0.015625)"/>
       </defs>
       <use xlink:href="#DejaVuSans-18"/>
       <use xlink:href="#DejaVuSans-13" transform="translate(63.625 0)"/>
       <use xlink:href="#DejaVuSans-13" transform="translate(127.25 0)"/>
       <use xlink:href="#DejaVuSans-13" transform="translate(190.875 0)"/>
       <use xlink:href="#DejaVuSans-13" transform="translate(254.5 0)"/>
      </g>
     </g>
    </g>
    <g id="ytick_7">
     <g id="line2d_20">
      <path d="M 62.013438 193.237366 
L 848.770625 193.237366 
" clip-path="url(#p996ca1d02e)" style="fill: none; stroke-dasharray: 2.96,1.28; stroke-dashoffset: 0; stroke: #b0b0b0; stroke-opacity: 0.3; stroke-width: 0.8"/>
     </g>
     <g id="line2d_21">
      <g>
       <use xlink:href="#mc12fc4a322" x="62.013438" y="193.237366" style="stroke: #000000; stroke-width: 0.8"/>
      </g>
     </g>
     <g id="text_15">
      <!-- 60000 -->
      <g transform="translate(23.200938 197.036195) scale(0.1 -0.1)">
       <use xlink:href="#DejaVuSans-19"/>
       <use xlink:href="#DejaVuSans-13" transform="translate(63.625 0)"/>
       <use xlink:href="#DejaVuSans-13" transform="translate(127.25 0)"/>
       <use xlink:href="#DejaVuSans-13" transform="translate(190.875 0)"/>
       <use xlink:href="#DejaVuSans-13" transform="translate(254.5 0)"/>
      </g>
     </g>
    </g>
    <g id="ytick_8">
     <g id="line2d_22">
      <path d="M 62.013438 113.424219 
L 848.770625 113.424219 
" clip-path="url(#p996ca1d02e)" style="fill: none; stroke-dasharray: 2.96,1.28; stroke-dashoffset: 0; stroke: #b0b0b0; stroke-opacity: 0.3; stroke-width: 0.8"/>
     </g>
     <g id="line2d_23">
      <g>
       <use xlink:href="#mc12fc4a322" x="62.013438" y="113.424219" style="stroke: #000000; stroke-width: 0.8"/>
      </g>
     </g>
     <g id="text_16">
      <!-- 70000 -->
      <g transform="translate(23.200938 117.223047) scale(0.1 -0.1)">
       <use xlink:href="#DejaVuSans-1a"/>
       <use xlink:href="#DejaVuSans-13" transform="translate(63.625 0)"/>
       <use xlink:href="#DejaVuSans-13" transform="translate(127.25 0)"/>
       <use xlink:href="#DejaVuSans-13" transform="translate(190.875 0)"/>
       <use xlink:href="#DejaVuSans-13" transform="translate(254.5 0)"/>
      </g>
     </g>
    </g>
    <g id="text_17">
     <!-- Number of new research software records -->
     <g transform="translate(16.318125 480.857227) rotate(-90) scale(0.12 -0.12)">
      <defs>
       <path id="DejaVuSans-31" d="M 628 4666 
L 1478 4666 
L 3547 763 
L 3547 4666 
L 4159 4666 
L 4159 0 
L 3309 0 
L 1241 3903 
L 1241 0 
L 628 0 
L 628 4666 
z
" transform="scale(0.015625)"/>
       <path id="DejaVuSans-58" d="M 544 1381 
L 544 3500 
L 1119 3500 
L 1119 1403 
Q 1119 906 1312 657 
Q 1506 409 1894 409 
Q 2359 409 2629 706 
Q 2900 1003 2900 1516 
L 2900 3500 
L 3475 3500 
L 3475 0 
L 2900 0 
L 2900 538 
Q 2691 219 2414 64 
Q 2138 -91 1772 -91 
Q 1169 -91 856 284 
Q 544 659 544 1381 
z
M 1991 3584 
L 1991 3584 
z
" transform="scale(0.015625)"/>
       <path id="DejaVuSans-50" d="M 3328 2828 
Q 3544 3216 3844 3400 
Q 4144 3584 4550 3584 
Q 5097 3584 5394 3201 
Q 5691 2819 5691 2113 
L 5691 0 
L 5113 0 
L 5113 2094 
Q 5113 2597 4934 2840 
Q 4756 3084 4391 3084 
Q 3944 3084 3684 2787 
Q 3425 2491 3425 1978 
L 3425 0 
L 2847 0 
L 2847 2094 
Q 2847 2600 2669 2842 
Q 2491 3084 2119 3084 
Q 1678 3084 1418 2786 
Q 1159 2488 1159 1978 
L 1159 0 
L 581 0 
L 581 3500 
L 1159 3500 
L 1159 2956 
Q 1356 3278 1631 3431 
Q 1906 3584 2284 3584 
Q 2666 3584 2933 3390 
Q 3200 3197 3328 2828 
z
" transform="scale(0.015625)"/>
       <path id="DejaVuSans-45" d="M 3116 1747 
Q 3116 2381 2855 2742 
Q 2594 3103 2138 3103 
Q 1681 3103 1420 2742 
Q 1159 2381 1159 1747 
Q 1159 1113 1420 752 
Q 1681 391 2138 391 
Q 2594 391 2855 752 
Q 3116 1113 3116 1747 
z
M 1159 2969 
Q 1341 3281 1617 3432 
Q 1894 3584 2278 3584 
Q 2916 3584 3314 3078 
Q 3713 2572 3713 1747 
Q 3713 922 3314 415 
Q 2916 -91 2278 -91 
Q 1894 -91 1617 61 
Q 1341 213 1159 525 
L 1159 0 
L 581 0 
L 581 4863 
L 1159 4863 
L 1159 2969 
z
" transform="scale(0.015625)"/>
       <path id="DejaVuSans-3" transform="scale(0.015625)"/>
       <path id="DejaVuSans-52" d="M 1959 3097 
Q 1497 3097 1228 2736 
Q 959 2375 959 1747 
Q 959 1119 1226 758 
Q 1494 397 1959 397 
Q 2419 397 2687 759 
Q 2956 1122 2956 1747 
Q 2956 2369 2687 2733 
Q 2419 3097 1959 3097 
z
M 1959 3584 
Q 2709 3584 3137 3096 
Q 3566 2609 3566 1747 
Q 3566 888 3137 398 
Q 2709 -91 1959 -91 
Q 1206 -91 779 398 
Q 353 888 353 1747 
Q 353 2609 779 3096 
Q 1206 3584 1959 3584 
z
" transform="scale(0.015625)"/>
       <path id="DejaVuSans-49" d="M 2375 4863 
L 2375 4384 
L 1825 4384 
Q 1516 4384 1395 4259 
Q 1275 4134 1275 3809 
L 1275 3500 
L 2222 3500 
L 2222 3053 
L 1275 3053 
L 1275 0 
L 697 0 
L 697 3053 
L 147 3053 
L 147 3500 
L 697 3500 
L 697 3744 
Q 697 4328 969 4595 
Q 1241 4863 1831 4863 
L 2375 4863 
z
" transform="scale(0.015625)"/>
       <path id="DejaVuSans-51" d="M 3513 2113 
L 3513 0 
L 2938 0 
L 2938 2094 
Q 2938 2591 2744 2837 
Q 2550 3084 2163 3084 
Q 1697 3084 1428 2787 
Q 1159 2491 1159 1978 
L 1159 0 
L 581 0 
L 581 3500 
L 1159 3500 
L 1159 2956 
Q 1366 3272 1645 3428 
Q 1925 3584 2291 3584 
Q 2894 3584 3203 3211 
Q 3513 2838 3513 2113 
z
" transform="scale(0.015625)"/>
       <path id="DejaVuSans-5a" d="M 269 3500 
L 844 3500 
L 1563 769 
L 2278 3500 
L 2956 3500 
L 3675 769 
L 4391 3500 
L 4966 3500 
L 4050 0 
L 3372 0 
L 2619 2869 
L 1863 0 
L 1184 0 
L 269 3500 
z
" transform="scale(0.015625)"/>
       <path id="DejaVuSans-56" d="M 2834 3397 
L 2834 2853 
Q 2591 2978 2328 3040 
Q 2066 3103 1784 3103 
Q 1356 3103 1142 2972 
Q 928 2841 928 2578 
Q 928 2378 1081 2264 
Q 1234 2150 1697 2047 
L 1894 2003 
Q 2506 1872 2764 1633 
Q 3022 1394 3022 966 
Q 3022 478 2636 193 
Q 2250 -91 1575 -91 
Q 1294 -91 989 -36 
Q 684 19 347 128 
L 347 722 
Q 666 556 975 473 
Q 1284 391 1588 391 
Q 1994 391 2212 530 
Q 2431 669 2431 922 
Q 2431 1156 2273 1281 
Q 2116 1406 1581 1522 
L 1381 1569 
Q 847 1681 609 1914 
Q 372 2147 372 2553 
Q 372 3047 722 3315 
Q 1072 3584 1716 3584 
Q 2034 3584 2315 3537 
Q 2597 3491 2834 3397 
z
" transform="scale(0.015625)"/>
       <path id="DejaVuSans-46" d="M 3122 3366 
L 3122 2828 
Q 2878 2963 2633 3030 
Q 2388 3097 2138 3097 
Q 1578 3097 1268 2742 
Q 959 2388 959 1747 
Q 959 1106 1268 751 
Q 1578 397 2138 397 
Q 2388 397 2633 464 
Q 2878 531 3122 666 
L 3122 134 
Q 2881 22 2623 -34 
Q 2366 -91 2075 -91 
Q 1284 -91 818 406 
Q 353 903 353 1747 
Q 353 2603 823 3093 
Q 1294 3584 2113 3584 
Q 2378 3584 2631 3529 
Q 2884 3475 3122 3366 
z
" transform="scale(0.015625)"/>
       <path id="DejaVuSans-4b" d="M 3513 2113 
L 3513 0 
L 2938 0 
L 2938 2094 
Q 2938 2591 2744 2837 
Q 2550 3084 2163 3084 
Q 1697 3084 1428 2787 
Q 1159 2491 1159 1978 
L 1159 0 
L 581 0 
L 581 4863 
L 1159 4863 
L 1159 2956 
Q 1366 3272 1645 3428 
Q 1925 3584 2291 3584 
Q 2894 3584 3203 3211 
Q 3513 2838 3513 2113 
z
" transform="scale(0.015625)"/>
       <path id="DejaVuSans-57" d="M 1172 4494 
L 1172 3500 
L 2356 3500 
L 2356 3053 
L 1172 3053 
L 1172 1153 
Q 1172 725 1289 603 
Q 1406 481 1766 481 
L 2356 481 
L 2356 0 
L 1766 0 
Q 1100 0 847 248 
Q 594 497 594 1153 
L 594 3053 
L 172 3053 
L 172 3500 
L 594 3500 
L 594 4494 
L 1172 4494 
z
" transform="scale(0.015625)"/>
       <path id="DejaVuSans-47" d="M 2906 2969 
L 2906 4863 
L 3481 4863 
L 3481 0 
L 2906 0 
L 2906 525 
Q 2725 213 2448 61 
Q 2172 -91 1784 -91 
Q 1150 -91 751 415 
Q 353 922 353 1747 
Q 353 2572 751 3078 
Q 1150 3584 1784 3584 
Q 2172 3584 2448 3432 
Q 2725 3281 2906 2969 
z
M 947 1747 
Q 947 1113 1208 752 
Q 1469 391 1925 391 
Q 2381 391 2643 752 
Q 2906 1113 2906 1747 
Q 2906 2381 2643 2742 
Q 2381 3103 1925 3103 
Q 1469 3103 1208 2742 
Q 947 2381 947 1747 
z
" transform="scale(0.015625)"/>
      </defs>
      <use xlink:href="#DejaVuSans-31"/>
      <use xlink:href="#DejaVuSans-58" transform="translate(74.8125 0)"/>
      <use xlink:href="#DejaVuSans-50" transform="translate(138.1875 0)"/>
      <use xlink:href="#DejaVuSans-45" transform="translate(235.59375 0)"/>
      <use xlink:href="#DejaVuSans-48" transform="translate(299.078125 0)"/>
      <use xlink:href="#DejaVuSans-55" transform="translate(360.609375 0)"/>
      <use xlink:href="#DejaVuSans-3" transform="translate(401.71875 0)"/>
      <use xlink:href="#DejaVuSans-52" transform="translate(433.5 0)"/>
      <use xlink:href="#DejaVuSans-49" transform="translate(494.6875 0)"/>
      <use xlink:href="#DejaVuSans-3" transform="translate(529.890625 0)"/>
      <use xlink:href="#DejaVuSans-51" transform="translate(561.671875 0)"/>
      <use xlink:href="#DejaVuSans-48" transform="translate(625.046875 0)"/>
      <use xlink:href="#DejaVuSans-5a" transform="translate(686.578125 0)"/>
      <use xlink:href="#DejaVuSans-3" transform="translate(768.359375 0)"/>
      <use xlink:href="#DejaVuSans-55" transform="translate(800.140625 0)"/>
      <use xlink:href="#DejaVuSans-48" transform="translate(839.046875 0)"/>
      <use xlink:href="#DejaVuSans-56" transform="translate(900.578125 0)"/>
      <use xlink:href="#DejaVuSans-48" transform="translate(952.671875 0)"/>
      <use xlink:href="#DejaVuSans-44" transform="translate(1014.203125 0)"/>
      <use xlink:href="#DejaVuSans-55" transform="translate(1075.484375 0)"/>
      <use xlink:href="#DejaVuSans-46" transform="translate(1114.390625 0)"/>
      <use xlink:href="#DejaVuSans-4b" transform="translate(1169.375 0)"/>
      <use xlink:href="#DejaVuSans-3" transform="translate(1232.75 0)"/>
      <use xlink:href="#DejaVuSans-56" transform="translate(1264.53125 0)"/>
      <use xlink:href="#DejaVuSans-52" transform="translate(1316.625 0)"/>
      <use xlink:href="#DejaVuSans-49" transform="translate(1377.8125 0)"/>
      <use xlink:href="#DejaVuSans-57" transform="translate(1411.265625 0)"/>
      <use xlink:href="#DejaVuSans-5a" transform="translate(1450.46875 0)"/>
      <use xlink:href="#DejaVuSans-44" transform="translate(1532.25 0)"/>
      <use xlink:href="#DejaVuSans-55" transform="translate(1593.53125 0)"/>
      <use xlink:href="#DejaVuSans-48" transform="translate(1632.4375 0)"/>
      <use xlink:href="#DejaVuSans-3" transform="translate(1693.96875 0)"/>
      <use xlink:href="#DejaVuSans-55" transform="translate(1725.75 0)"/>
      <use xlink:href="#DejaVuSans-48" transform="translate(1764.65625 0)"/>
      <use xlink:href="#DejaVuSans-46" transform="translate(1826.1875 0)"/>
      <use xlink:href="#DejaVuSans-52" transform="translate(1881.171875 0)"/>
      <use xlink:href="#DejaVuSans-55" transform="translate(1942.359375 0)"/>
      <use xlink:href="#DejaVuSans-47" transform="translate(1981.71875 0)"/>
      <use xlink:href="#DejaVuSans-56" transform="translate(2045.203125 0)"/>
     </g>
    </g>
   </g>
   <g id="patch_70">
    <path d="M 62.013438 672.11625 
L 62.013438 37.922578 
" style="fill: none; stroke: #000000; stroke-width: 0.8; stroke-linejoin: miter; stroke-linecap: square"/>
   </g>
   <g id="patch_71">
    <path d="M 848.770625 672.11625 
L 848.770625 37.922578 
" style="fill: none; stroke: #000000; stroke-width: 0.8; stroke-linejoin: miter; stroke-linecap: square"/>
   </g>
   <g id="patch_72">
    <path d="M 62.013438 672.11625 
L 848.770625 672.11625 
" style="fill: none; stroke: #000000; stroke-width: 0.8; stroke-linejoin: miter; stroke-linecap: square"/>
   </g>
   <g id="patch_73">
    <path d="M 62.013438 37.922578 
L 848.770625 37.922578 
" style="fill: none; stroke: #000000; stroke-width: 0.8; stroke-linejoin: miter; stroke-linecap: square"/>
   </g>
   <g id="text_18">
    <!-- 7657 -->
    <g transform="translate(691.475168 609.081448) scale(0.08 -0.08)">
     <use xlink:href="#DejaVuSans-1a"/>
     <use xlink:href="#DejaVuSans-19" transform="translate(63.625 0)"/>
     <use xlink:href="#DejaVuSans-18" transform="translate(127.25 0)"/>
     <use xlink:href="#DejaVuSans-1a" transform="translate(190.875 0)"/>
    </g>
   </g>
   <g id="text_19">
    <!-- 16081 -->
    <g transform="translate(699.637261 541.846853) scale(0.08 -0.08)">
     <use xlink:href="#DejaVuSans-14"/>
     <use xlink:href="#DejaVuSans-19" transform="translate(63.625 0)"/>
     <use xlink:href="#DejaVuSans-13" transform="translate(127.25 0)"/>
     <use xlink:href="#DejaVuSans-1b" transform="translate(190.875 0)"/>
     <use xlink:href="#DejaVuSans-14" transform="translate(254.5 0)"/>
    </g>
   </g>
   <g id="text_20">
    <!-- 17432 -->
    <g transform="translate(710.344354 531.064097) scale(0.08 -0.08)">
     <use xlink:href="#DejaVuSans-14"/>
     <use xlink:href="#DejaVuSans-1a" transform="translate(63.625 0)"/>
     <use xlink:href="#DejaVuSans-17" transform="translate(127.25 0)"/>
     <use xlink:href="#DejaVuSans-16" transform="translate(190.875 0)"/>
     <use xlink:href="#DejaVuSans-15" transform="translate(254.5 0)"/>
    </g>
   </g>
   <g id="text_21">
    <!-- 21351 -->
    <g transform="translate(721.051447 499.785324) scale(0.08 -0.08)">
     <use xlink:href="#DejaVuSans-15"/>
     <use xlink:href="#DejaVuSans-14" transform="translate(63.625 0)"/>
     <use xlink:href="#DejaVuSans-16" transform="translate(127.25 0)"/>
     <use xlink:href="#DejaVuSans-18" transform="translate(190.875 0)"/>
     <use xlink:href="#DejaVuSans-14" transform="translate(254.5 0)"/>
    </g>
   </g>
   <g id="text_22">
    <!-- 29143 -->
    <g transform="translate(731.75854 437.59492) scale(0.08 -0.08)">
     <use xlink:href="#DejaVuSans-15"/>
     <use xlink:href="#DejaVuSans-1c" transform="translate(63.625 0)"/>
     <use xlink:href="#DejaVuSans-14" transform="translate(127.25 0)"/>
     <use xlink:href="#DejaVuSans-17" transform="translate(190.875 0)"/>
     <use xlink:href="#DejaVuSans-16" transform="translate(254.5 0)"/>
    </g>
   </g>
   <g id="text_23">
    <!-- 38545 -->
    <g transform="translate(742.465633 362.554599) scale(0.08 -0.08)">
     <use xlink:href="#DejaVuSans-16"/>
     <use xlink:href="#DejaVuSans-1b" transform="translate(63.625 0)"/>
     <use xlink:href="#DejaVuSans-18" transform="translate(127.25 0)"/>
     <use xlink:href="#DejaVuSans-17" transform="translate(190.875 0)"/>
     <use xlink:href="#DejaVuSans-18" transform="translate(254.5 0)"/>
    </g>
   </g>
   <g id="text_24">
    <!-- 41290 -->
    <g transform="translate(753.172726 340.64589) scale(0.08 -0.08)">
     <use xlink:href="#DejaVuSans-17"/>
     <use xlink:href="#DejaVuSans-14" transform="translate(63.625 0)"/>
     <use xlink:href="#DejaVuSans-15" transform="translate(127.25 0)"/>
     <use xlink:href="#DejaVuSans-1c" transform="translate(190.875 0)"/>
     <use xlink:href="#DejaVuSans-13" transform="translate(254.5 0)"/>
    </g>
   </g>
   <g id="text_25">
    <!-- 47439 -->
    <g transform="translate(763.879819 291.568786) scale(0.08 -0.08)">
     <use xlink:href="#DejaVuSans-17"/>
     <use xlink:href="#DejaVuSans-1a" transform="translate(63.625 0)"/>
     <use xlink:href="#DejaVuSans-17" transform="translate(127.25 0)"/>
     <use xlink:href="#DejaVuSans-16" transform="translate(190.875 0)"/>
     <use xlink:href="#DejaVuSans-1c" transform="translate(254.5 0)"/>
    </g>
   </g>
   <g id="text_26">
    <!-- 54441 -->
    <g transform="translate(774.586912 235.68362) scale(0.08 -0.08)">
     <use xlink:href="#DejaVuSans-18"/>
     <use xlink:href="#DejaVuSans-17" transform="translate(63.625 0)"/>
     <use xlink:href="#DejaVuSans-17" transform="translate(127.25 0)"/>
     <use xlink:href="#DejaVuSans-17" transform="translate(190.875 0)"/>
     <use xlink:href="#DejaVuSans-14" transform="translate(254.5 0)"/>
    </g>
   </g>
   <g id="text_27">
    <!-- 75676 -->
    <g transform="translate(785.294005 66.200402) scale(0.08 -0.08)">
     <use xlink:href="#DejaVuSans-1a"/>
     <use xlink:href="#DejaVuSans-18" transform="translate(63.625 0)"/>
     <use xlink:href="#DejaVuSans-19" transform="translate(127.25 0)"/>
     <use xlink:href="#DejaVuSans-1a" transform="translate(190.875 0)"/>
     <use xlink:href="#DejaVuSans-19" transform="translate(254.5 0)"/>
    </g>
   </g>
   <g id="text_28">
    <!-- 48498 -->
    <g transform="translate(796.001097 283.116573) scale(0.08 -0.08)">
     <use xlink:href="#DejaVuSans-17"/>
     <use xlink:href="#DejaVuSans-1b" transform="translate(63.625 0)"/>
     <use xlink:href="#DejaVuSans-17" transform="translate(127.25 0)"/>
     <use xlink:href="#DejaVuSans-1c" transform="translate(190.875 0)"/>
     <use xlink:href="#DejaVuSans-1b" transform="translate(254.5 0)"/>
    </g>
   </g>
   <g id="text_29">
    <!-- New Research Software Records per year of publication 1960-2026 -->
    <g transform="translate(228.316406 17.519297) scale(0.12 -0.12)">
     <defs>
      <path id="DejaVuSans-Bold-31" d="M 588 4666 
L 1931 4666 
L 3628 1466 
L 3628 4666 
L 4769 4666 
L 4769 0 
L 3425 0 
L 1728 3200 
L 1728 0 
L 588 0 
L 588 4666 
z
" transform="scale(0.015625)"/>
      <path id="DejaVuSans-Bold-48" d="M 4031 1759 
L 4031 1441 
L 1416 1441 
Q 1456 1047 1700 850 
Q 1944 653 2381 653 
Q 2734 653 3104 758 
Q 3475 863 3866 1075 
L 3866 213 
Q 3469 63 3072 -14 
Q 2675 -91 2278 -91 
Q 1328 -91 801 392 
Q 275 875 275 1747 
Q 275 2603 792 3093 
Q 1309 3584 2216 3584 
Q 3041 3584 3536 3087 
Q 4031 2591 4031 1759 
z
M 2881 2131 
Q 2881 2450 2695 2645 
Q 2509 2841 2209 2841 
Q 1884 2841 1681 2658 
Q 1478 2475 1428 2131 
L 2881 2131 
z
" transform="scale(0.015625)"/>
      <path id="DejaVuSans-Bold-5a" d="M 225 3500 
L 1313 3500 
L 1900 1088 
L 2491 3500 
L 3425 3500 
L 4013 1113 
L 4603 3500 
L 5691 3500 
L 4769 0 
L 3547 0 
L 2956 2406 
L 2369 0 
L 1147 0 
L 225 3500 
z
" transform="scale(0.015625)"/>
      <path id="DejaVuSans-Bold-3" transform="scale(0.015625)"/>
      <path id="DejaVuSans-Bold-35" d="M 2297 2597 
Q 2675 2597 2839 2737 
Q 3003 2878 3003 3200 
Q 3003 3519 2839 3656 
Q 2675 3794 2297 3794 
L 1791 3794 
L 1791 2597 
L 2297 2597 
z
M 1791 1766 
L 1791 0 
L 588 0 
L 588 4666 
L 2425 4666 
Q 3347 4666 3776 4356 
Q 4206 4047 4206 3378 
Q 4206 2916 3982 2619 
Q 3759 2322 3309 2181 
Q 3556 2125 3751 1926 
Q 3947 1728 4147 1325 
L 4800 0 
L 3519 0 
L 2950 1159 
Q 2778 1509 2601 1637 
Q 2425 1766 2131 1766 
L 1791 1766 
z
" transform="scale(0.015625)"/>
      <path id="DejaVuSans-Bold-56" d="M 3272 3391 
L 3272 2541 
Q 2913 2691 2578 2766 
Q 2244 2841 1947 2841 
Q 1628 2841 1473 2761 
Q 1319 2681 1319 2516 
Q 1319 2381 1436 2309 
Q 1553 2238 1856 2203 
L 2053 2175 
Q 2913 2066 3209 1816 
Q 3506 1566 3506 1031 
Q 3506 472 3093 190 
Q 2681 -91 1863 -91 
Q 1516 -91 1145 -36 
Q 775 19 384 128 
L 384 978 
Q 719 816 1070 734 
Q 1422 653 1784 653 
Q 2113 653 2278 743 
Q 2444 834 2444 1013 
Q 2444 1163 2330 1236 
Q 2216 1309 1875 1350 
L 1678 1375 
Q 931 1469 631 1722 
Q 331 1975 331 2491 
Q 331 3047 712 3315 
Q 1094 3584 1881 3584 
Q 2191 3584 2531 3537 
Q 2872 3491 3272 3391 
z
" transform="scale(0.015625)"/>
      <path id="DejaVuSans-Bold-44" d="M 2106 1575 
Q 1756 1575 1579 1456 
Q 1403 1338 1403 1106 
Q 1403 894 1545 773 
Q 1688 653 1941 653 
Q 2256 653 2472 879 
Q 2688 1106 2688 1447 
L 2688 1575 
L 2106 1575 
z
M 3816 1997 
L 3816 0 
L 2688 0 
L 2688 519 
Q 2463 200 2181 54 
Q 1900 -91 1497 -91 
Q 953 -91 614 226 
Q 275 544 275 1050 
Q 275 1666 698 1953 
Q 1122 2241 2028 2241 
L 2688 2241 
L 2688 2328 
Q 2688 2594 2478 2717 
Q 2269 2841 1825 2841 
Q 1466 2841 1156 2769 
Q 847 2697 581 2553 
L 581 3406 
Q 941 3494 1303 3539 
Q 1666 3584 2028 3584 
Q 2975 3584 3395 3211 
Q 3816 2838 3816 1997 
z
" transform="scale(0.015625)"/>
      <path id="DejaVuSans-Bold-55" d="M 3138 2547 
Q 2991 2616 2845 2648 
Q 2700 2681 2553 2681 
Q 2122 2681 1889 2404 
Q 1656 2128 1656 1613 
L 1656 0 
L 538 0 
L 538 3500 
L 1656 3500 
L 1656 2925 
Q 1872 3269 2151 3426 
Q 2431 3584 2822 3584 
Q 2878 3584 2943 3579 
Q 3009 3575 3134 3559 
L 3138 2547 
z
" transform="scale(0.015625)"/>
      <path id="DejaVuSans-Bold-46" d="M 3366 3391 
L 3366 2478 
Q 3138 2634 2908 2709 
Q 2678 2784 2431 2784 
Q 1963 2784 1702 2511 
Q 1441 2238 1441 1747 
Q 1441 1256 1702 982 
Q 1963 709 2431 709 
Q 2694 709 2930 787 
Q 3166 866 3366 1019 
L 3366 103 
Q 3103 6 2833 -42 
Q 2563 -91 2291 -91 
Q 1344 -91 809 395 
Q 275 881 275 1747 
Q 275 2613 809 3098 
Q 1344 3584 2291 3584 
Q 2566 3584 2833 3536 
Q 3100 3488 3366 3391 
z
" transform="scale(0.015625)"/>
      <path id="DejaVuSans-Bold-4b" d="M 4056 2131 
L 4056 0 
L 2931 0 
L 2931 347 
L 2931 1625 
Q 2931 2084 2911 2256 
Q 2891 2428 2841 2509 
Q 2775 2619 2662 2680 
Q 2550 2741 2406 2741 
Q 2056 2741 1856 2470 
Q 1656 2200 1656 1722 
L 1656 0 
L 538 0 
L 538 4863 
L 1656 4863 
L 1656 2988 
Q 1909 3294 2193 3439 
Q 2478 3584 2822 3584 
Q 3428 3584 3742 3212 
Q 4056 2841 4056 2131 
z
" transform="scale(0.015625)"/>
      <path id="DejaVuSans-Bold-36" d="M 3834 4519 
L 3834 3531 
Q 3450 3703 3084 3790 
Q 2719 3878 2394 3878 
Q 1963 3878 1756 3759 
Q 1550 3641 1550 3391 
Q 1550 3203 1689 3098 
Q 1828 2994 2194 2919 
L 2706 2816 
Q 3484 2659 3812 2340 
Q 4141 2022 4141 1434 
Q 4141 663 3683 286 
Q 3225 -91 2284 -91 
Q 1841 -91 1394 -6 
Q 947 78 500 244 
L 500 1259 
Q 947 1022 1364 901 
Q 1781 781 2169 781 
Q 2563 781 2772 912 
Q 2981 1044 2981 1288 
Q 2981 1506 2839 1625 
Q 2697 1744 2272 1838 
L 1806 1941 
Q 1106 2091 782 2419 
Q 459 2747 459 3303 
Q 459 4000 909 4375 
Q 1359 4750 2203 4750 
Q 2588 4750 2994 4692 
Q 3400 4634 3834 4519 
z
" transform="scale(0.015625)"/>
      <path id="DejaVuSans-Bold-52" d="M 2203 2784 
Q 1831 2784 1636 2517 
Q 1441 2250 1441 1747 
Q 1441 1244 1636 976 
Q 1831 709 2203 709 
Q 2569 709 2762 976 
Q 2956 1244 2956 1747 
Q 2956 2250 2762 2517 
Q 2569 2784 2203 2784 
z
M 2203 3584 
Q 3106 3584 3614 3096 
Q 4122 2609 4122 1747 
Q 4122 884 3614 396 
Q 3106 -91 2203 -91 
Q 1297 -91 786 396 
Q 275 884 275 1747 
Q 275 2609 786 3096 
Q 1297 3584 2203 3584 
z
" transform="scale(0.015625)"/>
      <path id="DejaVuSans-Bold-49" d="M 2841 4863 
L 2841 4128 
L 2222 4128 
Q 1984 4128 1890 4042 
Q 1797 3956 1797 3744 
L 1797 3500 
L 2753 3500 
L 2753 2700 
L 1797 2700 
L 1797 0 
L 678 0 
L 678 2700 
L 122 2700 
L 122 3500 
L 678 3500 
L 678 3744 
Q 678 4316 997 4589 
Q 1316 4863 1984 4863 
L 2841 4863 
z
" transform="scale(0.015625)"/>
      <path id="DejaVuSans-Bold-57" d="M 1759 4494 
L 1759 3500 
L 2913 3500 
L 2913 2700 
L 1759 2700 
L 1759 1216 
Q 1759 972 1856 886 
Q 1953 800 2241 800 
L 2816 800 
L 2816 0 
L 1856 0 
Q 1194 0 917 276 
Q 641 553 641 1216 
L 641 2700 
L 84 2700 
L 84 3500 
L 641 3500 
L 641 4494 
L 1759 4494 
z
" transform="scale(0.015625)"/>
      <path id="DejaVuSans-Bold-47" d="M 2919 2988 
L 2919 4863 
L 4044 4863 
L 4044 0 
L 2919 0 
L 2919 506 
Q 2688 197 2409 53 
Q 2131 -91 1766 -91 
Q 1119 -91 703 423 
Q 288 938 288 1747 
Q 288 2556 703 3070 
Q 1119 3584 1766 3584 
Q 2128 3584 2408 3439 
Q 2688 3294 2919 2988 
z
M 2181 722 
Q 2541 722 2730 984 
Q 2919 1247 2919 1747 
Q 2919 2247 2730 2509 
Q 2541 2772 2181 2772 
Q 1825 2772 1636 2509 
Q 1447 2247 1447 1747 
Q 1447 1247 1636 984 
Q 1825 722 2181 722 
z
" transform="scale(0.015625)"/>
      <path id="DejaVuSans-Bold-53" d="M 1656 506 
L 1656 -1331 
L 538 -1331 
L 538 3500 
L 1656 3500 
L 1656 2988 
Q 1888 3294 2169 3439 
Q 2450 3584 2816 3584 
Q 3463 3584 3878 3070 
Q 4294 2556 4294 1747 
Q 4294 938 3878 423 
Q 3463 -91 2816 -91 
Q 2450 -91 2169 54 
Q 1888 200 1656 506 
z
M 2400 2772 
Q 2041 2772 1848 2508 
Q 1656 2244 1656 1747 
Q 1656 1250 1848 986 
Q 2041 722 2400 722 
Q 2759 722 2948 984 
Q 3138 1247 3138 1747 
Q 3138 2247 2948 2509 
Q 2759 2772 2400 2772 
z
" transform="scale(0.015625)"/>
      <path id="DejaVuSans-Bold-5c" d="M 78 3500 
L 1197 3500 
L 2138 1125 
L 2938 3500 
L 4056 3500 
L 2584 -331 
Q 2363 -916 2067 -1148 
Q 1772 -1381 1288 -1381 
L 641 -1381 
L 641 -647 
L 991 -647 
Q 1275 -647 1404 -556 
Q 1534 -466 1606 -231 
L 1638 -134 
L 78 3500 
z
" transform="scale(0.015625)"/>
      <path id="DejaVuSans-Bold-58" d="M 500 1363 
L 500 3500 
L 1625 3500 
L 1625 3150 
Q 1625 2866 1622 2436 
Q 1619 2006 1619 1863 
Q 1619 1441 1641 1255 
Q 1663 1069 1716 984 
Q 1784 875 1895 815 
Q 2006 756 2150 756 
Q 2500 756 2700 1025 
Q 2900 1294 2900 1772 
L 2900 3500 
L 4019 3500 
L 4019 0 
L 2900 0 
L 2900 506 
Q 2647 200 2364 54 
Q 2081 -91 1741 -91 
Q 1134 -91 817 281 
Q 500 653 500 1363 
z
" transform="scale(0.015625)"/>
      <path id="DejaVuSans-Bold-45" d="M 2400 722 
Q 2759 722 2948 984 
Q 3138 1247 3138 1747 
Q 3138 2247 2948 2509 
Q 2759 2772 2400 2772 
Q 2041 2772 1848 2508 
Q 1656 2244 1656 1747 
Q 1656 1250 1848 986 
Q 2041 722 2400 722 
z
M 1656 2988 
Q 1888 3294 2169 3439 
Q 2450 3584 2816 3584 
Q 3463 3584 3878 3070 
Q 4294 2556 4294 1747 
Q 4294 938 3878 423 
Q 3463 -91 2816 -91 
Q 2450 -91 2169 54 
Q 1888 200 1656 506 
L 1656 0 
L 538 0 
L 538 4863 
L 1656 4863 
L 1656 2988 
z
" transform="scale(0.015625)"/>
      <path id="DejaVuSans-Bold-4f" d="M 538 4863 
L 1656 4863 
L 1656 0 
L 538 0 
L 538 4863 
z
" transform="scale(0.015625)"/>
      <path id="DejaVuSans-Bold-4c" d="M 538 3500 
L 1656 3500 
L 1656 0 
L 538 0 
L 538 3500 
z
M 538 4863 
L 1656 4863 
L 1656 3950 
L 538 3950 
L 538 4863 
z
" transform="scale(0.015625)"/>
      <path id="DejaVuSans-Bold-51" d="M 4056 2131 
L 4056 0 
L 2931 0 
L 2931 347 
L 2931 1631 
Q 2931 2084 2911 2256 
Q 2891 2428 2841 2509 
Q 2775 2619 2662 2680 
Q 2550 2741 2406 2741 
Q 2056 2741 1856 2470 
Q 1656 2200 1656 1722 
L 1656 0 
L 538 0 
L 538 3500 
L 1656 3500 
L 1656 2988 
Q 1909 3294 2193 3439 
Q 2478 3584 2822 3584 
Q 3428 3584 3742 3212 
Q 4056 2841 4056 2131 
z
" transform="scale(0.015625)"/>
      <path id="DejaVuSans-Bold-14" d="M 750 831 
L 1813 831 
L 1813 3847 
L 722 3622 
L 722 4441 
L 1806 4666 
L 2950 4666 
L 2950 831 
L 4013 831 
L 4013 0 
L 750 0 
L 750 831 
z
" transform="scale(0.015625)"/>
      <path id="DejaVuSans-Bold-1c" d="M 641 103 
L 641 966 
Q 928 831 1190 764 
Q 1453 697 1709 697 
Q 2247 697 2547 995 
Q 2847 1294 2900 1881 
Q 2688 1725 2447 1647 
Q 2206 1569 1925 1569 
Q 1209 1569 770 1986 
Q 331 2403 331 3084 
Q 331 3838 820 4291 
Q 1309 4744 2131 4744 
Q 3044 4744 3544 4128 
Q 4044 3513 4044 2388 
Q 4044 1231 3459 570 
Q 2875 -91 1856 -91 
Q 1528 -91 1228 -42 
Q 928 6 641 103 
z
M 2125 2350 
Q 2441 2350 2600 2554 
Q 2759 2759 2759 3169 
Q 2759 3575 2600 3781 
Q 2441 3988 2125 3988 
Q 1809 3988 1650 3781 
Q 1491 3575 1491 3169 
Q 1491 2759 1650 2554 
Q 1809 2350 2125 2350 
z
" transform="scale(0.015625)"/>
      <path id="DejaVuSans-Bold-19" d="M 2316 2303 
Q 2000 2303 1842 2098 
Q 1684 1894 1684 1484 
Q 1684 1075 1842 870 
Q 2000 666 2316 666 
Q 2634 666 2792 870 
Q 2950 1075 2950 1484 
Q 2950 1894 2792 2098 
Q 2634 2303 2316 2303 
z
M 3803 4544 
L 3803 3681 
Q 3506 3822 3243 3889 
Q 2981 3956 2731 3956 
Q 2194 3956 1894 3657 
Q 1594 3359 1544 2772 
Q 1750 2925 1990 3001 
Q 2231 3078 2516 3078 
Q 3231 3078 3670 2659 
Q 4109 2241 4109 1563 
Q 4109 813 3618 361 
Q 3128 -91 2303 -91 
Q 1394 -91 895 523 
Q 397 1138 397 2266 
Q 397 3422 980 4083 
Q 1563 4744 2578 4744 
Q 2900 4744 3203 4694 
Q 3506 4644 3803 4544 
z
" transform="scale(0.015625)"/>
      <path id="DejaVuSans-Bold-13" d="M 2944 2338 
Q 2944 3213 2780 3570 
Q 2616 3928 2228 3928 
Q 1841 3928 1675 3570 
Q 1509 3213 1509 2338 
Q 1509 1453 1675 1090 
Q 1841 728 2228 728 
Q 2613 728 2778 1090 
Q 2944 1453 2944 2338 
z
M 4147 2328 
Q 4147 1169 3647 539 
Q 3147 -91 2228 -91 
Q 1306 -91 806 539 
Q 306 1169 306 2328 
Q 306 3491 806 4120 
Q 1306 4750 2228 4750 
Q 3147 4750 3647 4120 
Q 4147 3491 4147 2328 
z
" transform="scale(0.015625)"/>
      <path id="DejaVuSans-Bold-10" d="M 347 2297 
L 2309 2297 
L 2309 1388 
L 347 1388 
L 347 2297 
z
" transform="scale(0.015625)"/>
      <path id="DejaVuSans-Bold-15" d="M 1844 884 
L 3897 884 
L 3897 0 
L 506 0 
L 506 884 
L 2209 2388 
Q 2438 2594 2547 2791 
Q 2656 2988 2656 3200 
Q 2656 3528 2436 3728 
Q 2216 3928 1850 3928 
Q 1569 3928 1234 3808 
Q 900 3688 519 3450 
L 519 4475 
Q 925 4609 1322 4679 
Q 1719 4750 2100 4750 
Q 2938 4750 3402 4381 
Q 3866 4013 3866 3353 
Q 3866 2972 3669 2642 
Q 3472 2313 2841 1759 
L 1844 884 
z
" transform="scale(0.015625)"/>
     </defs>
     <use xlink:href="#DejaVuSans-Bold-31"/>
     <use xlink:href="#DejaVuSans-Bold-48" transform="translate(83.6875 0)"/>
     <use xlink:href="#DejaVuSans-Bold-5a" transform="translate(151.515625 0)"/>
     <use xlink:href="#DejaVuSans-Bold-3" transform="translate(243.90625 0)"/>
     <use xlink:href="#DejaVuSans-Bold-35" transform="translate(278.71875 0)"/>
     <use xlink:href="#DejaVuSans-Bold-48" transform="translate(355.71875 0)"/>
     <use xlink:href="#DejaVuSans-Bold-56" transform="translate(423.546875 0)"/>
     <use xlink:href="#DejaVuSans-Bold-48" transform="translate(483.0625 0)"/>
     <use xlink:href="#DejaVuSans-Bold-44" transform="translate(550.890625 0)"/>
     <use xlink:href="#DejaVuSans-Bold-55" transform="translate(618.375 0)"/>
     <use xlink:href="#DejaVuSans-Bold-46" transform="translate(667.6875 0)"/>
     <use xlink:href="#DejaVuSans-Bold-4b" transform="translate(726.96875 0)"/>
     <use xlink:href="#DejaVuSans-Bold-3" transform="translate(798.15625 0)"/>
     <use xlink:href="#DejaVuSans-Bold-36" transform="translate(832.96875 0)"/>
     <use xlink:href="#DejaVuSans-Bold-52" transform="translate(904.984375 0)"/>
     <use xlink:href="#DejaVuSans-Bold-49" transform="translate(973.6875 0)"/>
     <use xlink:href="#DejaVuSans-Bold-57" transform="translate(1017.1875 0)"/>
     <use xlink:href="#DejaVuSans-Bold-5a" transform="translate(1064.984375 0)"/>
     <use xlink:href="#DejaVuSans-Bold-44" transform="translate(1157.375 0)"/>
     <use xlink:href="#DejaVuSans-Bold-55" transform="translate(1224.859375 0)"/>
     <use xlink:href="#DejaVuSans-Bold-48" transform="translate(1274.171875 0)"/>
     <use xlink:href="#DejaVuSans-Bold-3" transform="translate(1342 0)"/>
     <use xlink:href="#DejaVuSans-Bold-35" transform="translate(1376.8125 0)"/>
     <use xlink:href="#DejaVuSans-Bold-48" transform="translate(1453.8125 0)"/>
     <use xlink:href="#DejaVuSans-Bold-46" transform="translate(1521.640625 0)"/>
     <use xlink:href="#DejaVuSans-Bold-52" transform="translate(1580.921875 0)"/>
     <use xlink:href="#DejaVuSans-Bold-55" transform="translate(1649.625 0)"/>
     <use xlink:href="#DejaVuSans-Bold-47" transform="translate(1698.9375 0)"/>
     <use xlink:href="#DejaVuSans-Bold-56" transform="translate(1770.515625 0)"/>
     <use xlink:href="#DejaVuSans-Bold-3" transform="translate(1830.03125 0)"/>
     <use xlink:href="#DejaVuSans-Bold-53" transform="translate(1864.84375 0)"/>
     <use xlink:href="#DejaVuSans-Bold-48" transform="translate(1936.421875 0)"/>
     <use xlink:href="#DejaVuSans-Bold-55" transform="translate(2004.25 0)"/>
     <use xlink:href="#DejaVuSans-Bold-3" transform="translate(2053.5625 0)"/>
     <use xlink:href="#DejaVuSans-Bold-5c" transform="translate(2088.375 0)"/>
     <use xlink:href="#DejaVuSans-Bold-48" transform="translate(2153.5625 0)"/>
     <use xlink:href="#DejaVuSans-Bold-44" transform="translate(2221.390625 0)"/>
     <use xlink:href="#DejaVuSans-Bold-55" transform="translate(2288.875 0)"/>
     <use xlink:href="#DejaVuSans-Bold-3" transform="translate(2338.1875 0)"/>
     <use xlink:href="#DejaVuSans-Bold-52" transform="translate(2373 0)"/>
     <use xlink:href="#DejaVuSans-Bold-49" transform="translate(2441.703125 0)"/>
     <use xlink:href="#DejaVuSans-Bold-3" transform="translate(2485.203125 0)"/>
     <use xlink:href="#DejaVuSans-Bold-53" transform="translate(2520.015625 0)"/>
     <use xlink:href="#DejaVuSans-Bold-58" transform="translate(2591.59375 0)"/>
     <use xlink:href="#DejaVuSans-Bold-45" transform="translate(2662.78125 0)"/>
     <use xlink:href="#DejaVuSans-Bold-4f" transform="translate(2734.359375 0)"/>
     <use xlink:href="#DejaVuSans-Bold-4c" transform="translate(2768.640625 0)"/>
     <use xlink:href="#DejaVuSans-Bold-46" transform="translate(2802.921875 0)"/>
     <use xlink:href="#DejaVuSans-Bold-44" transform="translate(2862.203125 0)"/>
     <use xlink:href="#DejaVuSans-Bold-57" transform="translate(2929.6875 0)"/>
     <use xlink:href="#DejaVuSans-Bold-4c" transform="translate(2977.484375 0)"/>
     <use xlink:href="#DejaVuSans-Bold-52" transform="translate(3011.765625 0)"/>
     <use xlink:href="#DejaVuSans-Bold-51" transform="translate(3080.46875 0)"/>
     <use xlink:href="#DejaVuSans-Bold-3" transform="translate(3151.65625 0)"/>
     <use xlink:href="#DejaVuSans-Bold-14" transform="translate(3186.46875 0)"/>
     <use xlink:href="#DejaVuSans-Bold-1c" transform="translate(3256.046875 0)"/>
     <use xlink:href="#DejaVuSans-Bold-19" transform="translate(3325.625 0)"/>
     <use xlink:href="#DejaVuSans-Bold-13" transform="translate(3395.203125 0)"/>
     <use xlink:href="#DejaVuSans-Bold-10" transform="translate(3464.78125 0)"/>
     <use xlink:href="#DejaVuSans-Bold-15" transform="translate(3506.28125 0)"/>
     <use xlink:href="#DejaVuSans-Bold-13" transform="translate(3575.859375 0)"/>
     <use xlink:href="#DejaVuSans-Bold-15" transform="translate(3645.4375 0)"/>
     <use xlink:href="#DejaVuSans-Bold-19" transform="translate(3715.015625 0)"/>
    </g>
    <!-- source: OpenAIRE Graph API, retrieved on 2026-07-03 -->
    <g transform="translate(272.500781 31.922578) scale(0.12 -0.12)">
     <defs>
      <path id="DejaVuSans-Bold-1d" d="M 716 3500 
L 1844 3500 
L 1844 2291 
L 716 2291 
L 716 3500 
z
M 716 1209 
L 1844 1209 
L 1844 0 
L 716 0 
L 716 1209 
z
" transform="scale(0.015625)"/>
      <path id="DejaVuSans-Bold-32" d="M 2719 3878 
Q 2169 3878 1866 3472 
Q 1563 3066 1563 2328 
Q 1563 1594 1866 1187 
Q 2169 781 2719 781 
Q 3272 781 3575 1187 
Q 3878 1594 3878 2328 
Q 3878 3066 3575 3472 
Q 3272 3878 2719 3878 
z
M 2719 4750 
Q 3844 4750 4481 4106 
Q 5119 3463 5119 2328 
Q 5119 1197 4481 553 
Q 3844 -91 2719 -91 
Q 1597 -91 958 553 
Q 319 1197 319 2328 
Q 319 3463 958 4106 
Q 1597 4750 2719 4750 
z
" transform="scale(0.015625)"/>
      <path id="DejaVuSans-Bold-24" d="M 3419 850 
L 1538 850 
L 1241 0 
L 31 0 
L 1759 4666 
L 3194 4666 
L 4922 0 
L 3713 0 
L 3419 850 
z
M 1838 1716 
L 3116 1716 
L 2478 3572 
L 1838 1716 
z
" transform="scale(0.015625)"/>
      <path id="DejaVuSans-Bold-2c" d="M 588 4666 
L 1791 4666 
L 1791 0 
L 588 0 
L 588 4666 
z
" transform="scale(0.015625)"/>
      <path id="DejaVuSans-Bold-28" d="M 588 4666 
L 3834 4666 
L 3834 3756 
L 1791 3756 
L 1791 2888 
L 3713 2888 
L 3713 1978 
L 1791 1978 
L 1791 909 
L 3903 909 
L 3903 0 
L 588 0 
L 588 4666 
z
" transform="scale(0.015625)"/>
      <path id="DejaVuSans-Bold-2a" d="M 4781 347 
Q 4331 128 3847 18 
Q 3363 -91 2847 -91 
Q 1681 -91 1000 561 
Q 319 1213 319 2328 
Q 319 3456 1012 4103 
Q 1706 4750 2913 4750 
Q 3378 4750 3804 4662 
Q 4231 4575 4609 4403 
L 4609 3438 
Q 4219 3659 3833 3768 
Q 3447 3878 3059 3878 
Q 2341 3878 1952 3476 
Q 1563 3075 1563 2328 
Q 1563 1588 1938 1184 
Q 2313 781 3003 781 
Q 3191 781 3352 804 
Q 3513 828 3641 878 
L 3641 1784 
L 2906 1784 
L 2906 2591 
L 4781 2591 
L 4781 347 
z
" transform="scale(0.015625)"/>
      <path id="DejaVuSans-Bold-33" d="M 588 4666 
L 2584 4666 
Q 3475 4666 3951 4270 
Q 4428 3875 4428 3144 
Q 4428 2409 3951 2014 
Q 3475 1619 2584 1619 
L 1791 1619 
L 1791 0 
L 588 0 
L 588 4666 
z
M 1791 3794 
L 1791 2491 
L 2456 2491 
Q 2806 2491 2997 2661 
Q 3188 2831 3188 3144 
Q 3188 3456 2997 3625 
Q 2806 3794 2456 3794 
L 1791 3794 
z
" transform="scale(0.015625)"/>
      <path id="DejaVuSans-Bold-f" d="M 653 1209 
L 1778 1209 
L 1778 256 
L 1006 -909 
L 341 -909 
L 653 256 
L 653 1209 
z
" transform="scale(0.015625)"/>
      <path id="DejaVuSans-Bold-59" d="M 97 3500 
L 1216 3500 
L 2088 1081 
L 2956 3500 
L 4078 3500 
L 2700 0 
L 1472 0 
L 97 3500 
z
" transform="scale(0.015625)"/>
      <path id="DejaVuSans-Bold-1a" d="M 428 4666 
L 3944 4666 
L 3944 3988 
L 2125 0 
L 953 0 
L 2675 3781 
L 428 3781 
L 428 4666 
z
" transform="scale(0.015625)"/>
      <path id="DejaVuSans-Bold-16" d="M 2981 2516 
Q 3453 2394 3698 2092 
Q 3944 1791 3944 1325 
Q 3944 631 3412 270 
Q 2881 -91 1863 -91 
Q 1503 -91 1142 -33 
Q 781 25 428 141 
L 428 1069 
Q 766 900 1098 814 
Q 1431 728 1753 728 
Q 2231 728 2486 893 
Q 2741 1059 2741 1369 
Q 2741 1688 2480 1852 
Q 2219 2016 1709 2016 
L 1228 2016 
L 1228 2791 
L 1734 2791 
Q 2188 2791 2409 2933 
Q 2631 3075 2631 3366 
Q 2631 3634 2415 3781 
Q 2200 3928 1806 3928 
Q 1516 3928 1219 3862 
Q 922 3797 628 3669 
L 628 4550 
Q 984 4650 1334 4700 
Q 1684 4750 2022 4750 
Q 2931 4750 3382 4451 
Q 3834 4153 3834 3553 
Q 3834 3144 3618 2883 
Q 3403 2622 2981 2516 
z
" transform="scale(0.015625)"/>
     </defs>
     <use xlink:href="#DejaVuSans-Bold-56"/>
     <use xlink:href="#DejaVuSans-Bold-52" transform="translate(59.515625 0)"/>
     <use xlink:href="#DejaVuSans-Bold-58" transform="translate(128.21875 0)"/>
     <use xlink:href="#DejaVuSans-Bold-55" transform="translate(199.40625 0)"/>
     <use xlink:href="#DejaVuSans-Bold-46" transform="translate(248.71875 0)"/>
     <use xlink:href="#DejaVuSans-Bold-48" transform="translate(308 0)"/>
     <use xlink:href="#DejaVuSans-Bold-1d" transform="translate(375.828125 0)"/>
     <use xlink:href="#DejaVuSans-Bold-3" transform="translate(415.8125 0)"/>
     <use xlink:href="#DejaVuSans-Bold-32" transform="translate(450.625 0)"/>
     <use xlink:href="#DejaVuSans-Bold-53" transform="translate(535.640625 0)"/>
     <use xlink:href="#DejaVuSans-Bold-48" transform="translate(607.21875 0)"/>
     <use xlink:href="#DejaVuSans-Bold-51" transform="translate(675.046875 0)"/>
     <use xlink:href="#DejaVuSans-Bold-24" transform="translate(746.234375 0)"/>
     <use xlink:href="#DejaVuSans-Bold-2c" transform="translate(823.625 0)"/>
     <use xlink:href="#DejaVuSans-Bold-35" transform="translate(860.828125 0)"/>
     <use xlink:href="#DejaVuSans-Bold-28" transform="translate(937.828125 0)"/>
     <use xlink:href="#DejaVuSans-Bold-3" transform="translate(1006.140625 0)"/>
     <use xlink:href="#DejaVuSans-Bold-2a" transform="translate(1040.953125 0)"/>
     <use xlink:href="#DejaVuSans-Bold-55" transform="translate(1123.03125 0)"/>
     <use xlink:href="#DejaVuSans-Bold-44" transform="translate(1172.34375 0)"/>
     <use xlink:href="#DejaVuSans-Bold-53" transform="translate(1239.828125 0)"/>
     <use xlink:href="#DejaVuSans-Bold-4b" transform="translate(1311.40625 0)"/>
     <use xlink:href="#DejaVuSans-Bold-3" transform="translate(1382.59375 0)"/>
     <use xlink:href="#DejaVuSans-Bold-24" transform="translate(1417.40625 0)"/>
     <use xlink:href="#DejaVuSans-Bold-33" transform="translate(1494.796875 0)"/>
     <use xlink:href="#DejaVuSans-Bold-2c" transform="translate(1568.09375 0)"/>
     <use xlink:href="#DejaVuSans-Bold-f" transform="translate(1605.296875 0)"/>
     <use xlink:href="#DejaVuSans-Bold-3" transform="translate(1643.28125 0)"/>
     <use xlink:href="#DejaVuSans-Bold-55" transform="translate(1678.09375 0)"/>
     <use xlink:href="#DejaVuSans-Bold-48" transform="translate(1727.40625 0)"/>
     <use xlink:href="#DejaVuSans-Bold-57" transform="translate(1795.234375 0)"/>
     <use xlink:href="#DejaVuSans-Bold-55" transform="translate(1843.03125 0)"/>
     <use xlink:href="#DejaVuSans-Bold-4c" transform="translate(1892.34375 0)"/>
     <use xlink:href="#DejaVuSans-Bold-48" transform="translate(1926.625 0)"/>
     <use xlink:href="#DejaVuSans-Bold-59" transform="translate(1994.453125 0)"/>
     <use xlink:href="#DejaVuSans-Bold-48" transform="translate(2059.640625 0)"/>
     <use xlink:href="#DejaVuSans-Bold-47" transform="translate(2127.46875 0)"/>
     <use xlink:href="#DejaVuSans-Bold-3" transform="translate(2199.046875 0)"/>
     <use xlink:href="#DejaVuSans-Bold-52" transform="translate(2233.859375 0)"/>
     <use xlink:href="#DejaVuSans-Bold-51" transform="translate(2302.5625 0)"/>
     <use xlink:href="#DejaVuSans-Bold-3" transform="translate(2373.75 0)"/>
     <use xlink:href="#DejaVuSans-Bold-15" transform="translate(2408.5625 0)"/>
     <use xlink:href="#DejaVuSans-Bold-13" transform="translate(2478.140625 0)"/>
     <use xlink:href="#DejaVuSans-Bold-15" transform="translate(2547.71875 0)"/>
     <use xlink:href="#DejaVuSans-Bold-19" transform="translate(2617.296875 0)"/>
     <use xlink:href="#DejaVuSans-Bold-10" transform="translate(2686.875 0)"/>
     <use xlink:href="#DejaVuSans-Bold-13" transform="translate(2728.375 0)"/>
     <use xlink:href="#DejaVuSans-Bold-1a" transform="translate(2797.953125 0)"/>
     <use xlink:href="#DejaVuSans-Bold-10" transform="translate(2867.53125 0)"/>
     <use xlink:href="#DejaVuSans-Bold-13" transform="translate(2909.03125 0)"/>
     <use xlink:href="#DejaVuSans-Bold-16" transform="translate(2978.609375 0)"/>
    </g>
   </g>
  </g>
 </g>
 <defs>
  <clipPath id="p996ca1d02e">
   <rect x="62.013438" y="37.922578" width="786.757188" height="634.193672"/>
  </clipPath>
 </defs>
</svg>
