<?xml version="1.0" encoding="utf-8" standalone="no"?>
<!DOCTYPE svg PUBLIC "-//W3C//DTD SVG 1.1//EN"
  "http://www.w3.org/Graphics/SVG/1.1/DTD/svg11.dtd">
<svg xmlns:xlink="http://www.w3.org/1999/xlink" width="864pt" height="576pt" viewBox="0 0 864 576" xmlns="http://www.w3.org/2000/svg" version="1.1">
 <metadata>
  <rdf:RDF xmlns:dc="http://purl.org/dc/elements/1.1/" xmlns:cc="http://creativecommons.org/ns#" xmlns:rdf="http://www.w3.org/1999/02/22-rdf-syntax-ns#">
   <cc:Work>
    <dc:type rdf:resource="http://purl.org/dc/dcmitype/StillImage"/>
    <dc:date>2026-07-07T16:58:30.789600</dc:date>
    <dc:format>image/svg+xml</dc:format>
    <dc:creator>
     <cc:Agent>
      <dc:title>Matplotlib v3.11.0, https://matplotlib.org/</dc:title>
     </cc:Agent>
    </dc:creator>
   </cc:Work>
  </rdf:RDF>
 </metadata>
 <defs>
  <style type="text/css">*{stroke-linejoin: round; stroke-linecap: butt}</style>
 </defs>
 <g id="figure_1">
  <g id="patch_1">
   <path d="M 0 576
L 864 576
L 864 0
L 0 0
z
" style="fill: #ffffff"/>
  </g>
  <g id="patch_2">
   <path d="M 0 576
L 864 576
L 864 0
L 0 0
z
" style="fill: #ffffff; stroke: #ffffff; stroke-linejoin: miter"/>
  </g>
  <g id="axes_1">
   <g id="patch_3">
    <path d="M 72.739938 498.44088
L 855.36 498.44088
L 855.36 99.122188
L 72.739938 99.122188
z
" style="fill: #ffffff"/>
   </g>
   <g id="matplotlib.axis_1">
    <g id="xtick_1">
     <g id="text_1">
      <!-- 1960 -->
      <g style="fill: #4d4d4d" transform="translate(58.329445 520.82919) rotate(-35) scale(0.096 -0.096)">
       <defs>
        <path id="DejaVuSans-14" d="M 794 531
L 1825 531
L 1825 4091
L 703 3866
L 703 4441
L 1819 4666
L 2450 4666
L 2450 531
L 3481 531
L 3481 0
L 794 0
L 794 531
z
" transform="scale(0.015625)"/>
        <path id="DejaVuSans-1c" d="M 703 97
L 703 672
Q 941 559 1184 500
Q 1428 441 1663 441
Q 2288 441 2617 861
Q 2947 1281 2994 2138
Q 2813 1869 2534 1725
Q 2256 1581 1919 1581
Q 1219 1581 811 2004
Q 403 2428 403 3163
Q 403 3881 828 4315
Q 1253 4750 1959 4750
Q 2769 4750 3195 4129
Q 3622 3509 3622 2328
Q 3622 1225 3098 567
Q 2575 -91 1691 -91
Q 1453 -91 1209 -44
Q 966 3 703 97
z
M 1959 2075
Q 2384 2075 2632 2365
Q 2881 2656 2881 3163
Q 2881 3666 2632 3958
Q 2384 4250 1959 4250
Q 1534 4250 1286 3958
Q 1038 3666 1038 3163
Q 1038 2656 1286 2365
Q 1534 2075 1959 2075
z
" transform="scale(0.015625)"/>
        <path id="DejaVuSans-19" d="M 2113 2584
Q 1688 2584 1439 2293
Q 1191 2003 1191 1497
Q 1191 994 1439 701
Q 1688 409 2113 409
Q 2538 409 2786 701
Q 3034 994 3034 1497
Q 3034 2003 2786 2293
Q 2538 2584 2113 2584
z
M 3366 4563
L 3366 3988
Q 3128 4100 2886 4159
Q 2644 4219 2406 4219
Q 1781 4219 1451 3797
Q 1122 3375 1075 2522
Q 1259 2794 1537 2939
Q 1816 3084 2150 3084
Q 2853 3084 3261 2657
Q 3669 2231 3669 1497
Q 3669 778 3244 343
Q 2819 -91 2113 -91
Q 1303 -91 875 529
Q 447 1150 447 2328
Q 447 3434 972 4092
Q 1497 4750 2381 4750
Q 2619 4750 2861 4703
Q 3103 4656 3366 4563
z
" transform="scale(0.015625)"/>
        <path id="DejaVuSans-13" d="M 2034 4250
Q 1547 4250 1301 3770
Q 1056 3291 1056 2328
Q 1056 1369 1301 889
Q 1547 409 2034 409
Q 2525 409 2770 889
Q 3016 1369 3016 2328
Q 3016 3291 2770 3770
Q 2525 4250 2034 4250
z
M 2034 4750
Q 2819 4750 3233 4129
Q 3647 3509 3647 2328
Q 3647 1150 3233 529
Q 2819 -91 2034 -91
Q 1250 -91 836 529
Q 422 1150 422 2328
Q 422 3509 836 4129
Q 1250 4750 2034 4750
z
" transform="scale(0.015625)"/>
       </defs>
       <use xlink:href="#DejaVuSans-14"/>
       <use xlink:href="#DejaVuSans-1c" transform="translate(63.625 0)"/>
       <use xlink:href="#DejaVuSans-19" transform="translate(127.25 0)"/>
       <use xlink:href="#DejaVuSans-13" transform="translate(190.875 0)"/>
      </g>
     </g>
    </g>
    <g id="xtick_2">
     <g id="text_2">
      <!-- 1965 -->
      <g style="fill: #4d4d4d" transform="translate(116.044789 520.82919) rotate(-35) scale(0.096 -0.096)">
       <defs>
        <path id="DejaVuSans-18" d="M 691 4666
L 3169 4666
L 3169 4134
L 1269 4134
L 1269 2991
Q 1406 3038 1543 3061
Q 1681 3084 1819 3084
Q 2600 3084 3056 2656
Q 3513 2228 3513 1497
Q 3513 744 3044 326
Q 2575 -91 1722 -91
Q 1428 -91 1123 -41
Q 819 9 494 109
L 494 744
Q 775 591 1075 516
Q 1375 441 1709 441
Q 2250 441 2565 725
Q 2881 1009 2881 1497
Q 2881 1984 2565 2268
Q 2250 2553 1709 2553
Q 1456 2553 1204 2497
Q 953 2441 691 2322
L 691 4666
z
" transform="scale(0.015625)"/>
       </defs>
       <use xlink:href="#DejaVuSans-14"/>
       <use xlink:href="#DejaVuSans-1c" transform="translate(63.625 0)"/>
       <use xlink:href="#DejaVuSans-19" transform="translate(127.25 0)"/>
       <use xlink:href="#DejaVuSans-18" transform="translate(190.875 0)"/>
      </g>
     </g>
    </g>
    <g id="xtick_3">
     <g id="text_3">
      <!-- 1970 -->
      <g style="fill: #4d4d4d" transform="translate(173.760133 520.82919) rotate(-35) scale(0.096 -0.096)">
       <defs>
        <path id="DejaVuSans-1a" d="M 525 4666
L 3525 4666
L 3525 4397
L 1831 0
L 1172 0
L 2766 4134
L 525 4134
L 525 4666
z
" transform="scale(0.015625)"/>
       </defs>
       <use xlink:href="#DejaVuSans-14"/>
       <use xlink:href="#DejaVuSans-1c" transform="translate(63.625 0)"/>
       <use xlink:href="#DejaVuSans-1a" transform="translate(127.25 0)"/>
       <use xlink:href="#DejaVuSans-13" transform="translate(190.875 0)"/>
      </g>
     </g>
    </g>
    <g id="xtick_4">
     <g id="text_4">
      <!-- 1975 -->
      <g style="fill: #4d4d4d" transform="translate(231.475477 520.82919) rotate(-35) scale(0.096 -0.096)">
       <use xlink:href="#DejaVuSans-14"/>
       <use xlink:href="#DejaVuSans-1c" transform="translate(63.625 0)"/>
       <use xlink:href="#DejaVuSans-1a" transform="translate(127.25 0)"/>
       <use xlink:href="#DejaVuSans-18" transform="translate(190.875 0)"/>
      </g>
     </g>
    </g>
    <g id="xtick_5">
     <g id="text_5">
      <!-- 1980 -->
      <g style="fill: #4d4d4d" transform="translate(289.190821 520.82919) rotate(-35) scale(0.096 -0.096)">
       <defs>
        <path id="DejaVuSans-1b" d="M 2034 2216
Q 1584 2216 1326 1975
Q 1069 1734 1069 1313
Q 1069 891 1326 650
Q 1584 409 2034 409
Q 2484 409 2743 651
Q 3003 894 3003 1313
Q 3003 1734 2745 1975
Q 2488 2216 2034 2216
z
M 1403 2484
Q 997 2584 770 2862
Q 544 3141 544 3541
Q 544 4100 942 4425
Q 1341 4750 2034 4750
Q 2731 4750 3128 4425
Q 3525 4100 3525 3541
Q 3525 3141 3298 2862
Q 3072 2584 2669 2484
Q 3125 2378 3379 2068
Q 3634 1759 3634 1313
Q 3634 634 3220 271
Q 2806 -91 2034 -91
Q 1263 -91 848 271
Q 434 634 434 1313
Q 434 1759 690 2068
Q 947 2378 1403 2484
z
M 1172 3481
Q 1172 3119 1398 2916
Q 1625 2713 2034 2713
Q 2441 2713 2670 2916
Q 2900 3119 2900 3481
Q 2900 3844 2670 4047
Q 2441 4250 2034 4250
Q 1625 4250 1398 4047
Q 1172 3844 1172 3481
z
" transform="scale(0.015625)"/>
       </defs>
       <use xlink:href="#DejaVuSans-14"/>
       <use xlink:href="#DejaVuSans-1c" transform="translate(63.625 0)"/>
       <use xlink:href="#DejaVuSans-1b" transform="translate(127.25 0)"/>
       <use xlink:href="#DejaVuSans-13" transform="translate(190.875 0)"/>
      </g>
     </g>
    </g>
    <g id="xtick_6">
     <g id="text_6">
      <!-- 1985 -->
      <g style="fill: #4d4d4d" transform="translate(346.906165 520.82919) rotate(-35) scale(0.096 -0.096)">
       <use xlink:href="#DejaVuSans-14"/>
       <use xlink:href="#DejaVuSans-1c" transform="translate(63.625 0)"/>
       <use xlink:href="#DejaVuSans-1b" transform="translate(127.25 0)"/>
       <use xlink:href="#DejaVuSans-18" transform="translate(190.875 0)"/>
      </g>
     </g>
    </g>
    <g id="xtick_7">
     <g id="text_7">
      <!-- 1990 -->
      <g style="fill: #4d4d4d" transform="translate(404.621508 520.82919) rotate(-35) scale(0.096 -0.096)">
       <use xlink:href="#DejaVuSans-14"/>
       <use xlink:href="#DejaVuSans-1c" transform="translate(63.625 0)"/>
       <use xlink:href="#DejaVuSans-1c" transform="translate(127.25 0)"/>
       <use xlink:href="#DejaVuSans-13" transform="translate(190.875 0)"/>
      </g>
     </g>
    </g>
    <g id="xtick_8">
     <g id="text_8">
      <!-- 1995 -->
      <g style="fill: #4d4d4d" transform="translate(462.336852 520.82919) rotate(-35) scale(0.096 -0.096)">
       <use xlink:href="#DejaVuSans-14"/>
       <use xlink:href="#DejaVuSans-1c" transform="translate(63.625 0)"/>
       <use xlink:href="#DejaVuSans-1c" transform="translate(127.25 0)"/>
       <use xlink:href="#DejaVuSans-18" transform="translate(190.875 0)"/>
      </g>
     </g>
    </g>
    <g id="xtick_9">
     <g id="text_9">
      <!-- 2000 -->
      <g style="fill: #4d4d4d" transform="translate(520.052196 520.82919) rotate(-35) scale(0.096 -0.096)">
       <defs>
        <path id="DejaVuSans-15" d="M 1228 531
L 3431 531
L 3431 0
L 469 0
L 469 531
Q 828 903 1448 1529
Q 2069 2156 2228 2338
Q 2531 2678 2651 2914
Q 2772 3150 2772 3378
Q 2772 3750 2511 3984
Q 2250 4219 1831 4219
Q 1534 4219 1204 4116
Q 875 4013 500 3803
L 500 4441
Q 881 4594 1212 4672
Q 1544 4750 1819 4750
Q 2544 4750 2975 4387
Q 3406 4025 3406 3419
Q 3406 3131 3298 2873
Q 3191 2616 2906 2266
Q 2828 2175 2409 1742
Q 1991 1309 1228 531
z
" transform="scale(0.015625)"/>
       </defs>
       <use xlink:href="#DejaVuSans-15"/>
       <use xlink:href="#DejaVuSans-13" transform="translate(63.625 0)"/>
       <use xlink:href="#DejaVuSans-13" transform="translate(127.25 0)"/>
       <use xlink:href="#DejaVuSans-13" transform="translate(190.875 0)"/>
      </g>
     </g>
    </g>
    <g id="xtick_10">
     <g id="text_10">
      <!-- 2005 -->
      <g style="fill: #4d4d4d" transform="translate(577.76754 520.82919) rotate(-35) scale(0.096 -0.096)">
       <use xlink:href="#DejaVuSans-15"/>
       <use xlink:href="#DejaVuSans-13" transform="translate(63.625 0)"/>
       <use xlink:href="#DejaVuSans-13" transform="translate(127.25 0)"/>
       <use xlink:href="#DejaVuSans-18" transform="translate(190.875 0)"/>
      </g>
     </g>
    </g>
    <g id="xtick_11">
     <g id="text_11">
      <!-- 2010 -->
      <g style="fill: #4d4d4d" transform="translate(635.482884 520.82919) rotate(-35) scale(0.096 -0.096)">
       <use xlink:href="#DejaVuSans-15"/>
       <use xlink:href="#DejaVuSans-13" transform="translate(63.625 0)"/>
       <use xlink:href="#DejaVuSans-14" transform="translate(127.25 0)"/>
       <use xlink:href="#DejaVuSans-13" transform="translate(190.875 0)"/>
      </g>
     </g>
    </g>
    <g id="xtick_12">
     <g id="text_12">
      <!-- 2015 -->
      <g style="fill: #4d4d4d" transform="translate(693.198228 520.82919) rotate(-35) scale(0.096 -0.096)">
       <use xlink:href="#DejaVuSans-15"/>
       <use xlink:href="#DejaVuSans-13" transform="translate(63.625 0)"/>
       <use xlink:href="#DejaVuSans-14" transform="translate(127.25 0)"/>
       <use xlink:href="#DejaVuSans-18" transform="translate(190.875 0)"/>
      </g>
     </g>
    </g>
    <g id="xtick_13">
     <g id="text_13">
      <!-- 2020 -->
      <g style="fill: #4d4d4d" transform="translate(750.913571 520.82919) rotate(-35) scale(0.096 -0.096)">
       <use xlink:href="#DejaVuSans-15"/>
       <use xlink:href="#DejaVuSans-13" transform="translate(63.625 0)"/>
       <use xlink:href="#DejaVuSans-15" transform="translate(127.25 0)"/>
       <use xlink:href="#DejaVuSans-13" transform="translate(190.875 0)"/>
      </g>
     </g>
    </g>
    <g id="xtick_14">
     <g id="text_14">
      <!-- 2026 -->
      <g style="fill: #4d4d4d" transform="translate(820.171984 520.82919) rotate(-35) scale(0.096 -0.096)">
       <use xlink:href="#DejaVuSans-15"/>
       <use xlink:href="#DejaVuSans-13" transform="translate(63.625 0)"/>
       <use xlink:href="#DejaVuSans-15" transform="translate(127.25 0)"/>
       <use xlink:href="#DejaVuSans-19" transform="translate(190.875 0)"/>
      </g>
     </g>
    </g>
    <g id="xtick_15"/>
    <g id="xtick_16"/>
    <g id="xtick_17"/>
    <g id="xtick_18"/>
    <g id="xtick_19"/>
    <g id="xtick_20"/>
    <g id="xtick_21"/>
    <g id="xtick_22"/>
    <g id="xtick_23"/>
    <g id="xtick_24"/>
    <g id="xtick_25"/>
    <g id="xtick_26"/>
    <g id="xtick_27"/>
   </g>
   <g id="matplotlib.axis_2">
    <g id="ytick_1">
     <g id="line2d_1">
      <path d="M 72.739938 467.605911
L 855.36 467.605911
" clip-path="url(#p096dccb8fd)" style="fill: none; stroke: #d8dee4; stroke-width: 0.45; stroke-linecap: square"/>
     </g>
     <g id="text_15">
      <!-- 1 -->
      <g style="fill: #4d4d4d" transform="translate(64.231938 471.252786) scale(0.096 -0.096)">
       <use xlink:href="#DejaVuSans-14"/>
      </g>
     </g>
    </g>
    <g id="ytick_2">
     <g id="line2d_2">
      <path d="M 72.739938 410.655892
L 855.36 410.655892
" clip-path="url(#p096dccb8fd)" style="fill: none; stroke: #d8dee4; stroke-width: 0.45; stroke-linecap: square"/>
     </g>
     <g id="text_16">
      <!-- 10 -->
      <g style="fill: #4d4d4d" transform="translate(58.123937 414.302767) scale(0.096 -0.096)">
       <use xlink:href="#DejaVuSans-14"/>
       <use xlink:href="#DejaVuSans-13" transform="translate(63.625 0)"/>
      </g>
     </g>
    </g>
    <g id="ytick_3">
     <g id="line2d_3">
      <path d="M 72.739938 336.5857
L 855.36 336.5857
" clip-path="url(#p096dccb8fd)" style="fill: none; stroke: #d8dee4; stroke-width: 0.45; stroke-linecap: square"/>
     </g>
     <g id="text_17">
      <!-- 100 -->
      <g style="fill: #4d4d4d" transform="translate(52.015938 340.232575) scale(0.096 -0.096)">
       <use xlink:href="#DejaVuSans-14"/>
       <use xlink:href="#DejaVuSans-13" transform="translate(63.625 0)"/>
       <use xlink:href="#DejaVuSans-13" transform="translate(127.25 0)"/>
      </g>
     </g>
    </g>
    <g id="ytick_4">
     <g id="line2d_4">
      <path d="M 72.739938 259.962934
L 855.36 259.962934
" clip-path="url(#p096dccb8fd)" style="fill: none; stroke: #d8dee4; stroke-width: 0.45; stroke-linecap: square"/>
     </g>
     <g id="text_18">
      <!-- 1,000 -->
      <g style="fill: #4d4d4d" transform="translate(42.856938 263.609809) scale(0.096 -0.096)">
       <defs>
        <path id="DejaVuSans-f" d="M 750 794
L 1409 794
L 1409 256
L 897 -744
L 494 -744
L 750 256
L 750 794
z
" transform="scale(0.015625)"/>
       </defs>
       <use xlink:href="#DejaVuSans-14"/>
       <use xlink:href="#DejaVuSans-f" transform="translate(63.625 0)"/>
       <use xlink:href="#DejaVuSans-13" transform="translate(95.40625 0)"/>
       <use xlink:href="#DejaVuSans-13" transform="translate(159.03125 0)"/>
       <use xlink:href="#DejaVuSans-13" transform="translate(222.65625 0)"/>
      </g>
     </g>
    </g>
    <g id="ytick_5">
     <g id="line2d_5">
      <path d="M 72.739938 183.071201
L 855.36 183.071201
" clip-path="url(#p096dccb8fd)" style="fill: none; stroke: #d8dee4; stroke-width: 0.45; stroke-linecap: square"/>
     </g>
     <g id="text_19">
      <!-- 10,000 -->
      <g style="fill: #4d4d4d" transform="translate(36.748937 186.718076) scale(0.096 -0.096)">
       <use xlink:href="#DejaVuSans-14"/>
       <use xlink:href="#DejaVuSans-13" transform="translate(63.625 0)"/>
       <use xlink:href="#DejaVuSans-f" transform="translate(127.25 0)"/>
       <use xlink:href="#DejaVuSans-13" transform="translate(159.03125 0)"/>
       <use xlink:href="#DejaVuSans-13" transform="translate(222.65625 0)"/>
       <use xlink:href="#DejaVuSans-13" transform="translate(286.28125 0)"/>
      </g>
     </g>
    </g>
    <g id="ytick_6">
     <g id="line2d_6">
      <path d="M 72.739938 106.152424
L 855.36 106.152424
" clip-path="url(#p096dccb8fd)" style="fill: none; stroke: #d8dee4; stroke-width: 0.45; stroke-linecap: square"/>
     </g>
     <g id="text_20">
      <!-- 100,000 -->
      <g style="fill: #4d4d4d" transform="translate(30.640937 109.799299) scale(0.096 -0.096)">
       <use xlink:href="#DejaVuSans-14"/>
       <use xlink:href="#DejaVuSans-13" transform="translate(63.625 0)"/>
       <use xlink:href="#DejaVuSans-13" transform="translate(127.25 0)"/>
       <use xlink:href="#DejaVuSans-f" transform="translate(190.875 0)"/>
       <use xlink:href="#DejaVuSans-13" transform="translate(222.65625 0)"/>
       <use xlink:href="#DejaVuSans-13" transform="translate(286.28125 0)"/>
       <use xlink:href="#DejaVuSans-13" transform="translate(349.90625 0)"/>
      </g>
     </g>
    </g>
    <g id="ytick_7"/>
    <g id="ytick_8"/>
    <g id="ytick_9"/>
    <g id="ytick_10"/>
    <g id="ytick_11"/>
   </g>
   <g id="PolyCollection_1">
    <path d="M 74.933121 490.761675
L 74.933121 337.253856
L 84.398437 337.253856
L 84.398437 490.761675
z
" clip-path="url(#p096dccb8fd)" style="fill: #9ca3af; stroke: #ffffff; stroke-width: 0.531736"/>
    <path d="M 86.476189 490.761675
L 86.476189 490.761675
L 95.941506 490.761675
L 95.941506 490.761675
z
" clip-path="url(#p096dccb8fd)" style="fill: #9ca3af; stroke: #ffffff; stroke-width: 0.531736"/>
    <path d="M 98.019258 490.761675
L 98.019258 425.755226
L 107.484574 425.755226
L 107.484574 490.761675
z
" clip-path="url(#p096dccb8fd)" style="fill: #9ca3af; stroke: #ffffff; stroke-width: 0.531736"/>
    <path d="M 109.562327 490.761675
L 109.562327 467.605911
L 119.027643 467.605911
L 119.027643 490.761675
z
" clip-path="url(#p096dccb8fd)" style="fill: #9ca3af; stroke: #ffffff; stroke-width: 0.531736"/>
    <path d="M 121.105396 490.761675
L 121.105396 490.761675
L 130.570712 490.761675
L 130.570712 490.761675
z
" clip-path="url(#p096dccb8fd)" style="fill: #9ca3af; stroke: #ffffff; stroke-width: 0.531736"/>
    <path d="M 132.648464 490.761675
L 132.648464 490.761675
L 142.113781 490.761675
L 142.113781 490.761675
z
" clip-path="url(#p096dccb8fd)" style="fill: #9ca3af; stroke: #ffffff; stroke-width: 0.531736"/>
    <path d="M 144.191533 490.761675
L 144.191533 454.060657
L 153.65685 454.060657
L 153.65685 490.761675
z
" clip-path="url(#p096dccb8fd)" style="fill: #9ca3af; stroke: #ffffff; stroke-width: 0.531736"/>
    <path d="M 155.734602 490.761675
L 155.734602 444.450146
L 165.199918 444.450146
L 165.199918 490.761675
z
" clip-path="url(#p096dccb8fd)" style="fill: #9ca3af; stroke: #ffffff; stroke-width: 0.531736"/>
    <path d="M 167.277671 490.761675
L 167.277671 490.761675
L 176.742987 490.761675
L 176.742987 490.761675
z
" clip-path="url(#p096dccb8fd)" style="fill: #9ca3af; stroke: #ffffff; stroke-width: 0.531736"/>
    <path d="M 178.820739 490.761675
L 178.820739 490.761675
L 188.286056 490.761675
L 188.286056 490.761675
z
" clip-path="url(#p096dccb8fd)" style="fill: #9ca3af; stroke: #ffffff; stroke-width: 0.531736"/>
    <path d="M 190.363808 490.761675
L 190.363808 421.294382
L 199.829125 421.294382
L 199.829125 490.761675
z
" clip-path="url(#p096dccb8fd)" style="fill: #9ca3af; stroke: #ffffff; stroke-width: 0.531736"/>
    <path d="M 201.906877 490.761675
L 201.906877 490.761675
L 211.372193 490.761675
L 211.372193 490.761675
z
" clip-path="url(#p096dccb8fd)" style="fill: #9ca3af; stroke: #ffffff; stroke-width: 0.531736"/>
    <path d="M 213.449946 490.761675
L 213.449946 454.060657
L 222.915262 454.060657
L 222.915262 490.761675
z
" clip-path="url(#p096dccb8fd)" style="fill: #9ca3af; stroke: #ffffff; stroke-width: 0.531736"/>
    <path d="M 224.993015 490.761675
L 224.993015 467.605911
L 234.458331 467.605911
L 234.458331 490.761675
z
" clip-path="url(#p096dccb8fd)" style="fill: #9ca3af; stroke: #ffffff; stroke-width: 0.531736"/>
    <path d="M 236.536083 490.761675
L 236.536083 467.605911
L 246.0014 467.605911
L 246.0014 490.761675
z
" clip-path="url(#p096dccb8fd)" style="fill: #9ca3af; stroke: #ffffff; stroke-width: 0.531736"/>
    <path d="M 248.079152 490.761675
L 248.079152 430.904893
L 257.544468 430.904893
L 257.544468 490.761675
z
" clip-path="url(#p096dccb8fd)" style="fill: #9ca3af; stroke: #ffffff; stroke-width: 0.531736"/>
    <path d="M 259.622221 490.761675
L 259.622221 444.450146
L 269.087537 444.450146
L 269.087537 490.761675
z
" clip-path="url(#p096dccb8fd)" style="fill: #9ca3af; stroke: #ffffff; stroke-width: 0.531736"/>
    <path d="M 271.16529 490.761675
L 271.16529 436.995655
L 280.630606 436.995655
L 280.630606 490.761675
z
" clip-path="url(#p096dccb8fd)" style="fill: #9ca3af; stroke: #ffffff; stroke-width: 0.531736"/>
    <path d="M 282.708358 490.761675
L 282.708358 425.755226
L 292.173675 425.755226
L 292.173675 490.761675
z
" clip-path="url(#p096dccb8fd)" style="fill: #9ca3af; stroke: #ffffff; stroke-width: 0.531736"/>
    <path d="M 294.251427 490.761675
L 294.251427 444.450146
L 303.716744 444.450146
L 303.716744 490.761675
z
" clip-path="url(#p096dccb8fd)" style="fill: #9ca3af; stroke: #ffffff; stroke-width: 0.531736"/>
    <path d="M 305.794496 490.761675
L 305.794496 430.904893
L 315.259812 430.904893
L 315.259812 490.761675
z
" clip-path="url(#p096dccb8fd)" style="fill: #9ca3af; stroke: #ffffff; stroke-width: 0.531736"/>
    <path d="M 317.337565 490.761675
L 317.337565 430.904893
L 326.802881 430.904893
L 326.802881 490.761675
z
" clip-path="url(#p096dccb8fd)" style="fill: #9ca3af; stroke: #ffffff; stroke-width: 0.531736"/>
    <path d="M 328.880633 490.761675
L 328.880633 436.995655
L 338.34595 436.995655
L 338.34595 490.761675
z
" clip-path="url(#p096dccb8fd)" style="fill: #9ca3af; stroke: #ffffff; stroke-width: 0.531736"/>
    <path d="M 340.423702 490.761675
L 340.423702 410.655892
L 349.889019 410.655892
L 349.889019 490.761675
z
" clip-path="url(#p096dccb8fd)" style="fill: #9ca3af; stroke: #ffffff; stroke-width: 0.531736"/>
    <path d="M 351.966771 490.761675
L 351.966771 444.450146
L 361.432087 444.450146
L 361.432087 490.761675
z
" clip-path="url(#p096dccb8fd)" style="fill: #9ca3af; stroke: #ffffff; stroke-width: 0.531736"/>
    <path d="M 363.50984 490.761675
L 363.50984 421.294382
L 372.975156 421.294382
L 372.975156 490.761675
z
" clip-path="url(#p096dccb8fd)" style="fill: #9ca3af; stroke: #ffffff; stroke-width: 0.531736"/>
    <path d="M 375.052909 490.761675
L 375.052909 430.904893
L 384.518225 430.904893
L 384.518225 490.761675
z
" clip-path="url(#p096dccb8fd)" style="fill: #9ca3af; stroke: #ffffff; stroke-width: 0.531736"/>
    <path d="M 386.595977 490.761675
L 386.595977 410.655892
L 396.061294 410.655892
L 396.061294 490.761675
z
" clip-path="url(#p096dccb8fd)" style="fill: #9ca3af; stroke: #ffffff; stroke-width: 0.531736"/>
    <path d="M 398.139046 490.761675
L 398.139046 394.203875
L 407.604362 394.203875
L 407.604362 490.761675
z
" clip-path="url(#p096dccb8fd)" style="fill: #9ca3af; stroke: #ffffff; stroke-width: 0.531736"/>
    <path d="M 409.682115 490.761675
L 409.682115 386.015141
L 419.147431 386.015141
L 419.147431 490.761675
z
" clip-path="url(#p096dccb8fd)" style="fill: #9ca3af; stroke: #ffffff; stroke-width: 0.531736"/>
    <path d="M 421.225184 490.761675
L 421.225184 396.113349
L 430.6905 396.113349
L 430.6905 490.761675
z
" clip-path="url(#p096dccb8fd)" style="fill: #9ca3af; stroke: #ffffff; stroke-width: 0.531736"/>
    <path d="M 432.768252 490.761675
L 432.768252 390.684127
L 442.233569 390.684127
L 442.233569 490.761675
z
" clip-path="url(#p096dccb8fd)" style="fill: #9ca3af; stroke: #ffffff; stroke-width: 0.531736"/>
    <path d="M 444.311321 490.761675
L 444.311321 351.82709
L 453.776638 351.82709
L 453.776638 490.761675
z
" clip-path="url(#p096dccb8fd)" style="fill: #9ca3af; stroke: #ffffff; stroke-width: 0.531736"/>
    <path d="M 455.85439 490.761675
L 455.85439 369.241903
L 465.319706 369.241903
L 465.319706 490.761675
z
" clip-path="url(#p096dccb8fd)" style="fill: #9ca3af; stroke: #ffffff; stroke-width: 0.531736"/>
    <path d="M 467.397459 490.761675
L 467.397459 364.344364
L 476.862775 364.344364
L 476.862775 490.761675
z
" clip-path="url(#p096dccb8fd)" style="fill: #9ca3af; stroke: #ffffff; stroke-width: 0.531736"/>
    <path d="M 478.940527 490.761675
L 478.940527 358.763637
L 488.405844 358.763637
L 488.405844 490.761675
z
" clip-path="url(#p096dccb8fd)" style="fill: #9ca3af; stroke: #ffffff; stroke-width: 0.531736"/>
    <path d="M 490.483596 490.761675
L 490.483596 360.748778
L 499.948913 360.748778
L 499.948913 490.761675
z
" clip-path="url(#p096dccb8fd)" style="fill: #9ca3af; stroke: #ffffff; stroke-width: 0.531736"/>
    <path d="M 502.026665 490.761675
L 502.026665 369.241903
L 511.491981 369.241903
L 511.491981 490.761675
z
" clip-path="url(#p096dccb8fd)" style="fill: #9ca3af; stroke: #ffffff; stroke-width: 0.531736"/>
    <path d="M 513.569734 490.761675
L 513.569734 364.344364
L 523.03505 364.344364
L 523.03505 490.761675
z
" clip-path="url(#p096dccb8fd)" style="fill: #9ca3af; stroke: #ffffff; stroke-width: 0.531736"/>
    <path d="M 525.112803 490.761675
L 525.112803 351.82709
L 534.578119 351.82709
L 534.578119 490.761675
z
" clip-path="url(#p096dccb8fd)" style="fill: #9ca3af; stroke: #ffffff; stroke-width: 0.531736"/>
    <path d="M 536.655871 490.761675
L 536.655871 343.957603
L 546.121188 343.957603
L 546.121188 490.761675
z
" clip-path="url(#p096dccb8fd)" style="fill: #9ca3af; stroke: #ffffff; stroke-width: 0.531736"/>
    <path d="M 548.19894 490.761675
L 548.19894 347.892347
L 557.664256 347.892347
L 557.664256 490.761675
z
" clip-path="url(#p096dccb8fd)" style="fill: #9ca3af; stroke: #ffffff; stroke-width: 0.531736"/>
    <path d="M 559.742009 490.761675
L 559.742009 345.649444
L 569.207325 345.649444
L 569.207325 490.761675
z
" clip-path="url(#p096dccb8fd)" style="fill: #9ca3af; stroke: #ffffff; stroke-width: 0.531736"/>
    <path d="M 571.285078 490.761675
L 571.285078 332.835219
L 580.750394 332.835219
L 580.750394 490.761675
z
" clip-path="url(#p096dccb8fd)" style="fill: #9ca3af; stroke: #ffffff; stroke-width: 0.531736"/>
    <path d="M 582.828146 490.761675
L 582.828146 316.007567
L 592.293463 316.007567
L 592.293463 490.761675
z
" clip-path="url(#p096dccb8fd)" style="fill: #9ca3af; stroke: #ffffff; stroke-width: 0.531736"/>
    <path d="M 594.371215 490.761675
L 594.371215 303.985216
L 603.836532 303.985216
L 603.836532 490.761675
z
" clip-path="url(#p096dccb8fd)" style="fill: #9ca3af; stroke: #ffffff; stroke-width: 0.531736"/>
    <path d="M 605.914284 490.761675
L 605.914284 299.0141
L 615.3796 299.0141
L 615.3796 490.761675
z
" clip-path="url(#p096dccb8fd)" style="fill: #9ca3af; stroke: #ffffff; stroke-width: 0.531736"/>
    <path d="M 617.457353 490.761675
L 617.457353 301.234632
L 626.922669 301.234632
L 626.922669 490.761675
z
" clip-path="url(#p096dccb8fd)" style="fill: #9ca3af; stroke: #ffffff; stroke-width: 0.531736"/>
    <path d="M 629.000421 490.761675
L 629.000421 289.538131
L 638.465738 289.538131
L 638.465738 490.761675
z
" clip-path="url(#p096dccb8fd)" style="fill: #9ca3af; stroke: #ffffff; stroke-width: 0.531736"/>
    <path d="M 640.54349 490.761675
L 640.54349 288.581311
L 650.008807 288.581311
L 650.008807 490.761675
z
" clip-path="url(#p096dccb8fd)" style="fill: #9ca3af; stroke: #ffffff; stroke-width: 0.531736"/>
    <path d="M 652.086559 490.761675
L 652.086559 288.581311
L 661.551875 288.581311
L 661.551875 490.761675
z
" clip-path="url(#p096dccb8fd)" style="fill: #9ca3af; stroke: #ffffff; stroke-width: 0.531736"/>
    <path d="M 663.629628 490.761675
L 663.629628 280.829452
L 673.094944 280.829452
L 673.094944 490.761675
z
" clip-path="url(#p096dccb8fd)" style="fill: #9ca3af; stroke: #ffffff; stroke-width: 0.531736"/>
    <path d="M 675.172697 490.761675
L 675.172697 272.732979
L 684.638013 272.732979
L 684.638013 490.761675
z
" clip-path="url(#p096dccb8fd)" style="fill: #9ca3af; stroke: #ffffff; stroke-width: 0.531736"/>
    <path d="M 686.715765 490.761675
L 686.715765 273.776247
L 696.181082 273.776247
L 696.181082 490.761675
z
" clip-path="url(#p096dccb8fd)" style="fill: #9ca3af; stroke: #ffffff; stroke-width: 0.531736"/>
    <path d="M 698.258834 490.761675
L 698.258834 226.654593
L 707.72415 226.654593
L 707.72415 490.761675
z
" clip-path="url(#p096dccb8fd)" style="fill: #2a9d8f; stroke: #ffffff; stroke-width: 0.531736"/>
    <path d="M 709.801903 490.761675
L 709.801903 209.300248
L 719.267219 209.300248
L 719.267219 490.761675
z
" clip-path="url(#p096dccb8fd)" style="fill: #2a9d8f; stroke: #ffffff; stroke-width: 0.531736"/>
    <path d="M 721.344972 490.761675
L 721.344972 191.988594
L 730.810288 191.988594
L 730.810288 490.761675
z
" clip-path="url(#p096dccb8fd)" style="fill: #2a9d8f; stroke: #ffffff; stroke-width: 0.531736"/>
    <path d="M 732.88804 490.761675
L 732.88804 167.202496
L 742.353357 167.202496
L 742.353357 490.761675
z
" clip-path="url(#p096dccb8fd)" style="fill: #2a9d8f; stroke: #ffffff; stroke-width: 0.531736"/>
    <path d="M 744.431109 490.761675
L 744.431109 164.507766
L 753.896426 164.507766
L 753.896426 490.761675
z
" clip-path="url(#p096dccb8fd)" style="fill: #2a9d8f; stroke: #ffffff; stroke-width: 0.531736"/>
    <path d="M 755.974178 490.761675
L 755.974178 157.73354
L 765.439494 157.73354
L 765.439494 490.761675
z
" clip-path="url(#p096dccb8fd)" style="fill: #2a9d8f; stroke: #ffffff; stroke-width: 0.531736"/>
    <path d="M 767.517247 490.761675
L 767.517247 147.340591
L 776.982563 147.340591
L 776.982563 490.761675
z
" clip-path="url(#p096dccb8fd)" style="fill: #2a9d8f; stroke: #ffffff; stroke-width: 0.531736"/>
    <path d="M 779.060315 490.761675
L 779.060315 137.999967
L 788.525632 137.999967
L 788.525632 490.761675
z
" clip-path="url(#p096dccb8fd)" style="fill: #2a9d8f; stroke: #ffffff; stroke-width: 0.531736"/>
    <path d="M 790.603384 490.761675
L 790.603384 135.701845
L 800.068701 135.701845
L 800.068701 490.761675
z
" clip-path="url(#p096dccb8fd)" style="fill: #2a9d8f; stroke: #ffffff; stroke-width: 0.531736"/>
    <path d="M 802.146453 490.761675
L 802.146453 131.064286
L 811.611769 131.064286
L 811.611769 490.761675
z
" clip-path="url(#p096dccb8fd)" style="fill: #2a9d8f; stroke: #ffffff; stroke-width: 0.531736"/>
    <path d="M 813.689522 490.761675
L 813.689522 126.46518
L 823.154838 126.46518
L 823.154838 490.761675
z
" clip-path="url(#p096dccb8fd)" style="fill: #2a9d8f; stroke: #ffffff; stroke-width: 0.531736"/>
    <path d="M 825.232591 490.761675
L 825.232591 115.46307
L 834.697907 115.46307
L 834.697907 490.761675
z
" clip-path="url(#p096dccb8fd)" style="fill: #2a9d8f; stroke: #ffffff; stroke-width: 0.531736"/>
    <path d="M 836.775659 490.761675
L 836.775659 130.326752
L 846.240976 130.326752
L 846.240976 490.761675
z
" clip-path="url(#p096dccb8fd)" style="fill: #e76f51; stroke: #ffffff; stroke-width: 0.531736"/>
   </g>
   <g id="text_21">
    <g clip-path="url(#p096dccb8fd)">
     <!-- 98 -->
     <g style="fill: #22313f" transform="translate(75.212029 329.567272) scale(0.07 -0.07)">
      <use xlink:href="#DejaVuSans-1c"/>
      <use xlink:href="#DejaVuSans-1b" transform="translate(63.625 0)"/>
     </g>
    </g>
   </g>
   <g id="text_22">
    <g clip-path="url(#p096dccb8fd)">
     <!-- 7 -->
     <g style="fill: #22313f" transform="translate(192.869591 414.258663) scale(0.07 -0.07)">
      <use xlink:href="#DejaVuSans-1a"/>
     </g>
    </g>
   </g>
   <g id="text_23">
    <g clip-path="url(#p096dccb8fd)">
     <!-- 5 -->
     <g style="fill: #22313f" transform="translate(250.584935 424.057179) scale(0.07 -0.07)">
      <use xlink:href="#DejaVuSans-18"/>
     </g>
    </g>
   </g>
   <g id="text_24">
    <g clip-path="url(#p096dccb8fd)">
     <!-- 5 -->
     <g style="fill: #22313f" transform="translate(308.300279 424.057179) scale(0.07 -0.07)">
      <use xlink:href="#DejaVuSans-18"/>
     </g>
    </g>
   </g>
   <g id="text_25">
    <g clip-path="url(#p096dccb8fd)">
     <!-- 7 -->
     <g style="fill: #22313f" transform="translate(366.015623 414.258663) scale(0.07 -0.07)">
      <use xlink:href="#DejaVuSans-1a"/>
     </g>
    </g>
   </g>
   <g id="text_26">
    <g clip-path="url(#p096dccb8fd)">
     <!-- 16 -->
     <g style="fill: #22313f" transform="translate(421.504092 388.69961) scale(0.07 -0.07)">
      <use xlink:href="#DejaVuSans-14"/>
      <use xlink:href="#DejaVuSans-19" transform="translate(63.625 0)"/>
     </g>
    </g>
   </g>
   <g id="text_27">
    <g clip-path="url(#p096dccb8fd)">
     <!-- 51 -->
     <g style="fill: #22313f" transform="translate(479.219436 351.082072) scale(0.07 -0.07)">
      <use xlink:href="#DejaVuSans-18"/>
      <use xlink:href="#DejaVuSans-14" transform="translate(63.625 0)"/>
     </g>
    </g>
   </g>
   <g id="text_28">
    <g clip-path="url(#p096dccb8fd)">
     <!-- 80 -->
     <g style="fill: #22313f" transform="translate(536.934779 336.28354) scale(0.07 -0.07)">
      <use xlink:href="#DejaVuSans-1b"/>
      <use xlink:href="#DejaVuSans-13" transform="translate(63.625 0)"/>
     </g>
    </g>
   </g>
   <g id="text_29">
    <g clip-path="url(#p096dccb8fd)">
     <!-- 267 -->
     <g style="fill: #22313f" transform="translate(592.423248 296.263126) scale(0.07 -0.07)">
      <use xlink:href="#DejaVuSans-15"/>
      <use xlink:href="#DejaVuSans-19" transform="translate(63.625 0)"/>
      <use xlink:href="#DejaVuSans-1a" transform="translate(127.25 0)"/>
     </g>
    </g>
   </g>
   <g id="text_30">
    <g clip-path="url(#p096dccb8fd)">
     <!-- 424 -->
     <g style="fill: #22313f" transform="translate(650.138592 280.901308) scale(0.07 -0.07)">
      <defs>
       <path id="DejaVuSans-17" d="M 2419 4116
L 825 1625
L 2419 1625
L 2419 4116
z
M 2253 4666
L 3047 4666
L 3047 1625
L 3713 1625
L 3713 1100
L 3047 1100
L 3047 0
L 2419 0
L 2419 1100
L 313 1100
L 313 1709
L 2253 4666
z
" transform="scale(0.015625)"/>
      </defs>
      <use xlink:href="#DejaVuSans-17"/>
      <use xlink:href="#DejaVuSans-15" transform="translate(63.625 0)"/>
      <use xlink:href="#DejaVuSans-17" transform="translate(127.25 0)"/>
     </g>
    </g>
   </g>
   <g id="text_31">
    <g clip-path="url(#p096dccb8fd)">
     <!-- 4,560 -->
     <g style="fill: #22313f" transform="translate(704.514717 201.201488) scale(0.07 -0.07)">
      <use xlink:href="#DejaVuSans-17"/>
      <use xlink:href="#DejaVuSans-f" transform="translate(63.625 0)"/>
      <use xlink:href="#DejaVuSans-18" transform="translate(95.40625 0)"/>
      <use xlink:href="#DejaVuSans-19" transform="translate(159.03125 0)"/>
      <use xlink:href="#DejaVuSans-13" transform="translate(222.65625 0)"/>
     </g>
    </g>
   </g>
   <g id="text_32">
    <g clip-path="url(#p096dccb8fd)">
     <!-- 29,143 -->
     <g style="fill: #22313f" transform="translate(760.003186 139.240801) scale(0.07 -0.07)">
      <defs>
       <path id="DejaVuSans-16" d="M 2597 2516
Q 3050 2419 3304 2112
Q 3559 1806 3559 1356
Q 3559 666 3084 287
Q 2609 -91 1734 -91
Q 1441 -91 1130 -33
Q 819 25 488 141
L 488 750
Q 750 597 1062 519
Q 1375 441 1716 441
Q 2309 441 2620 675
Q 2931 909 2931 1356
Q 2931 1769 2642 2001
Q 2353 2234 1838 2234
L 1294 2234
L 1294 2753
L 1863 2753
Q 2328 2753 2575 2939
Q 2822 3125 2822 3475
Q 2822 3834 2567 4026
Q 2313 4219 1838 4219
Q 1578 4219 1281 4162
Q 984 4106 628 3988
L 628 4550
Q 988 4650 1302 4700
Q 1616 4750 1894 4750
Q 2613 4750 3031 4423
Q 3450 4097 3450 3541
Q 3450 3153 3228 2886
Q 3006 2619 2597 2516
z
" transform="scale(0.015625)"/>
      </defs>
      <use xlink:href="#DejaVuSans-15"/>
      <use xlink:href="#DejaVuSans-1c" transform="translate(63.625 0)"/>
      <use xlink:href="#DejaVuSans-f" transform="translate(127.25 0)"/>
      <use xlink:href="#DejaVuSans-14" transform="translate(159.03125 0)"/>
      <use xlink:href="#DejaVuSans-17" transform="translate(222.65625 0)"/>
      <use xlink:href="#DejaVuSans-16" transform="translate(286.28125 0)"/>
     </g>
    </g>
   </g>
   <g id="text_33">
    <g clip-path="url(#p096dccb8fd)">
     <!-- 75,676 -->
     <g style="fill: #22313f" transform="translate(817.71853 107.363162) scale(0.07 -0.07)">
      <use xlink:href="#DejaVuSans-1a"/>
      <use xlink:href="#DejaVuSans-18" transform="translate(63.625 0)"/>
      <use xlink:href="#DejaVuSans-f" transform="translate(127.25 0)"/>
      <use xlink:href="#DejaVuSans-19" transform="translate(159.03125 0)"/>
      <use xlink:href="#DejaVuSans-1a" transform="translate(222.65625 0)"/>
      <use xlink:href="#DejaVuSans-19" transform="translate(286.28125 0)"/>
     </g>
    </g>
   </g>
  </g>
  <g id="text_34">
   <!-- OpenAIRE research software records by publication year -->
   <g style="fill: #1f2933" transform="translate(192.354109 21.557344) scale(0.17 -0.17)">
    <defs>
     <path id="DejaVuSans-Bold-32" d="M 2719 3878
Q 2169 3878 1866 3472
Q 1563 3066 1563 2328
Q 1563 1594 1866 1187
Q 2169 781 2719 781
Q 3272 781 3575 1187
Q 3878 1594 3878 2328
Q 3878 3066 3575 3472
Q 3272 3878 2719 3878
z
M 2719 4750
Q 3844 4750 4481 4106
Q 5119 3463 5119 2328
Q 5119 1197 4481 553
Q 3844 -91 2719 -91
Q 1597 -91 958 553
Q 319 1197 319 2328
Q 319 3463 958 4106
Q 1597 4750 2719 4750
z
" transform="scale(0.015625)"/>
     <path id="DejaVuSans-Bold-53" d="M 1656 506
L 1656 -1331
L 538 -1331
L 538 3500
L 1656 3500
L 1656 2988
Q 1888 3294 2169 3439
Q 2450 3584 2816 3584
Q 3463 3584 3878 3070
Q 4294 2556 4294 1747
Q 4294 938 3878 423
Q 3463 -91 2816 -91
Q 2450 -91 2169 54
Q 1888 200 1656 506
z
M 2400 2772
Q 2041 2772 1848 2508
Q 1656 2244 1656 1747
Q 1656 1250 1848 986
Q 2041 722 2400 722
Q 2759 722 2948 984
Q 3138 1247 3138 1747
Q 3138 2247 2948 2509
Q 2759 2772 2400 2772
z
" transform="scale(0.015625)"/>
     <path id="DejaVuSans-Bold-48" d="M 4031 1759
L 4031 1441
L 1416 1441
Q 1456 1047 1700 850
Q 1944 653 2381 653
Q 2734 653 3104 758
Q 3475 863 3866 1075
L 3866 213
Q 3469 63 3072 -14
Q 2675 -91 2278 -91
Q 1328 -91 801 392
Q 275 875 275 1747
Q 275 2603 792 3093
Q 1309 3584 2216 3584
Q 3041 3584 3536 3087
Q 4031 2591 4031 1759
z
M 2881 2131
Q 2881 2450 2695 2645
Q 2509 2841 2209 2841
Q 1884 2841 1681 2658
Q 1478 2475 1428 2131
L 2881 2131
z
" transform="scale(0.015625)"/>
     <path id="DejaVuSans-Bold-51" d="M 4056 2131
L 4056 0
L 2931 0
L 2931 347
L 2931 1631
Q 2931 2084 2911 2256
Q 2891 2428 2841 2509
Q 2775 2619 2662 2680
Q 2550 2741 2406 2741
Q 2056 2741 1856 2470
Q 1656 2200 1656 1722
L 1656 0
L 538 0
L 538 3500
L 1656 3500
L 1656 2988
Q 1909 3294 2193 3439
Q 2478 3584 2822 3584
Q 3428 3584 3742 3212
Q 4056 2841 4056 2131
z
" transform="scale(0.015625)"/>
     <path id="DejaVuSans-Bold-24" d="M 3419 850
L 1538 850
L 1241 0
L 31 0
L 1759 4666
L 3194 4666
L 4922 0
L 3713 0
L 3419 850
z
M 1838 1716
L 3116 1716
L 2478 3572
L 1838 1716
z
" transform="scale(0.015625)"/>
     <path id="DejaVuSans-Bold-2c" d="M 588 4666
L 1791 4666
L 1791 0
L 588 0
L 588 4666
z
" transform="scale(0.015625)"/>
     <path id="DejaVuSans-Bold-35" d="M 2297 2597
Q 2675 2597 2839 2737
Q 3003 2878 3003 3200
Q 3003 3519 2839 3656
Q 2675 3794 2297 3794
L 1791 3794
L 1791 2597
L 2297 2597
z
M 1791 1766
L 1791 0
L 588 0
L 588 4666
L 2425 4666
Q 3347 4666 3776 4356
Q 4206 4047 4206 3378
Q 4206 2916 3982 2619
Q 3759 2322 3309 2181
Q 3556 2125 3751 1926
Q 3947 1728 4147 1325
L 4800 0
L 3519 0
L 2950 1159
Q 2778 1509 2601 1637
Q 2425 1766 2131 1766
L 1791 1766
z
" transform="scale(0.015625)"/>
     <path id="DejaVuSans-Bold-28" d="M 588 4666
L 3834 4666
L 3834 3756
L 1791 3756
L 1791 2888
L 3713 2888
L 3713 1978
L 1791 1978
L 1791 909
L 3903 909
L 3903 0
L 588 0
L 588 4666
z
" transform="scale(0.015625)"/>
     <path id="DejaVuSans-Bold-3" transform="scale(0.015625)"/>
     <path id="DejaVuSans-Bold-55" d="M 3138 2547
Q 2991 2616 2845 2648
Q 2700 2681 2553 2681
Q 2122 2681 1889 2404
Q 1656 2128 1656 1613
L 1656 0
L 538 0
L 538 3500
L 1656 3500
L 1656 2925
Q 1872 3269 2151 3426
Q 2431 3584 2822 3584
Q 2878 3584 2943 3579
Q 3009 3575 3134 3559
L 3138 2547
z
" transform="scale(0.015625)"/>
     <path id="DejaVuSans-Bold-56" d="M 3272 3391
L 3272 2541
Q 2913 2691 2578 2766
Q 2244 2841 1947 2841
Q 1628 2841 1473 2761
Q 1319 2681 1319 2516
Q 1319 2381 1436 2309
Q 1553 2238 1856 2203
L 2053 2175
Q 2913 2066 3209 1816
Q 3506 1566 3506 1031
Q 3506 472 3093 190
Q 2681 -91 1863 -91
Q 1516 -91 1145 -36
Q 775 19 384 128
L 384 978
Q 719 816 1070 734
Q 1422 653 1784 653
Q 2113 653 2278 743
Q 2444 834 2444 1013
Q 2444 1163 2330 1236
Q 2216 1309 1875 1350
L 1678 1375
Q 931 1469 631 1722
Q 331 1975 331 2491
Q 331 3047 712 3315
Q 1094 3584 1881 3584
Q 2191 3584 2531 3537
Q 2872 3491 3272 3391
z
" transform="scale(0.015625)"/>
     <path id="DejaVuSans-Bold-44" d="M 2106 1575
Q 1756 1575 1579 1456
Q 1403 1338 1403 1106
Q 1403 894 1545 773
Q 1688 653 1941 653
Q 2256 653 2472 879
Q 2688 1106 2688 1447
L 2688 1575
L 2106 1575
z
M 3816 1997
L 3816 0
L 2688 0
L 2688 519
Q 2463 200 2181 54
Q 1900 -91 1497 -91
Q 953 -91 614 226
Q 275 544 275 1050
Q 275 1666 698 1953
Q 1122 2241 2028 2241
L 2688 2241
L 2688 2328
Q 2688 2594 2478 2717
Q 2269 2841 1825 2841
Q 1466 2841 1156 2769
Q 847 2697 581 2553
L 581 3406
Q 941 3494 1303 3539
Q 1666 3584 2028 3584
Q 2975 3584 3395 3211
Q 3816 2838 3816 1997
z
" transform="scale(0.015625)"/>
     <path id="DejaVuSans-Bold-46" d="M 3366 3391
L 3366 2478
Q 3138 2634 2908 2709
Q 2678 2784 2431 2784
Q 1963 2784 1702 2511
Q 1441 2238 1441 1747
Q 1441 1256 1702 982
Q 1963 709 2431 709
Q 2694 709 2930 787
Q 3166 866 3366 1019
L 3366 103
Q 3103 6 2833 -42
Q 2563 -91 2291 -91
Q 1344 -91 809 395
Q 275 881 275 1747
Q 275 2613 809 3098
Q 1344 3584 2291 3584
Q 2566 3584 2833 3536
Q 3100 3488 3366 3391
z
" transform="scale(0.015625)"/>
     <path id="DejaVuSans-Bold-4b" d="M 4056 2131
L 4056 0
L 2931 0
L 2931 347
L 2931 1625
Q 2931 2084 2911 2256
Q 2891 2428 2841 2509
Q 2775 2619 2662 2680
Q 2550 2741 2406 2741
Q 2056 2741 1856 2470
Q 1656 2200 1656 1722
L 1656 0
L 538 0
L 538 4863
L 1656 4863
L 1656 2988
Q 1909 3294 2193 3439
Q 2478 3584 2822 3584
Q 3428 3584 3742 3212
Q 4056 2841 4056 2131
z
" transform="scale(0.015625)"/>
     <path id="DejaVuSans-Bold-52" d="M 2203 2784
Q 1831 2784 1636 2517
Q 1441 2250 1441 1747
Q 1441 1244 1636 976
Q 1831 709 2203 709
Q 2569 709 2762 976
Q 2956 1244 2956 1747
Q 2956 2250 2762 2517
Q 2569 2784 2203 2784
z
M 2203 3584
Q 3106 3584 3614 3096
Q 4122 2609 4122 1747
Q 4122 884 3614 396
Q 3106 -91 2203 -91
Q 1297 -91 786 396
Q 275 884 275 1747
Q 275 2609 786 3096
Q 1297 3584 2203 3584
z
" transform="scale(0.015625)"/>
     <path id="DejaVuSans-Bold-49" d="M 2841 4863
L 2841 4128
L 2222 4128
Q 1984 4128 1890 4042
Q 1797 3956 1797 3744
L 1797 3500
L 2753 3500
L 2753 2700
L 1797 2700
L 1797 0
L 678 0
L 678 2700
L 122 2700
L 122 3500
L 678 3500
L 678 3744
Q 678 4316 997 4589
Q 1316 4863 1984 4863
L 2841 4863
z
" transform="scale(0.015625)"/>
     <path id="DejaVuSans-Bold-57" d="M 1759 4494
L 1759 3500
L 2913 3500
L 2913 2700
L 1759 2700
L 1759 1216
Q 1759 972 1856 886
Q 1953 800 2241 800
L 2816 800
L 2816 0
L 1856 0
Q 1194 0 917 276
Q 641 553 641 1216
L 641 2700
L 84 2700
L 84 3500
L 641 3500
L 641 4494
L 1759 4494
z
" transform="scale(0.015625)"/>
     <path id="DejaVuSans-Bold-5a" d="M 225 3500
L 1313 3500
L 1900 1088
L 2491 3500
L 3425 3500
L 4013 1113
L 4603 3500
L 5691 3500
L 4769 0
L 3547 0
L 2956 2406
L 2369 0
L 1147 0
L 225 3500
z
" transform="scale(0.015625)"/>
     <path id="DejaVuSans-Bold-47" d="M 2919 2988
L 2919 4863
L 4044 4863
L 4044 0
L 2919 0
L 2919 506
Q 2688 197 2409 53
Q 2131 -91 1766 -91
Q 1119 -91 703 423
Q 288 938 288 1747
Q 288 2556 703 3070
Q 1119 3584 1766 3584
Q 2128 3584 2408 3439
Q 2688 3294 2919 2988
z
M 2181 722
Q 2541 722 2730 984
Q 2919 1247 2919 1747
Q 2919 2247 2730 2509
Q 2541 2772 2181 2772
Q 1825 2772 1636 2509
Q 1447 2247 1447 1747
Q 1447 1247 1636 984
Q 1825 722 2181 722
z
" transform="scale(0.015625)"/>
     <path id="DejaVuSans-Bold-45" d="M 2400 722
Q 2759 722 2948 984
Q 3138 1247 3138 1747
Q 3138 2247 2948 2509
Q 2759 2772 2400 2772
Q 2041 2772 1848 2508
Q 1656 2244 1656 1747
Q 1656 1250 1848 986
Q 2041 722 2400 722
z
M 1656 2988
Q 1888 3294 2169 3439
Q 2450 3584 2816 3584
Q 3463 3584 3878 3070
Q 4294 2556 4294 1747
Q 4294 938 3878 423
Q 3463 -91 2816 -91
Q 2450 -91 2169 54
Q 1888 200 1656 506
L 1656 0
L 538 0
L 538 4863
L 1656 4863
L 1656 2988
z
" transform="scale(0.015625)"/>
     <path id="DejaVuSans-Bold-5c" d="M 78 3500
L 1197 3500
L 2138 1125
L 2938 3500
L 4056 3500
L 2584 -331
Q 2363 -916 2067 -1148
Q 1772 -1381 1288 -1381
L 641 -1381
L 641 -647
L 991 -647
Q 1275 -647 1404 -556
Q 1534 -466 1606 -231
L 1638 -134
L 78 3500
z
" transform="scale(0.015625)"/>
     <path id="DejaVuSans-Bold-58" d="M 500 1363
L 500 3500
L 1625 3500
L 1625 3150
Q 1625 2866 1622 2436
Q 1619 2006 1619 1863
Q 1619 1441 1641 1255
Q 1663 1069 1716 984
Q 1784 875 1895 815
Q 2006 756 2150 756
Q 2500 756 2700 1025
Q 2900 1294 2900 1772
L 2900 3500
L 4019 3500
L 4019 0
L 2900 0
L 2900 506
Q 2647 200 2364 54
Q 2081 -91 1741 -91
Q 1134 -91 817 281
Q 500 653 500 1363
z
" transform="scale(0.015625)"/>
     <path id="DejaVuSans-Bold-4f" d="M 538 4863
L 1656 4863
L 1656 0
L 538 0
L 538 4863
z
" transform="scale(0.015625)"/>
     <path id="DejaVuSans-Bold-4c" d="M 538 3500
L 1656 3500
L 1656 0
L 538 0
L 538 3500
z
M 538 4863
L 1656 4863
L 1656 3950
L 538 3950
L 538 4863
z
" transform="scale(0.015625)"/>
    </defs>
    <use xlink:href="#DejaVuSans-Bold-32"/>
    <use xlink:href="#DejaVuSans-Bold-53" transform="translate(85.015625 0)"/>
    <use xlink:href="#DejaVuSans-Bold-48" transform="translate(156.59375 0)"/>
    <use xlink:href="#DejaVuSans-Bold-51" transform="translate(224.421875 0)"/>
    <use xlink:href="#DejaVuSans-Bold-24" transform="translate(295.609375 0)"/>
    <use xlink:href="#DejaVuSans-Bold-2c" transform="translate(373 0)"/>
    <use xlink:href="#DejaVuSans-Bold-35" transform="translate(410.203125 0)"/>
    <use xlink:href="#DejaVuSans-Bold-28" transform="translate(487.203125 0)"/>
    <use xlink:href="#DejaVuSans-Bold-3" transform="translate(555.515625 0)"/>
    <use xlink:href="#DejaVuSans-Bold-55" transform="translate(590.328125 0)"/>
    <use xlink:href="#DejaVuSans-Bold-48" transform="translate(639.640625 0)"/>
    <use xlink:href="#DejaVuSans-Bold-56" transform="translate(707.46875 0)"/>
    <use xlink:href="#DejaVuSans-Bold-48" transform="translate(766.984375 0)"/>
    <use xlink:href="#DejaVuSans-Bold-44" transform="translate(834.8125 0)"/>
    <use xlink:href="#DejaVuSans-Bold-55" transform="translate(902.296875 0)"/>
    <use xlink:href="#DejaVuSans-Bold-46" transform="translate(951.609375 0)"/>
    <use xlink:href="#DejaVuSans-Bold-4b" transform="translate(1010.890625 0)"/>
    <use xlink:href="#DejaVuSans-Bold-3" transform="translate(1082.078125 0)"/>
    <use xlink:href="#DejaVuSans-Bold-56" transform="translate(1116.890625 0)"/>
    <use xlink:href="#DejaVuSans-Bold-52" transform="translate(1176.40625 0)"/>
    <use xlink:href="#DejaVuSans-Bold-49" transform="translate(1245.109375 0)"/>
    <use xlink:href="#DejaVuSans-Bold-57" transform="translate(1288.609375 0)"/>
    <use xlink:href="#DejaVuSans-Bold-5a" transform="translate(1336.40625 0)"/>
    <use xlink:href="#DejaVuSans-Bold-44" transform="translate(1428.796875 0)"/>
    <use xlink:href="#DejaVuSans-Bold-55" transform="translate(1496.28125 0)"/>
    <use xlink:href="#DejaVuSans-Bold-48" transform="translate(1545.59375 0)"/>
    <use xlink:href="#DejaVuSans-Bold-3" transform="translate(1613.421875 0)"/>
    <use xlink:href="#DejaVuSans-Bold-55" transform="translate(1648.234375 0)"/>
    <use xlink:href="#DejaVuSans-Bold-48" transform="translate(1697.546875 0)"/>
    <use xlink:href="#DejaVuSans-Bold-46" transform="translate(1765.375 0)"/>
    <use xlink:href="#DejaVuSans-Bold-52" transform="translate(1824.65625 0)"/>
    <use xlink:href="#DejaVuSans-Bold-55" transform="translate(1893.359375 0)"/>
    <use xlink:href="#DejaVuSans-Bold-47" transform="translate(1942.671875 0)"/>
    <use xlink:href="#DejaVuSans-Bold-56" transform="translate(2014.25 0)"/>
    <use xlink:href="#DejaVuSans-Bold-3" transform="translate(2073.765625 0)"/>
    <use xlink:href="#DejaVuSans-Bold-45" transform="translate(2108.578125 0)"/>
    <use xlink:href="#DejaVuSans-Bold-5c" transform="translate(2180.15625 0)"/>
    <use xlink:href="#DejaVuSans-Bold-3" transform="translate(2245.34375 0)"/>
    <use xlink:href="#DejaVuSans-Bold-53" transform="translate(2280.15625 0)"/>
    <use xlink:href="#DejaVuSans-Bold-58" transform="translate(2351.734375 0)"/>
    <use xlink:href="#DejaVuSans-Bold-45" transform="translate(2422.921875 0)"/>
    <use xlink:href="#DejaVuSans-Bold-4f" transform="translate(2494.5 0)"/>
    <use xlink:href="#DejaVuSans-Bold-4c" transform="translate(2528.78125 0)"/>
    <use xlink:href="#DejaVuSans-Bold-46" transform="translate(2563.0625 0)"/>
    <use xlink:href="#DejaVuSans-Bold-44" transform="translate(2622.34375 0)"/>
    <use xlink:href="#DejaVuSans-Bold-57" transform="translate(2689.828125 0)"/>
    <use xlink:href="#DejaVuSans-Bold-4c" transform="translate(2737.625 0)"/>
    <use xlink:href="#DejaVuSans-Bold-52" transform="translate(2771.90625 0)"/>
    <use xlink:href="#DejaVuSans-Bold-51" transform="translate(2840.609375 0)"/>
    <use xlink:href="#DejaVuSans-Bold-3" transform="translate(2911.796875 0)"/>
    <use xlink:href="#DejaVuSans-Bold-5c" transform="translate(2946.609375 0)"/>
    <use xlink:href="#DejaVuSans-Bold-48" transform="translate(3011.796875 0)"/>
    <use xlink:href="#DejaVuSans-Bold-44" transform="translate(3079.625 0)"/>
    <use xlink:href="#DejaVuSans-Bold-55" transform="translate(3147.109375 0)"/>
   </g>
  </g>
  <g id="text_35">
   <!-- Annual records from the OpenAIRE Graph API, 1960-2026; symmetric log y-axis -->
   <g style="fill: #52616b" transform="translate(244.932547 42.639609) scale(0.11 -0.11)">
    <defs>
     <path id="DejaVuSans-24" d="M 2188 4044
L 1331 1722
L 3047 1722
L 2188 4044
z
M 1831 4666
L 2547 4666
L 4325 0
L 3669 0
L 3244 1197
L 1141 1197
L 716 0
L 50 0
L 1831 4666
z
" transform="scale(0.015625)"/>
     <path id="DejaVuSans-51" d="M 3513 2113
L 3513 0
L 2938 0
L 2938 2094
Q 2938 2591 2744 2837
Q 2550 3084 2163 3084
Q 1697 3084 1428 2787
Q 1159 2491 1159 1978
L 1159 0
L 581 0
L 581 3500
L 1159 3500
L 1159 2956
Q 1366 3272 1645 3428
Q 1925 3584 2291 3584
Q 2894 3584 3203 3211
Q 3513 2838 3513 2113
z
" transform="scale(0.015625)"/>
     <path id="DejaVuSans-58" d="M 544 1381
L 544 3500
L 1119 3500
L 1119 1403
Q 1119 906 1312 657
Q 1506 409 1894 409
Q 2359 409 2629 706
Q 2900 1003 2900 1516
L 2900 3500
L 3475 3500
L 3475 0
L 2900 0
L 2900 538
Q 2691 219 2414 64
Q 2138 -91 1772 -91
Q 1169 -91 856 284
Q 544 659 544 1381
z
M 1991 3584
L 1991 3584
z
" transform="scale(0.015625)"/>
     <path id="DejaVuSans-44" d="M 2194 1759
Q 1497 1759 1228 1600
Q 959 1441 959 1056
Q 959 750 1161 570
Q 1363 391 1709 391
Q 2188 391 2477 730
Q 2766 1069 2766 1631
L 2766 1759
L 2194 1759
z
M 3341 1997
L 3341 0
L 2766 0
L 2766 531
Q 2569 213 2275 61
Q 1981 -91 1556 -91
Q 1019 -91 701 211
Q 384 513 384 1019
Q 384 1609 779 1909
Q 1175 2209 1959 2209
L 2766 2209
L 2766 2266
Q 2766 2663 2505 2880
Q 2244 3097 1772 3097
Q 1472 3097 1187 3025
Q 903 2953 641 2809
L 641 3341
Q 956 3463 1253 3523
Q 1550 3584 1831 3584
Q 2591 3584 2966 3190
Q 3341 2797 3341 1997
z
" transform="scale(0.015625)"/>
     <path id="DejaVuSans-4f" d="M 603 4863
L 1178 4863
L 1178 0
L 603 0
L 603 4863
z
" transform="scale(0.015625)"/>
     <path id="DejaVuSans-3" transform="scale(0.015625)"/>
     <path id="DejaVuSans-55" d="M 2631 2963
Q 2534 3019 2420 3045
Q 2306 3072 2169 3072
Q 1681 3072 1420 2755
Q 1159 2438 1159 1844
L 1159 0
L 581 0
L 581 3500
L 1159 3500
L 1159 2956
Q 1341 3275 1631 3429
Q 1922 3584 2338 3584
Q 2397 3584 2469 3576
Q 2541 3569 2628 3553
L 2631 2963
z
" transform="scale(0.015625)"/>
     <path id="DejaVuSans-48" d="M 3597 1894
L 3597 1613
L 953 1613
Q 991 1019 1311 708
Q 1631 397 2203 397
Q 2534 397 2845 478
Q 3156 559 3463 722
L 3463 178
Q 3153 47 2828 -22
Q 2503 -91 2169 -91
Q 1331 -91 842 396
Q 353 884 353 1716
Q 353 2575 817 3079
Q 1281 3584 2069 3584
Q 2775 3584 3186 3129
Q 3597 2675 3597 1894
z
M 3022 2063
Q 3016 2534 2758 2815
Q 2500 3097 2075 3097
Q 1594 3097 1305 2825
Q 1016 2553 972 2059
L 3022 2063
z
" transform="scale(0.015625)"/>
     <path id="DejaVuSans-46" d="M 3122 3366
L 3122 2828
Q 2878 2963 2633 3030
Q 2388 3097 2138 3097
Q 1578 3097 1268 2742
Q 959 2388 959 1747
Q 959 1106 1268 751
Q 1578 397 2138 397
Q 2388 397 2633 464
Q 2878 531 3122 666
L 3122 134
Q 2881 22 2623 -34
Q 2366 -91 2075 -91
Q 1284 -91 818 406
Q 353 903 353 1747
Q 353 2603 823 3093
Q 1294 3584 2113 3584
Q 2378 3584 2631 3529
Q 2884 3475 3122 3366
z
" transform="scale(0.015625)"/>
     <path id="DejaVuSans-52" d="M 1959 3097
Q 1497 3097 1228 2736
Q 959 2375 959 1747
Q 959 1119 1226 758
Q 1494 397 1959 397
Q 2419 397 2687 759
Q 2956 1122 2956 1747
Q 2956 2369 2687 2733
Q 2419 3097 1959 3097
z
M 1959 3584
Q 2709 3584 3137 3096
Q 3566 2609 3566 1747
Q 3566 888 3137 398
Q 2709 -91 1959 -91
Q 1206 -91 779 398
Q 353 888 353 1747
Q 353 2609 779 3096
Q 1206 3584 1959 3584
z
" transform="scale(0.015625)"/>
     <path id="DejaVuSans-47" d="M 2906 2969
L 2906 4863
L 3481 4863
L 3481 0
L 2906 0
L 2906 525
Q 2725 213 2448 61
Q 2172 -91 1784 -91
Q 1150 -91 751 415
Q 353 922 353 1747
Q 353 2572 751 3078
Q 1150 3584 1784 3584
Q 2172 3584 2448 3432
Q 2725 3281 2906 2969
z
M 947 1747
Q 947 1113 1208 752
Q 1469 391 1925 391
Q 2381 391 2643 752
Q 2906 1113 2906 1747
Q 2906 2381 2643 2742
Q 2381 3103 1925 3103
Q 1469 3103 1208 2742
Q 947 2381 947 1747
z
" transform="scale(0.015625)"/>
     <path id="DejaVuSans-56" d="M 2834 3397
L 2834 2853
Q 2591 2978 2328 3040
Q 2066 3103 1784 3103
Q 1356 3103 1142 2972
Q 928 2841 928 2578
Q 928 2378 1081 2264
Q 1234 2150 1697 2047
L 1894 2003
Q 2506 1872 2764 1633
Q 3022 1394 3022 966
Q 3022 478 2636 193
Q 2250 -91 1575 -91
Q 1294 -91 989 -36
Q 684 19 347 128
L 347 722
Q 666 556 975 473
Q 1284 391 1588 391
Q 1994 391 2212 530
Q 2431 669 2431 922
Q 2431 1156 2273 1281
Q 2116 1406 1581 1522
L 1381 1569
Q 847 1681 609 1914
Q 372 2147 372 2553
Q 372 3047 722 3315
Q 1072 3584 1716 3584
Q 2034 3584 2315 3537
Q 2597 3491 2834 3397
z
" transform="scale(0.015625)"/>
     <path id="DejaVuSans-49" d="M 2375 4863
L 2375 4384
L 1825 4384
Q 1516 4384 1395 4259
Q 1275 4134 1275 3809
L 1275 3500
L 2222 3500
L 2222 3053
L 1275 3053
L 1275 0
L 697 0
L 697 3053
L 147 3053
L 147 3500
L 697 3500
L 697 3744
Q 697 4328 969 4595
Q 1241 4863 1831 4863
L 2375 4863
z
" transform="scale(0.015625)"/>
     <path id="DejaVuSans-50" d="M 3328 2828
Q 3544 3216 3844 3400
Q 4144 3584 4550 3584
Q 5097 3584 5394 3201
Q 5691 2819 5691 2113
L 5691 0
L 5113 0
L 5113 2094
Q 5113 2597 4934 2840
Q 4756 3084 4391 3084
Q 3944 3084 3684 2787
Q 3425 2491 3425 1978
L 3425 0
L 2847 0
L 2847 2094
Q 2847 2600 2669 2842
Q 2491 3084 2119 3084
Q 1678 3084 1418 2786
Q 1159 2488 1159 1978
L 1159 0
L 581 0
L 581 3500
L 1159 3500
L 1159 2956
Q 1356 3278 1631 3431
Q 1906 3584 2284 3584
Q 2666 3584 2933 3390
Q 3200 3197 3328 2828
z
" transform="scale(0.015625)"/>
     <path id="DejaVuSans-57" d="M 1172 4494
L 1172 3500
L 2356 3500
L 2356 3053
L 1172 3053
L 1172 1153
Q 1172 725 1289 603
Q 1406 481 1766 481
L 2356 481
L 2356 0
L 1766 0
Q 1100 0 847 248
Q 594 497 594 1153
L 594 3053
L 172 3053
L 172 3500
L 594 3500
L 594 4494
L 1172 4494
z
" transform="scale(0.015625)"/>
     <path id="DejaVuSans-4b" d="M 3513 2113
L 3513 0
L 2938 0
L 2938 2094
Q 2938 2591 2744 2837
Q 2550 3084 2163 3084
Q 1697 3084 1428 2787
Q 1159 2491 1159 1978
L 1159 0
L 581 0
L 581 4863
L 1159 4863
L 1159 2956
Q 1366 3272 1645 3428
Q 1925 3584 2291 3584
Q 2894 3584 3203 3211
Q 3513 2838 3513 2113
z
" transform="scale(0.015625)"/>
     <path id="DejaVuSans-32" d="M 2522 4238
Q 1834 4238 1429 3725
Q 1025 3213 1025 2328
Q 1025 1447 1429 934
Q 1834 422 2522 422
Q 3209 422 3611 934
Q 4013 1447 4013 2328
Q 4013 3213 3611 3725
Q 3209 4238 2522 4238
z
M 2522 4750
Q 3503 4750 4090 4092
Q 4678 3434 4678 2328
Q 4678 1225 4090 567
Q 3503 -91 2522 -91
Q 1538 -91 948 565
Q 359 1222 359 2328
Q 359 3434 948 4092
Q 1538 4750 2522 4750
z
" transform="scale(0.015625)"/>
     <path id="DejaVuSans-53" d="M 1159 525
L 1159 -1331
L 581 -1331
L 581 3500
L 1159 3500
L 1159 2969
Q 1341 3281 1617 3432
Q 1894 3584 2278 3584
Q 2916 3584 3314 3078
Q 3713 2572 3713 1747
Q 3713 922 3314 415
Q 2916 -91 2278 -91
Q 1894 -91 1617 61
Q 1341 213 1159 525
z
M 3116 1747
Q 3116 2381 2855 2742
Q 2594 3103 2138 3103
Q 1681 3103 1420 2742
Q 1159 2381 1159 1747
Q 1159 1113 1420 752
Q 1681 391 2138 391
Q 2594 391 2855 752
Q 3116 1113 3116 1747
z
" transform="scale(0.015625)"/>
     <path id="DejaVuSans-2c" d="M 628 4666
L 1259 4666
L 1259 0
L 628 0
L 628 4666
z
" transform="scale(0.015625)"/>
     <path id="DejaVuSans-35" d="M 2841 2188
Q 3044 2119 3236 1894
Q 3428 1669 3622 1275
L 4263 0
L 3584 0
L 2988 1197
Q 2756 1666 2539 1819
Q 2322 1972 1947 1972
L 1259 1972
L 1259 0
L 628 0
L 628 4666
L 2053 4666
Q 2853 4666 3247 4331
Q 3641 3997 3641 3322
Q 3641 2881 3436 2590
Q 3231 2300 2841 2188
z
M 1259 4147
L 1259 2491
L 2053 2491
Q 2509 2491 2742 2702
Q 2975 2913 2975 3322
Q 2975 3731 2742 3939
Q 2509 4147 2053 4147
L 1259 4147
z
" transform="scale(0.015625)"/>
     <path id="DejaVuSans-28" d="M 628 4666
L 3578 4666
L 3578 4134
L 1259 4134
L 1259 2753
L 3481 2753
L 3481 2222
L 1259 2222
L 1259 531
L 3634 531
L 3634 0
L 628 0
L 628 4666
z
" transform="scale(0.015625)"/>
     <path id="DejaVuSans-2a" d="M 3809 666
L 3809 1919
L 2778 1919
L 2778 2438
L 4434 2438
L 4434 434
Q 4069 175 3628 42
Q 3188 -91 2688 -91
Q 1594 -91 976 548
Q 359 1188 359 2328
Q 359 3472 976 4111
Q 1594 4750 2688 4750
Q 3144 4750 3555 4637
Q 3966 4525 4313 4306
L 4313 3634
Q 3963 3931 3569 4081
Q 3175 4231 2741 4231
Q 1884 4231 1454 3753
Q 1025 3275 1025 2328
Q 1025 1384 1454 906
Q 1884 428 2741 428
Q 3075 428 3337 486
Q 3600 544 3809 666
z
" transform="scale(0.015625)"/>
     <path id="DejaVuSans-33" d="M 1259 4147
L 1259 2394
L 2053 2394
Q 2494 2394 2734 2622
Q 2975 2850 2975 3272
Q 2975 3691 2734 3919
Q 2494 4147 2053 4147
L 1259 4147
z
M 628 4666
L 2053 4666
Q 2838 4666 3239 4311
Q 3641 3956 3641 3272
Q 3641 2581 3239 2228
Q 2838 1875 2053 1875
L 1259 1875
L 1259 0
L 628 0
L 628 4666
z
" transform="scale(0.015625)"/>
     <path id="DejaVuSans-10" d="M 313 2009
L 1997 2009
L 1997 1497
L 313 1497
L 313 2009
z
" transform="scale(0.015625)"/>
     <path id="DejaVuSans-1e" d="M 750 3309
L 1409 3309
L 1409 2516
L 750 2516
L 750 3309
z
M 750 794
L 1409 794
L 1409 256
L 897 -744
L 494 -744
L 750 256
L 750 794
z
" transform="scale(0.015625)"/>
     <path id="DejaVuSans-5c" d="M 2059 -325
Q 1816 -950 1584 -1140
Q 1353 -1331 966 -1331
L 506 -1331
L 506 -850
L 844 -850
Q 1081 -850 1212 -737
Q 1344 -625 1503 -206
L 1606 56
L 191 3500
L 800 3500
L 1894 763
L 2988 3500
L 3597 3500
L 2059 -325
z
" transform="scale(0.015625)"/>
     <path id="DejaVuSans-4c" d="M 603 3500
L 1178 3500
L 1178 0
L 603 0
L 603 3500
z
M 603 4863
L 1178 4863
L 1178 4134
L 603 4134
L 603 4863
z
" transform="scale(0.015625)"/>
     <path id="DejaVuSans-4a" d="M 2906 1791
Q 2906 2416 2648 2759
Q 2391 3103 1925 3103
Q 1463 3103 1205 2759
Q 947 2416 947 1791
Q 947 1169 1205 825
Q 1463 481 1925 481
Q 2391 481 2648 825
Q 2906 1169 2906 1791
z
M 3481 434
Q 3481 -459 3084 -895
Q 2688 -1331 1869 -1331
Q 1566 -1331 1297 -1286
Q 1028 -1241 775 -1147
L 775 -588
Q 1028 -725 1275 -790
Q 1522 -856 1778 -856
Q 2344 -856 2625 -561
Q 2906 -266 2906 331
L 2906 616
Q 2728 306 2450 153
Q 2172 0 1784 0
Q 1141 0 747 490
Q 353 981 353 1791
Q 353 2603 747 3093
Q 1141 3584 1784 3584
Q 2172 3584 2450 3431
Q 2728 3278 2906 2969
L 2906 3500
L 3481 3500
L 3481 434
z
" transform="scale(0.015625)"/>
     <path id="DejaVuSans-5b" d="M 3513 3500
L 2247 1797
L 3578 0
L 2900 0
L 1881 1375
L 863 0
L 184 0
L 1544 1831
L 300 3500
L 978 3500
L 1906 2253
L 2834 3500
L 3513 3500
z
" transform="scale(0.015625)"/>
    </defs>
    <use xlink:href="#DejaVuSans-24"/>
    <use xlink:href="#DejaVuSans-51" transform="translate(68.40625 0)"/>
    <use xlink:href="#DejaVuSans-51" transform="translate(131.78125 0)"/>
    <use xlink:href="#DejaVuSans-58" transform="translate(195.15625 0)"/>
    <use xlink:href="#DejaVuSans-44" transform="translate(258.53125 0)"/>
    <use xlink:href="#DejaVuSans-4f" transform="translate(319.8125 0)"/>
    <use xlink:href="#DejaVuSans-3" transform="translate(347.59375 0)"/>
    <use xlink:href="#DejaVuSans-55" transform="translate(379.375 0)"/>
    <use xlink:href="#DejaVuSans-48" transform="translate(418.28125 0)"/>
    <use xlink:href="#DejaVuSans-46" transform="translate(479.8125 0)"/>
    <use xlink:href="#DejaVuSans-52" transform="translate(534.796875 0)"/>
    <use xlink:href="#DejaVuSans-55" transform="translate(595.984375 0)"/>
    <use xlink:href="#DejaVuSans-47" transform="translate(635.34375 0)"/>
    <use xlink:href="#DejaVuSans-56" transform="translate(698.828125 0)"/>
    <use xlink:href="#DejaVuSans-3" transform="translate(750.921875 0)"/>
    <use xlink:href="#DejaVuSans-49" transform="translate(782.703125 0)"/>
    <use xlink:href="#DejaVuSans-55" transform="translate(817.90625 0)"/>
    <use xlink:href="#DejaVuSans-52" transform="translate(856.8125 0)"/>
    <use xlink:href="#DejaVuSans-50" transform="translate(918 0)"/>
    <use xlink:href="#DejaVuSans-3" transform="translate(1015.40625 0)"/>
    <use xlink:href="#DejaVuSans-57" transform="translate(1047.1875 0)"/>
    <use xlink:href="#DejaVuSans-4b" transform="translate(1086.390625 0)"/>
    <use xlink:href="#DejaVuSans-48" transform="translate(1149.765625 0)"/>
    <use xlink:href="#DejaVuSans-3" transform="translate(1211.296875 0)"/>
    <use xlink:href="#DejaVuSans-32" transform="translate(1243.078125 0)"/>
    <use xlink:href="#DejaVuSans-53" transform="translate(1321.796875 0)"/>
    <use xlink:href="#DejaVuSans-48" transform="translate(1385.28125 0)"/>
    <use xlink:href="#DejaVuSans-51" transform="translate(1446.8125 0)"/>
    <use xlink:href="#DejaVuSans-24" transform="translate(1510.1875 0)"/>
    <use xlink:href="#DejaVuSans-2c" transform="translate(1578.59375 0)"/>
    <use xlink:href="#DejaVuSans-35" transform="translate(1608.09375 0)"/>
    <use xlink:href="#DejaVuSans-28" transform="translate(1677.578125 0)"/>
    <use xlink:href="#DejaVuSans-3" transform="translate(1740.765625 0)"/>
    <use xlink:href="#DejaVuSans-2a" transform="translate(1772.546875 0)"/>
    <use xlink:href="#DejaVuSans-55" transform="translate(1850.03125 0)"/>
    <use xlink:href="#DejaVuSans-44" transform="translate(1891.140625 0)"/>
    <use xlink:href="#DejaVuSans-53" transform="translate(1952.421875 0)"/>
    <use xlink:href="#DejaVuSans-4b" transform="translate(2015.90625 0)"/>
    <use xlink:href="#DejaVuSans-3" transform="translate(2079.28125 0)"/>
    <use xlink:href="#DejaVuSans-24" transform="translate(2111.0625 0)"/>
    <use xlink:href="#DejaVuSans-33" transform="translate(2179.46875 0)"/>
    <use xlink:href="#DejaVuSans-2c" transform="translate(2239.765625 0)"/>
    <use xlink:href="#DejaVuSans-f" transform="translate(2269.265625 0)"/>
    <use xlink:href="#DejaVuSans-3" transform="translate(2301.046875 0)"/>
    <use xlink:href="#DejaVuSans-14" transform="translate(2332.828125 0)"/>
    <use xlink:href="#DejaVuSans-1c" transform="translate(2396.453125 0)"/>
    <use xlink:href="#DejaVuSans-19" transform="translate(2460.078125 0)"/>
    <use xlink:href="#DejaVuSans-13" transform="translate(2523.703125 0)"/>
    <use xlink:href="#DejaVuSans-10" transform="translate(2587.328125 0)"/>
    <use xlink:href="#DejaVuSans-15" transform="translate(2623.40625 0)"/>
    <use xlink:href="#DejaVuSans-13" transform="translate(2687.03125 0)"/>
    <use xlink:href="#DejaVuSans-15" transform="translate(2750.65625 0)"/>
    <use xlink:href="#DejaVuSans-19" transform="translate(2814.28125 0)"/>
    <use xlink:href="#DejaVuSans-1e" transform="translate(2877.90625 0)"/>
    <use xlink:href="#DejaVuSans-3" transform="translate(2911.59375 0)"/>
    <use xlink:href="#DejaVuSans-56" transform="translate(2943.375 0)"/>
    <use xlink:href="#DejaVuSans-5c" transform="translate(2995.46875 0)"/>
    <use xlink:href="#DejaVuSans-50" transform="translate(3054.65625 0)"/>
    <use xlink:href="#DejaVuSans-50" transform="translate(3152.0625 0)"/>
    <use xlink:href="#DejaVuSans-48" transform="translate(3249.46875 0)"/>
    <use xlink:href="#DejaVuSans-57" transform="translate(3311 0)"/>
    <use xlink:href="#DejaVuSans-55" transform="translate(3350.203125 0)"/>
    <use xlink:href="#DejaVuSans-4c" transform="translate(3391.3125 0)"/>
    <use xlink:href="#DejaVuSans-46" transform="translate(3419.09375 0)"/>
    <use xlink:href="#DejaVuSans-3" transform="translate(3474.078125 0)"/>
    <use xlink:href="#DejaVuSans-4f" transform="translate(3505.859375 0)"/>
    <use xlink:href="#DejaVuSans-52" transform="translate(3533.640625 0)"/>
    <use xlink:href="#DejaVuSans-4a" transform="translate(3594.828125 0)"/>
    <use xlink:href="#DejaVuSans-3" transform="translate(3658.3125 0)"/>
    <use xlink:href="#DejaVuSans-5c" transform="translate(3690.09375 0)"/>
    <use xlink:href="#DejaVuSans-10" transform="translate(3747.53125 0)"/>
    <use xlink:href="#DejaVuSans-44" transform="translate(3783.609375 0)"/>
    <use xlink:href="#DejaVuSans-5b" transform="translate(3844.890625 0)"/>
    <use xlink:href="#DejaVuSans-4c" transform="translate(3904.078125 0)"/>
    <use xlink:href="#DejaVuSans-56" transform="translate(3931.859375 0)"/>
   </g>
  </g>
  <g id="text_36">
   <!-- Source: OpenAIRE Graph API. Retrieved 2026-07-07. -->
   <g style="fill: #6b7280" transform="translate(345.980516 565.197891) scale(0.09 -0.09)">
    <defs>
     <path id="DejaVuSans-36" d="M 3425 4513
L 3425 3897
Q 3066 4069 2747 4153
Q 2428 4238 2131 4238
Q 1616 4238 1336 4038
Q 1056 3838 1056 3469
Q 1056 3159 1242 3001
Q 1428 2844 1947 2747
L 2328 2669
Q 3034 2534 3370 2195
Q 3706 1856 3706 1288
Q 3706 609 3251 259
Q 2797 -91 1919 -91
Q 1588 -91 1214 -16
Q 841 59 441 206
L 441 856
Q 825 641 1194 531
Q 1563 422 1919 422
Q 2459 422 2753 634
Q 3047 847 3047 1241
Q 3047 1584 2836 1778
Q 2625 1972 2144 2069
L 1759 2144
Q 1053 2284 737 2584
Q 422 2884 422 3419
Q 422 4038 858 4394
Q 1294 4750 2059 4750
Q 2388 4750 2728 4690
Q 3069 4631 3425 4513
z
" transform="scale(0.015625)"/>
     <path id="DejaVuSans-1d" d="M 750 794
L 1409 794
L 1409 0
L 750 0
L 750 794
z
M 750 3309
L 1409 3309
L 1409 2516
L 750 2516
L 750 3309
z
" transform="scale(0.015625)"/>
     <path id="DejaVuSans-11" d="M 684 794
L 1344 794
L 1344 0
L 684 0
L 684 794
z
" transform="scale(0.015625)"/>
     <path id="DejaVuSans-59" d="M 191 3500
L 800 3500
L 1894 563
L 2988 3500
L 3597 3500
L 2284 0
L 1503 0
L 191 3500
z
" transform="scale(0.015625)"/>
    </defs>
    <use xlink:href="#DejaVuSans-36"/>
    <use xlink:href="#DejaVuSans-52" transform="translate(63.484375 0)"/>
    <use xlink:href="#DejaVuSans-58" transform="translate(124.671875 0)"/>
    <use xlink:href="#DejaVuSans-55" transform="translate(188.046875 0)"/>
    <use xlink:href="#DejaVuSans-46" transform="translate(226.953125 0)"/>
    <use xlink:href="#DejaVuSans-48" transform="translate(281.9375 0)"/>
    <use xlink:href="#DejaVuSans-1d" transform="translate(343.46875 0)"/>
    <use xlink:href="#DejaVuSans-3" transform="translate(377.15625 0)"/>
    <use xlink:href="#DejaVuSans-32" transform="translate(408.9375 0)"/>
    <use xlink:href="#DejaVuSans-53" transform="translate(487.65625 0)"/>
    <use xlink:href="#DejaVuSans-48" transform="translate(551.140625 0)"/>
    <use xlink:href="#DejaVuSans-51" transform="translate(612.671875 0)"/>
    <use xlink:href="#DejaVuSans-24" transform="translate(676.046875 0)"/>
    <use xlink:href="#DejaVuSans-2c" transform="translate(744.453125 0)"/>
    <use xlink:href="#DejaVuSans-35" transform="translate(773.953125 0)"/>
    <use xlink:href="#DejaVuSans-28" transform="translate(843.4375 0)"/>
    <use xlink:href="#DejaVuSans-3" transform="translate(906.625 0)"/>
    <use xlink:href="#DejaVuSans-2a" transform="translate(938.40625 0)"/>
    <use xlink:href="#DejaVuSans-55" transform="translate(1015.890625 0)"/>
    <use xlink:href="#DejaVuSans-44" transform="translate(1057 0)"/>
    <use xlink:href="#DejaVuSans-53" transform="translate(1118.28125 0)"/>
    <use xlink:href="#DejaVuSans-4b" transform="translate(1181.765625 0)"/>
    <use xlink:href="#DejaVuSans-3" transform="translate(1245.140625 0)"/>
    <use xlink:href="#DejaVuSans-24" transform="translate(1276.921875 0)"/>
    <use xlink:href="#DejaVuSans-33" transform="translate(1345.328125 0)"/>
    <use xlink:href="#DejaVuSans-2c" transform="translate(1405.625 0)"/>
    <use xlink:href="#DejaVuSans-11" transform="translate(1435.125 0)"/>
    <use xlink:href="#DejaVuSans-3" transform="translate(1466.90625 0)"/>
    <use xlink:href="#DejaVuSans-35" transform="translate(1498.6875 0)"/>
    <use xlink:href="#DejaVuSans-48" transform="translate(1563.6875 0)"/>
    <use xlink:href="#DejaVuSans-57" transform="translate(1625.21875 0)"/>
    <use xlink:href="#DejaVuSans-55" transform="translate(1664.421875 0)"/>
    <use xlink:href="#DejaVuSans-4c" transform="translate(1705.53125 0)"/>
    <use xlink:href="#DejaVuSans-48" transform="translate(1733.3125 0)"/>
    <use xlink:href="#DejaVuSans-59" transform="translate(1794.84375 0)"/>
    <use xlink:href="#DejaVuSans-48" transform="translate(1854.03125 0)"/>
    <use xlink:href="#DejaVuSans-47" transform="translate(1915.5625 0)"/>
    <use xlink:href="#DejaVuSans-3" transform="translate(1979.046875 0)"/>
    <use xlink:href="#DejaVuSans-15" transform="translate(2010.828125 0)"/>
    <use xlink:href="#DejaVuSans-13" transform="translate(2074.453125 0)"/>
    <use xlink:href="#DejaVuSans-15" transform="translate(2138.078125 0)"/>
    <use xlink:href="#DejaVuSans-19" transform="translate(2201.703125 0)"/>
    <use xlink:href="#DejaVuSans-10" transform="translate(2265.328125 0)"/>
    <use xlink:href="#DejaVuSans-13" transform="translate(2301.40625 0)"/>
    <use xlink:href="#DejaVuSans-1a" transform="translate(2365.03125 0)"/>
    <use xlink:href="#DejaVuSans-10" transform="translate(2428.65625 0)"/>
    <use xlink:href="#DejaVuSans-13" transform="translate(2464.734375 0)"/>
    <use xlink:href="#DejaVuSans-1a" transform="translate(2528.359375 0)"/>
    <use xlink:href="#DejaVuSans-11" transform="translate(2591.984375 0)"/>
   </g>
  </g>
  <g id="text_37">
   <!-- Publication year -->
   <g transform="translate(415.829656 546.836484) scale(0.12 -0.12)">
    <defs>
     <path id="DejaVuSans-45" d="M 3116 1747
Q 3116 2381 2855 2742
Q 2594 3103 2138 3103
Q 1681 3103 1420 2742
Q 1159 2381 1159 1747
Q 1159 1113 1420 752
Q 1681 391 2138 391
Q 2594 391 2855 752
Q 3116 1113 3116 1747
z
M 1159 2969
Q 1341 3281 1617 3432
Q 1894 3584 2278 3584
Q 2916 3584 3314 3078
Q 3713 2572 3713 1747
Q 3713 922 3314 415
Q 2916 -91 2278 -91
Q 1894 -91 1617 61
Q 1341 213 1159 525
L 1159 0
L 581 0
L 581 4863
L 1159 4863
L 1159 2969
z
" transform="scale(0.015625)"/>
    </defs>
    <use xlink:href="#DejaVuSans-33"/>
    <use xlink:href="#DejaVuSans-58" transform="translate(58.546875 0)"/>
    <use xlink:href="#DejaVuSans-45" transform="translate(121.921875 0)"/>
    <use xlink:href="#DejaVuSans-4f" transform="translate(185.40625 0)"/>
    <use xlink:href="#DejaVuSans-4c" transform="translate(213.1875 0)"/>
    <use xlink:href="#DejaVuSans-46" transform="translate(240.96875 0)"/>
    <use xlink:href="#DejaVuSans-44" transform="translate(295.953125 0)"/>
    <use xlink:href="#DejaVuSans-57" transform="translate(357.234375 0)"/>
    <use xlink:href="#DejaVuSans-4c" transform="translate(396.4375 0)"/>
    <use xlink:href="#DejaVuSans-52" transform="translate(424.21875 0)"/>
    <use xlink:href="#DejaVuSans-51" transform="translate(485.40625 0)"/>
    <use xlink:href="#DejaVuSans-3" transform="translate(548.78125 0)"/>
    <use xlink:href="#DejaVuSans-5c" transform="translate(580.5625 0)"/>
    <use xlink:href="#DejaVuSans-48" transform="translate(639.75 0)"/>
    <use xlink:href="#DejaVuSans-44" transform="translate(701.28125 0)"/>
    <use xlink:href="#DejaVuSans-55" transform="translate(762.5625 0)"/>
   </g>
  </g>
  <g id="text_38">
   <!-- Number of records -->
   <g transform="translate(17.758125 354.774659) rotate(-90) scale(0.12 -0.12)">
    <defs>
     <path id="DejaVuSans-31" d="M 628 4666
L 1478 4666
L 3547 763
L 3547 4666
L 4159 4666
L 4159 0
L 3309 0
L 1241 3903
L 1241 0
L 628 0
L 628 4666
z
" transform="scale(0.015625)"/>
    </defs>
    <use xlink:href="#DejaVuSans-31"/>
    <use xlink:href="#DejaVuSans-58" transform="translate(74.8125 0)"/>
    <use xlink:href="#DejaVuSans-50" transform="translate(138.1875 0)"/>
    <use xlink:href="#DejaVuSans-45" transform="translate(235.59375 0)"/>
    <use xlink:href="#DejaVuSans-48" transform="translate(299.078125 0)"/>
    <use xlink:href="#DejaVuSans-55" transform="translate(360.609375 0)"/>
    <use xlink:href="#DejaVuSans-3" transform="translate(401.71875 0)"/>
    <use xlink:href="#DejaVuSans-52" transform="translate(433.5 0)"/>
    <use xlink:href="#DejaVuSans-49" transform="translate(494.6875 0)"/>
    <use xlink:href="#DejaVuSans-3" transform="translate(529.890625 0)"/>
    <use xlink:href="#DejaVuSans-55" transform="translate(561.671875 0)"/>
    <use xlink:href="#DejaVuSans-48" transform="translate(600.578125 0)"/>
    <use xlink:href="#DejaVuSans-46" transform="translate(662.109375 0)"/>
    <use xlink:href="#DejaVuSans-52" transform="translate(717.09375 0)"/>
    <use xlink:href="#DejaVuSans-55" transform="translate(778.28125 0)"/>
    <use xlink:href="#DejaVuSans-47" transform="translate(817.640625 0)"/>
    <use xlink:href="#DejaVuSans-56" transform="translate(881.125 0)"/>
   </g>
  </g>
  <g id="patch_4">
   <path d="M 331.886087 71.936319
L 348.634351 71.936319
L 348.634351 55.188056
L 331.886087 55.188056
z
" clip-path="url(#p31c25d185c)" style="fill: #9ca3af; stroke: #ffffff; stroke-width: 0.531736; stroke-linejoin: miter; stroke-linecap: square"/>
  </g>
  <g id="text_39">
   <!-- Before 2014 -->
   <g transform="translate(354.660219 66.056313) scale(0.096 -0.096)">
    <defs>
     <path id="DejaVuSans-25" d="M 1259 2228
L 1259 519
L 2272 519
Q 2781 519 3026 730
Q 3272 941 3272 1375
Q 3272 1813 3026 2020
Q 2781 2228 2272 2228
L 1259 2228
z
M 1259 4147
L 1259 2741
L 2194 2741
Q 2656 2741 2882 2914
Q 3109 3088 3109 3444
Q 3109 3797 2882 3972
Q 2656 4147 2194 4147
L 1259 4147
z
M 628 4666
L 2241 4666
Q 2963 4666 3353 4366
Q 3744 4066 3744 3513
Q 3744 3084 3544 2831
Q 3344 2578 2956 2516
Q 3422 2416 3680 2098
Q 3938 1781 3938 1306
Q 3938 681 3513 340
Q 3088 0 2303 0
L 628 0
L 628 4666
z
" transform="scale(0.015625)"/>
    </defs>
    <use xlink:href="#DejaVuSans-25"/>
    <use xlink:href="#DejaVuSans-48" transform="translate(68.609375 0)"/>
    <use xlink:href="#DejaVuSans-49" transform="translate(130.140625 0)"/>
    <use xlink:href="#DejaVuSans-52" transform="translate(165.34375 0)"/>
    <use xlink:href="#DejaVuSans-55" transform="translate(226.53125 0)"/>
    <use xlink:href="#DejaVuSans-48" transform="translate(265.4375 0)"/>
    <use xlink:href="#DejaVuSans-3" transform="translate(326.96875 0)"/>
    <use xlink:href="#DejaVuSans-15" transform="translate(358.75 0)"/>
    <use xlink:href="#DejaVuSans-13" transform="translate(422.375 0)"/>
    <use xlink:href="#DejaVuSans-14" transform="translate(486 0)"/>
    <use xlink:href="#DejaVuSans-17" transform="translate(549.625 0)"/>
   </g>
  </g>
  <g id="patch_5">
   <path d="M 419.798087 71.936319
L 436.546351 71.936319
L 436.546351 55.188056
L 419.798087 55.188056
z
" clip-path="url(#p8b0c35bfb6)" style="fill: #2a9d8f; stroke: #ffffff; stroke-width: 0.531736; stroke-linejoin: miter; stroke-linecap: square"/>
  </g>
  <g id="text_40">
   <!-- 2014 onward -->
   <g transform="translate(442.572219 66.056313) scale(0.096 -0.096)">
    <defs>
     <path id="DejaVuSans-5a" d="M 269 3500
L 844 3500
L 1563 769
L 2278 3500
L 2956 3500
L 3675 769
L 4391 3500
L 4966 3500
L 4050 0
L 3372 0
L 2619 2869
L 1863 0
L 1184 0
L 269 3500
z
" transform="scale(0.015625)"/>
    </defs>
    <use xlink:href="#DejaVuSans-15"/>
    <use xlink:href="#DejaVuSans-13" transform="translate(63.625 0)"/>
    <use xlink:href="#DejaVuSans-14" transform="translate(127.25 0)"/>
    <use xlink:href="#DejaVuSans-17" transform="translate(190.875 0)"/>
    <use xlink:href="#DejaVuSans-3" transform="translate(254.5 0)"/>
    <use xlink:href="#DejaVuSans-52" transform="translate(286.28125 0)"/>
    <use xlink:href="#DejaVuSans-51" transform="translate(347.46875 0)"/>
    <use xlink:href="#DejaVuSans-5a" transform="translate(410.84375 0)"/>
    <use xlink:href="#DejaVuSans-44" transform="translate(492.625 0)"/>
    <use xlink:href="#DejaVuSans-55" transform="translate(553.90625 0)"/>
    <use xlink:href="#DejaVuSans-47" transform="translate(593.265625 0)"/>
   </g>
  </g>
  <g id="patch_6">
   <path d="M 511.886087 71.936319
L 528.634351 71.936319
L 528.634351 55.188056
L 511.886087 55.188056
z
" clip-path="url(#p5ba1217bee)" style="fill: #e76f51; stroke: #ffffff; stroke-width: 0.531736; stroke-linejoin: miter; stroke-linecap: square"/>
  </g>
  <g id="text_41">
   <!-- 2026 to date -->
   <g transform="translate(534.660219 66.056313) scale(0.096 -0.096)">
    <use xlink:href="#DejaVuSans-15"/>
    <use xlink:href="#DejaVuSans-13" transform="translate(63.625 0)"/>
    <use xlink:href="#DejaVuSans-15" transform="translate(127.25 0)"/>
    <use xlink:href="#DejaVuSans-19" transform="translate(190.875 0)"/>
    <use xlink:href="#DejaVuSans-3" transform="translate(254.5 0)"/>
    <use xlink:href="#DejaVuSans-57" transform="translate(286.28125 0)"/>
    <use xlink:href="#DejaVuSans-52" transform="translate(325.484375 0)"/>
    <use xlink:href="#DejaVuSans-3" transform="translate(386.671875 0)"/>
    <use xlink:href="#DejaVuSans-47" transform="translate(418.453125 0)"/>
    <use xlink:href="#DejaVuSans-44" transform="translate(481.9375 0)"/>
    <use xlink:href="#DejaVuSans-57" transform="translate(543.21875 0)"/>
    <use xlink:href="#DejaVuSans-48" transform="translate(582.421875 0)"/>
   </g>
  </g>
 </g>
 <defs>
  <clipPath id="p096dccb8fd">
   <rect x="72.739938" y="99.122188" width="782.620063" height="399.318693"/>
  </clipPath>
  <clipPath id="p31c25d185c">
   <path d="M 331.620219 72.202188
L 331.620219 54.922188
L 348.900219 54.922188
L 348.900219 72.202188
"/>
  </clipPath>
  <clipPath id="p8b0c35bfb6">
   <path d="M 419.532219 72.202188
L 419.532219 54.922188
L 436.812219 54.922188
L 436.812219 72.202188
"/>
  </clipPath>
  <clipPath id="p5ba1217bee">
   <path d="M 511.620219 72.202188
L 511.620219 54.922188
L 528.900219 54.922188
L 528.900219 72.202188
"/>
  </clipPath>
 </defs>
</svg>
