<?xml version="1.0" encoding="utf-8" standalone="no"?>
<!DOCTYPE svg PUBLIC "-//W3C//DTD SVG 1.1//EN"
  "http://www.w3.org/Graphics/SVG/1.1/DTD/svg11.dtd">
<svg xmlns:xlink="http://www.w3.org/1999/xlink" width="864pt" height="576pt" viewBox="0 0 864 576" xmlns="http://www.w3.org/2000/svg" version="1.1">
 <metadata>
  <rdf:RDF xmlns:dc="http://purl.org/dc/elements/1.1/" xmlns:cc="http://creativecommons.org/ns#" xmlns:rdf="http://www.w3.org/1999/02/22-rdf-syntax-ns#">
   <cc:Work>
    <dc:type rdf:resource="http://purl.org/dc/dcmitype/StillImage"/>
    <dc:date>2026-07-07T16:58:30.664066</dc:date>
    <dc:format>image/svg+xml</dc:format>
    <dc:creator>
     <cc:Agent>
      <dc:title>Matplotlib v3.11.0, https://matplotlib.org/</dc:title>
     </cc:Agent>
    </dc:creator>
   </cc:Work>
  </rdf:RDF>
 </metadata>
 <defs>
  <style type="text/css">*{stroke-linejoin: round; stroke-linecap: butt}</style>
 </defs>
 <g id="figure_1">
  <g id="patch_1">
   <path d="M 0 576
L 864 576
L 864 0
L 0 0
z
" style="fill: #ffffff"/>
  </g>
  <g id="patch_2">
   <path d="M 0 576
L 864 576
L 864 0
L 0 0
z
" style="fill: #ffffff; stroke: #ffffff; stroke-linejoin: miter"/>
  </g>
  <g id="axes_1">
   <g id="patch_3">
    <path d="M 66.631938 498.44088
L 855.36 498.44088
L 855.36 99.122188
L 66.631938 99.122188
z
" style="fill: #ffffff"/>
   </g>
   <g id="matplotlib.axis_1">
    <g id="xtick_1">
     <g id="text_1">
      <!-- 1960 -->
      <g style="fill: #4d4d4d" transform="translate(52.275498 520.82919) rotate(-35) scale(0.096 -0.096)">
       <defs>
        <path id="DejaVuSans-14" d="M 794 531
L 1825 531
L 1825 4091
L 703 3866
L 703 4441
L 1819 4666
L 2450 4666
L 2450 531
L 3481 531
L 3481 0
L 794 0
L 794 531
z
" transform="scale(0.015625)"/>
        <path id="DejaVuSans-1c" d="M 703 97
L 703 672
Q 941 559 1184 500
Q 1428 441 1663 441
Q 2288 441 2617 861
Q 2947 1281 2994 2138
Q 2813 1869 2534 1725
Q 2256 1581 1919 1581
Q 1219 1581 811 2004
Q 403 2428 403 3163
Q 403 3881 828 4315
Q 1253 4750 1959 4750
Q 2769 4750 3195 4129
Q 3622 3509 3622 2328
Q 3622 1225 3098 567
Q 2575 -91 1691 -91
Q 1453 -91 1209 -44
Q 966 3 703 97
z
M 1959 2075
Q 2384 2075 2632 2365
Q 2881 2656 2881 3163
Q 2881 3666 2632 3958
Q 2384 4250 1959 4250
Q 1534 4250 1286 3958
Q 1038 3666 1038 3163
Q 1038 2656 1286 2365
Q 1534 2075 1959 2075
z
" transform="scale(0.015625)"/>
        <path id="DejaVuSans-19" d="M 2113 2584
Q 1688 2584 1439 2293
Q 1191 2003 1191 1497
Q 1191 994 1439 701
Q 1688 409 2113 409
Q 2538 409 2786 701
Q 3034 994 3034 1497
Q 3034 2003 2786 2293
Q 2538 2584 2113 2584
z
M 3366 4563
L 3366 3988
Q 3128 4100 2886 4159
Q 2644 4219 2406 4219
Q 1781 4219 1451 3797
Q 1122 3375 1075 2522
Q 1259 2794 1537 2939
Q 1816 3084 2150 3084
Q 2853 3084 3261 2657
Q 3669 2231 3669 1497
Q 3669 778 3244 343
Q 2819 -91 2113 -91
Q 1303 -91 875 529
Q 447 1150 447 2328
Q 447 3434 972 4092
Q 1497 4750 2381 4750
Q 2619 4750 2861 4703
Q 3103 4656 3366 4563
z
" transform="scale(0.015625)"/>
        <path id="DejaVuSans-13" d="M 2034 4250
Q 1547 4250 1301 3770
Q 1056 3291 1056 2328
Q 1056 1369 1301 889
Q 1547 409 2034 409
Q 2525 409 2770 889
Q 3016 1369 3016 2328
Q 3016 3291 2770 3770
Q 2525 4250 2034 4250
z
M 2034 4750
Q 2819 4750 3233 4129
Q 3647 3509 3647 2328
Q 3647 1150 3233 529
Q 2819 -91 2034 -91
Q 1250 -91 836 529
Q 422 1150 422 2328
Q 422 3509 836 4129
Q 1250 4750 2034 4750
z
" transform="scale(0.015625)"/>
       </defs>
       <use xlink:href="#DejaVuSans-14"/>
       <use xlink:href="#DejaVuSans-1c" transform="translate(63.625 0)"/>
       <use xlink:href="#DejaVuSans-19" transform="translate(127.25 0)"/>
       <use xlink:href="#DejaVuSans-13" transform="translate(190.875 0)"/>
      </g>
     </g>
    </g>
    <g id="xtick_2">
     <g id="text_2">
      <!-- 1965 -->
      <g style="fill: #4d4d4d" transform="translate(110.441285 520.82919) rotate(-35) scale(0.096 -0.096)">
       <defs>
        <path id="DejaVuSans-18" d="M 691 4666
L 3169 4666
L 3169 4134
L 1269 4134
L 1269 2991
Q 1406 3038 1543 3061
Q 1681 3084 1819 3084
Q 2600 3084 3056 2656
Q 3513 2228 3513 1497
Q 3513 744 3044 326
Q 2575 -91 1722 -91
Q 1428 -91 1123 -41
Q 819 9 494 109
L 494 744
Q 775 591 1075 516
Q 1375 441 1709 441
Q 2250 441 2565 725
Q 2881 1009 2881 1497
Q 2881 1984 2565 2268
Q 2250 2553 1709 2553
Q 1456 2553 1204 2497
Q 953 2441 691 2322
L 691 4666
z
" transform="scale(0.015625)"/>
       </defs>
       <use xlink:href="#DejaVuSans-14"/>
       <use xlink:href="#DejaVuSans-1c" transform="translate(63.625 0)"/>
       <use xlink:href="#DejaVuSans-19" transform="translate(127.25 0)"/>
       <use xlink:href="#DejaVuSans-18" transform="translate(190.875 0)"/>
      </g>
     </g>
    </g>
    <g id="xtick_3">
     <g id="text_3">
      <!-- 1970 -->
      <g style="fill: #4d4d4d" transform="translate(168.607071 520.82919) rotate(-35) scale(0.096 -0.096)">
       <defs>
        <path id="DejaVuSans-1a" d="M 525 4666
L 3525 4666
L 3525 4397
L 1831 0
L 1172 0
L 2766 4134
L 525 4134
L 525 4666
z
" transform="scale(0.015625)"/>
       </defs>
       <use xlink:href="#DejaVuSans-14"/>
       <use xlink:href="#DejaVuSans-1c" transform="translate(63.625 0)"/>
       <use xlink:href="#DejaVuSans-1a" transform="translate(127.25 0)"/>
       <use xlink:href="#DejaVuSans-13" transform="translate(190.875 0)"/>
      </g>
     </g>
    </g>
    <g id="xtick_4">
     <g id="text_4">
      <!-- 1975 -->
      <g style="fill: #4d4d4d" transform="translate(226.772857 520.82919) rotate(-35) scale(0.096 -0.096)">
       <use xlink:href="#DejaVuSans-14"/>
       <use xlink:href="#DejaVuSans-1c" transform="translate(63.625 0)"/>
       <use xlink:href="#DejaVuSans-1a" transform="translate(127.25 0)"/>
       <use xlink:href="#DejaVuSans-18" transform="translate(190.875 0)"/>
      </g>
     </g>
    </g>
    <g id="xtick_5">
     <g id="text_5">
      <!-- 1980 -->
      <g style="fill: #4d4d4d" transform="translate(284.938644 520.82919) rotate(-35) scale(0.096 -0.096)">
       <defs>
        <path id="DejaVuSans-1b" d="M 2034 2216
Q 1584 2216 1326 1975
Q 1069 1734 1069 1313
Q 1069 891 1326 650
Q 1584 409 2034 409
Q 2484 409 2743 651
Q 3003 894 3003 1313
Q 3003 1734 2745 1975
Q 2488 2216 2034 2216
z
M 1403 2484
Q 997 2584 770 2862
Q 544 3141 544 3541
Q 544 4100 942 4425
Q 1341 4750 2034 4750
Q 2731 4750 3128 4425
Q 3525 4100 3525 3541
Q 3525 3141 3298 2862
Q 3072 2584 2669 2484
Q 3125 2378 3379 2068
Q 3634 1759 3634 1313
Q 3634 634 3220 271
Q 2806 -91 2034 -91
Q 1263 -91 848 271
Q 434 634 434 1313
Q 434 1759 690 2068
Q 947 2378 1403 2484
z
M 1172 3481
Q 1172 3119 1398 2916
Q 1625 2713 2034 2713
Q 2441 2713 2670 2916
Q 2900 3119 2900 3481
Q 2900 3844 2670 4047
Q 2441 4250 2034 4250
Q 1625 4250 1398 4047
Q 1172 3844 1172 3481
z
" transform="scale(0.015625)"/>
       </defs>
       <use xlink:href="#DejaVuSans-14"/>
       <use xlink:href="#DejaVuSans-1c" transform="translate(63.625 0)"/>
       <use xlink:href="#DejaVuSans-1b" transform="translate(127.25 0)"/>
       <use xlink:href="#DejaVuSans-13" transform="translate(190.875 0)"/>
      </g>
     </g>
    </g>
    <g id="xtick_6">
     <g id="text_6">
      <!-- 1985 -->
      <g style="fill: #4d4d4d" transform="translate(343.10443 520.82919) rotate(-35) scale(0.096 -0.096)">
       <use xlink:href="#DejaVuSans-14"/>
       <use xlink:href="#DejaVuSans-1c" transform="translate(63.625 0)"/>
       <use xlink:href="#DejaVuSans-1b" transform="translate(127.25 0)"/>
       <use xlink:href="#DejaVuSans-18" transform="translate(190.875 0)"/>
      </g>
     </g>
    </g>
    <g id="xtick_7">
     <g id="text_7">
      <!-- 1990 -->
      <g style="fill: #4d4d4d" transform="translate(401.270216 520.82919) rotate(-35) scale(0.096 -0.096)">
       <use xlink:href="#DejaVuSans-14"/>
       <use xlink:href="#DejaVuSans-1c" transform="translate(63.625 0)"/>
       <use xlink:href="#DejaVuSans-1c" transform="translate(127.25 0)"/>
       <use xlink:href="#DejaVuSans-13" transform="translate(190.875 0)"/>
      </g>
     </g>
    </g>
    <g id="xtick_8">
     <g id="text_8">
      <!-- 1995 -->
      <g style="fill: #4d4d4d" transform="translate(459.436003 520.82919) rotate(-35) scale(0.096 -0.096)">
       <use xlink:href="#DejaVuSans-14"/>
       <use xlink:href="#DejaVuSans-1c" transform="translate(63.625 0)"/>
       <use xlink:href="#DejaVuSans-1c" transform="translate(127.25 0)"/>
       <use xlink:href="#DejaVuSans-18" transform="translate(190.875 0)"/>
      </g>
     </g>
    </g>
    <g id="xtick_9">
     <g id="text_9">
      <!-- 2000 -->
      <g style="fill: #4d4d4d" transform="translate(517.601789 520.82919) rotate(-35) scale(0.096 -0.096)">
       <defs>
        <path id="DejaVuSans-15" d="M 1228 531
L 3431 531
L 3431 0
L 469 0
L 469 531
Q 828 903 1448 1529
Q 2069 2156 2228 2338
Q 2531 2678 2651 2914
Q 2772 3150 2772 3378
Q 2772 3750 2511 3984
Q 2250 4219 1831 4219
Q 1534 4219 1204 4116
Q 875 4013 500 3803
L 500 4441
Q 881 4594 1212 4672
Q 1544 4750 1819 4750
Q 2544 4750 2975 4387
Q 3406 4025 3406 3419
Q 3406 3131 3298 2873
Q 3191 2616 2906 2266
Q 2828 2175 2409 1742
Q 1991 1309 1228 531
z
" transform="scale(0.015625)"/>
       </defs>
       <use xlink:href="#DejaVuSans-15"/>
       <use xlink:href="#DejaVuSans-13" transform="translate(63.625 0)"/>
       <use xlink:href="#DejaVuSans-13" transform="translate(127.25 0)"/>
       <use xlink:href="#DejaVuSans-13" transform="translate(190.875 0)"/>
      </g>
     </g>
    </g>
    <g id="xtick_10">
     <g id="text_10">
      <!-- 2005 -->
      <g style="fill: #4d4d4d" transform="translate(575.767575 520.82919) rotate(-35) scale(0.096 -0.096)">
       <use xlink:href="#DejaVuSans-15"/>
       <use xlink:href="#DejaVuSans-13" transform="translate(63.625 0)"/>
       <use xlink:href="#DejaVuSans-13" transform="translate(127.25 0)"/>
       <use xlink:href="#DejaVuSans-18" transform="translate(190.875 0)"/>
      </g>
     </g>
    </g>
    <g id="xtick_11">
     <g id="text_11">
      <!-- 2010 -->
      <g style="fill: #4d4d4d" transform="translate(633.933362 520.82919) rotate(-35) scale(0.096 -0.096)">
       <use xlink:href="#DejaVuSans-15"/>
       <use xlink:href="#DejaVuSans-13" transform="translate(63.625 0)"/>
       <use xlink:href="#DejaVuSans-14" transform="translate(127.25 0)"/>
       <use xlink:href="#DejaVuSans-13" transform="translate(190.875 0)"/>
      </g>
     </g>
    </g>
    <g id="xtick_12">
     <g id="text_12">
      <!-- 2015 -->
      <g style="fill: #4d4d4d" transform="translate(692.099148 520.82919) rotate(-35) scale(0.096 -0.096)">
       <use xlink:href="#DejaVuSans-15"/>
       <use xlink:href="#DejaVuSans-13" transform="translate(63.625 0)"/>
       <use xlink:href="#DejaVuSans-14" transform="translate(127.25 0)"/>
       <use xlink:href="#DejaVuSans-18" transform="translate(190.875 0)"/>
      </g>
     </g>
    </g>
    <g id="xtick_13">
     <g id="text_13">
      <!-- 2020 -->
      <g style="fill: #4d4d4d" transform="translate(750.264934 520.82919) rotate(-35) scale(0.096 -0.096)">
       <use xlink:href="#DejaVuSans-15"/>
       <use xlink:href="#DejaVuSans-13" transform="translate(63.625 0)"/>
       <use xlink:href="#DejaVuSans-15" transform="translate(127.25 0)"/>
       <use xlink:href="#DejaVuSans-13" transform="translate(190.875 0)"/>
      </g>
     </g>
    </g>
    <g id="xtick_14">
     <g id="text_14">
      <!-- 2026 -->
      <g style="fill: #4d4d4d" transform="translate(820.063878 520.82919) rotate(-35) scale(0.096 -0.096)">
       <use xlink:href="#DejaVuSans-15"/>
       <use xlink:href="#DejaVuSans-13" transform="translate(63.625 0)"/>
       <use xlink:href="#DejaVuSans-15" transform="translate(127.25 0)"/>
       <use xlink:href="#DejaVuSans-19" transform="translate(190.875 0)"/>
      </g>
     </g>
    </g>
    <g id="xtick_15"/>
    <g id="xtick_16"/>
    <g id="xtick_17"/>
    <g id="xtick_18"/>
    <g id="xtick_19"/>
    <g id="xtick_20"/>
    <g id="xtick_21"/>
    <g id="xtick_22"/>
    <g id="xtick_23"/>
    <g id="xtick_24"/>
    <g id="xtick_25"/>
    <g id="xtick_26"/>
    <g id="xtick_27"/>
   </g>
   <g id="matplotlib.axis_2">
    <g id="ytick_1">
     <g id="line2d_1">
      <path d="M 66.631938 498.44088
L 855.36 498.44088
" clip-path="url(#pdb8534879f)" style="fill: none; stroke: #d8dee4; stroke-width: 0.45; stroke-linecap: square"/>
     </g>
     <g id="text_15">
      <!-- 0 -->
      <g style="fill: #4d4d4d" transform="translate(58.123938 502.087755) scale(0.096 -0.096)">
       <use xlink:href="#DejaVuSans-13"/>
      </g>
     </g>
    </g>
    <g id="ytick_2">
     <g id="line2d_2">
      <path d="M 66.631938 409.005479
L 855.36 409.005479
" clip-path="url(#pdb8534879f)" style="fill: none; stroke: #d8dee4; stroke-width: 0.45; stroke-linecap: square"/>
     </g>
     <g id="text_16">
      <!-- 20,000 -->
      <g style="fill: #4d4d4d" transform="translate(30.640938 412.652354) scale(0.096 -0.096)">
       <defs>
        <path id="DejaVuSans-f" d="M 750 794
L 1409 794
L 1409 256
L 897 -744
L 494 -744
L 750 256
L 750 794
z
" transform="scale(0.015625)"/>
       </defs>
       <use xlink:href="#DejaVuSans-15"/>
       <use xlink:href="#DejaVuSans-13" transform="translate(63.625 0)"/>
       <use xlink:href="#DejaVuSans-f" transform="translate(127.25 0)"/>
       <use xlink:href="#DejaVuSans-13" transform="translate(159.03125 0)"/>
       <use xlink:href="#DejaVuSans-13" transform="translate(222.65625 0)"/>
       <use xlink:href="#DejaVuSans-13" transform="translate(286.28125 0)"/>
      </g>
     </g>
    </g>
    <g id="ytick_3">
     <g id="line2d_3">
      <path d="M 66.631938 319.570077
L 855.36 319.570077
" clip-path="url(#pdb8534879f)" style="fill: none; stroke: #d8dee4; stroke-width: 0.45; stroke-linecap: square"/>
     </g>
     <g id="text_17">
      <!-- 40,000 -->
      <g style="fill: #4d4d4d" transform="translate(30.640938 323.216952) scale(0.096 -0.096)">
       <defs>
        <path id="DejaVuSans-17" d="M 2419 4116
L 825 1625
L 2419 1625
L 2419 4116
z
M 2253 4666
L 3047 4666
L 3047 1625
L 3713 1625
L 3713 1100
L 3047 1100
L 3047 0
L 2419 0
L 2419 1100
L 313 1100
L 313 1709
L 2253 4666
z
" transform="scale(0.015625)"/>
       </defs>
       <use xlink:href="#DejaVuSans-17"/>
       <use xlink:href="#DejaVuSans-13" transform="translate(63.625 0)"/>
       <use xlink:href="#DejaVuSans-f" transform="translate(127.25 0)"/>
       <use xlink:href="#DejaVuSans-13" transform="translate(159.03125 0)"/>
       <use xlink:href="#DejaVuSans-13" transform="translate(222.65625 0)"/>
       <use xlink:href="#DejaVuSans-13" transform="translate(286.28125 0)"/>
      </g>
     </g>
    </g>
    <g id="ytick_4">
     <g id="line2d_4">
      <path d="M 66.631938 230.134676
L 855.36 230.134676
" clip-path="url(#pdb8534879f)" style="fill: none; stroke: #d8dee4; stroke-width: 0.45; stroke-linecap: square"/>
     </g>
     <g id="text_18">
      <!-- 60,000 -->
      <g style="fill: #4d4d4d" transform="translate(30.640938 233.781551) scale(0.096 -0.096)">
       <use xlink:href="#DejaVuSans-19"/>
       <use xlink:href="#DejaVuSans-13" transform="translate(63.625 0)"/>
       <use xlink:href="#DejaVuSans-f" transform="translate(127.25 0)"/>
       <use xlink:href="#DejaVuSans-13" transform="translate(159.03125 0)"/>
       <use xlink:href="#DejaVuSans-13" transform="translate(222.65625 0)"/>
       <use xlink:href="#DejaVuSans-13" transform="translate(286.28125 0)"/>
      </g>
     </g>
    </g>
    <g id="ytick_5">
     <g id="line2d_5">
      <path d="M 66.631938 140.699275
L 855.36 140.699275
" clip-path="url(#pdb8534879f)" style="fill: none; stroke: #d8dee4; stroke-width: 0.45; stroke-linecap: square"/>
     </g>
     <g id="text_19">
      <!-- 80,000 -->
      <g style="fill: #4d4d4d" transform="translate(30.640938 144.34615) scale(0.096 -0.096)">
       <use xlink:href="#DejaVuSans-1b"/>
       <use xlink:href="#DejaVuSans-13" transform="translate(63.625 0)"/>
       <use xlink:href="#DejaVuSans-f" transform="translate(127.25 0)"/>
       <use xlink:href="#DejaVuSans-13" transform="translate(159.03125 0)"/>
       <use xlink:href="#DejaVuSans-13" transform="translate(222.65625 0)"/>
       <use xlink:href="#DejaVuSans-13" transform="translate(286.28125 0)"/>
      </g>
     </g>
    </g>
    <g id="ytick_6"/>
    <g id="ytick_7"/>
    <g id="ytick_8"/>
    <g id="ytick_9"/>
   </g>
   <g id="PolyCollection_1">
    <path d="M 68.842237 498.44088
L 68.842237 498.002647
L 78.381426 498.002647
L 78.381426 498.44088
z
" clip-path="url(#pdb8534879f)" style="fill: #9ca3af; stroke: #ffffff; stroke-width: 0.531736"/>
    <path d="M 80.475395 498.44088
L 80.475395 498.44088
L 90.014584 498.44088
L 90.014584 498.44088
z
" clip-path="url(#pdb8534879f)" style="fill: #9ca3af; stroke: #ffffff; stroke-width: 0.531736"/>
    <path d="M 92.108552 498.44088
L 92.108552 498.41405
L 101.647741 498.41405
L 101.647741 498.44088
z
" clip-path="url(#pdb8534879f)" style="fill: #9ca3af; stroke: #ffffff; stroke-width: 0.531736"/>
    <path d="M 103.741709 498.44088
L 103.741709 498.436408
L 113.280898 498.436408
L 113.280898 498.44088
z
" clip-path="url(#pdb8534879f)" style="fill: #9ca3af; stroke: #ffffff; stroke-width: 0.531736"/>
    <path d="M 115.374866 498.44088
L 115.374866 498.44088
L 124.914055 498.44088
L 124.914055 498.44088
z
" clip-path="url(#pdb8534879f)" style="fill: #9ca3af; stroke: #ffffff; stroke-width: 0.531736"/>
    <path d="M 127.008024 498.44088
L 127.008024 498.44088
L 136.547213 498.44088
L 136.547213 498.44088
z
" clip-path="url(#pdb8534879f)" style="fill: #9ca3af; stroke: #ffffff; stroke-width: 0.531736"/>
    <path d="M 138.641181 498.44088
L 138.641181 498.431937
L 148.18037 498.431937
L 148.18037 498.44088
z
" clip-path="url(#pdb8534879f)" style="fill: #9ca3af; stroke: #ffffff; stroke-width: 0.531736"/>
    <path d="M 150.274338 498.44088
L 150.274338 498.427465
L 159.813527 498.427465
L 159.813527 498.44088
z
" clip-path="url(#pdb8534879f)" style="fill: #9ca3af; stroke: #ffffff; stroke-width: 0.531736"/>
    <path d="M 161.907495 498.44088
L 161.907495 498.44088
L 171.446684 498.44088
L 171.446684 498.44088
z
" clip-path="url(#pdb8534879f)" style="fill: #9ca3af; stroke: #ffffff; stroke-width: 0.531736"/>
    <path d="M 173.540653 498.44088
L 173.540653 498.44088
L 183.079842 498.44088
L 183.079842 498.44088
z
" clip-path="url(#pdb8534879f)" style="fill: #9ca3af; stroke: #ffffff; stroke-width: 0.531736"/>
    <path d="M 185.17381 498.44088
L 185.17381 498.409578
L 194.712999 498.409578
L 194.712999 498.44088
z
" clip-path="url(#pdb8534879f)" style="fill: #9ca3af; stroke: #ffffff; stroke-width: 0.531736"/>
    <path d="M 196.806967 498.44088
L 196.806967 498.44088
L 206.346156 498.44088
L 206.346156 498.44088
z
" clip-path="url(#pdb8534879f)" style="fill: #9ca3af; stroke: #ffffff; stroke-width: 0.531736"/>
    <path d="M 208.440125 498.44088
L 208.440125 498.431937
L 217.979314 498.431937
L 217.979314 498.44088
z
" clip-path="url(#pdb8534879f)" style="fill: #9ca3af; stroke: #ffffff; stroke-width: 0.531736"/>
    <path d="M 220.073282 498.44088
L 220.073282 498.436408
L 229.612471 498.436408
L 229.612471 498.44088
z
" clip-path="url(#pdb8534879f)" style="fill: #9ca3af; stroke: #ffffff; stroke-width: 0.531736"/>
    <path d="M 231.706439 498.44088
L 231.706439 498.436408
L 241.245628 498.436408
L 241.245628 498.44088
z
" clip-path="url(#pdb8534879f)" style="fill: #9ca3af; stroke: #ffffff; stroke-width: 0.531736"/>
    <path d="M 243.339596 498.44088
L 243.339596 498.418521
L 252.878785 498.418521
L 252.878785 498.44088
z
" clip-path="url(#pdb8534879f)" style="fill: #9ca3af; stroke: #ffffff; stroke-width: 0.531736"/>
    <path d="M 254.972754 498.44088
L 254.972754 498.427465
L 264.511943 498.427465
L 264.511943 498.44088
z
" clip-path="url(#pdb8534879f)" style="fill: #9ca3af; stroke: #ffffff; stroke-width: 0.531736"/>
    <path d="M 266.605911 498.44088
L 266.605911 498.422993
L 276.1451 498.422993
L 276.1451 498.44088
z
" clip-path="url(#pdb8534879f)" style="fill: #9ca3af; stroke: #ffffff; stroke-width: 0.531736"/>
    <path d="M 278.239068 498.44088
L 278.239068 498.41405
L 287.778257 498.41405
L 287.778257 498.44088
z
" clip-path="url(#pdb8534879f)" style="fill: #9ca3af; stroke: #ffffff; stroke-width: 0.531736"/>
    <path d="M 289.872225 498.44088
L 289.872225 498.427465
L 299.411414 498.427465
L 299.411414 498.44088
z
" clip-path="url(#pdb8534879f)" style="fill: #9ca3af; stroke: #ffffff; stroke-width: 0.531736"/>
    <path d="M 301.505383 498.44088
L 301.505383 498.418521
L 311.044572 498.418521
L 311.044572 498.44088
z
" clip-path="url(#pdb8534879f)" style="fill: #9ca3af; stroke: #ffffff; stroke-width: 0.531736"/>
    <path d="M 313.13854 498.44088
L 313.13854 498.418521
L 322.677729 498.418521
L 322.677729 498.44088
z
" clip-path="url(#pdb8534879f)" style="fill: #9ca3af; stroke: #ffffff; stroke-width: 0.531736"/>
    <path d="M 324.771697 498.44088
L 324.771697 498.422993
L 334.310886 498.422993
L 334.310886 498.44088
z
" clip-path="url(#pdb8534879f)" style="fill: #9ca3af; stroke: #ffffff; stroke-width: 0.531736"/>
    <path d="M 336.404854 498.44088
L 336.404854 498.396163
L 345.944043 498.396163
L 345.944043 498.44088
z
" clip-path="url(#pdb8534879f)" style="fill: #9ca3af; stroke: #ffffff; stroke-width: 0.531736"/>
    <path d="M 348.038012 498.44088
L 348.038012 498.427465
L 357.577201 498.427465
L 357.577201 498.44088
z
" clip-path="url(#pdb8534879f)" style="fill: #9ca3af; stroke: #ffffff; stroke-width: 0.531736"/>
    <path d="M 359.671169 498.44088
L 359.671169 498.409578
L 369.210358 498.409578
L 369.210358 498.44088
z
" clip-path="url(#pdb8534879f)" style="fill: #9ca3af; stroke: #ffffff; stroke-width: 0.531736"/>
    <path d="M 371.304326 498.44088
L 371.304326 498.418521
L 380.843515 498.418521
L 380.843515 498.44088
z
" clip-path="url(#pdb8534879f)" style="fill: #9ca3af; stroke: #ffffff; stroke-width: 0.531736"/>
    <path d="M 382.937484 498.44088
L 382.937484 498.396163
L 392.476672 498.396163
L 392.476672 498.44088
z
" clip-path="url(#pdb8534879f)" style="fill: #9ca3af; stroke: #ffffff; stroke-width: 0.531736"/>
    <path d="M 394.570641 498.44088
L 394.570641 498.36486
L 404.10983 498.36486
L 404.10983 498.44088
z
" clip-path="url(#pdb8534879f)" style="fill: #9ca3af; stroke: #ffffff; stroke-width: 0.531736"/>
    <path d="M 406.203798 498.44088
L 406.203798 498.342501
L 415.742987 498.342501
L 415.742987 498.44088
z
" clip-path="url(#pdb8534879f)" style="fill: #9ca3af; stroke: #ffffff; stroke-width: 0.531736"/>
    <path d="M 417.836955 498.44088
L 417.836955 498.369332
L 427.376144 498.369332
L 427.376144 498.44088
z
" clip-path="url(#pdb8534879f)" style="fill: #9ca3af; stroke: #ffffff; stroke-width: 0.531736"/>
    <path d="M 429.470113 498.44088
L 429.470113 498.355917
L 439.009302 498.355917
L 439.009302 498.44088
z
" clip-path="url(#pdb8534879f)" style="fill: #9ca3af; stroke: #ffffff; stroke-width: 0.531736"/>
    <path d="M 441.10327 498.44088
L 441.10327 498.159159
L 450.642459 498.159159
L 450.642459 498.44088
z
" clip-path="url(#pdb8534879f)" style="fill: #9ca3af; stroke: #ffffff; stroke-width: 0.531736"/>
    <path d="M 452.736427 498.44088
L 452.736427 498.275425
L 462.275616 498.275425
L 462.275616 498.44088
z
" clip-path="url(#pdb8534879f)" style="fill: #9ca3af; stroke: #ffffff; stroke-width: 0.531736"/>
    <path d="M 464.369584 498.44088
L 464.369584 498.248594
L 473.908773 498.248594
L 473.908773 498.44088
z
" clip-path="url(#pdb8534879f)" style="fill: #9ca3af; stroke: #ffffff; stroke-width: 0.531736"/>
    <path d="M 476.002742 498.44088
L 476.002742 498.21282
L 485.541931 498.21282
L 485.541931 498.44088
z
" clip-path="url(#pdb8534879f)" style="fill: #9ca3af; stroke: #ffffff; stroke-width: 0.531736"/>
    <path d="M 487.635899 498.44088
L 487.635899 498.226235
L 497.175088 498.226235
L 497.175088 498.44088
z
" clip-path="url(#pdb8534879f)" style="fill: #9ca3af; stroke: #ffffff; stroke-width: 0.531736"/>
    <path d="M 499.269056 498.44088
L 499.269056 498.275425
L 508.808245 498.275425
L 508.808245 498.44088
z
" clip-path="url(#pdb8534879f)" style="fill: #9ca3af; stroke: #ffffff; stroke-width: 0.531736"/>
    <path d="M 510.902213 498.44088
L 510.902213 498.248594
L 520.441402 498.248594
L 520.441402 498.44088
z
" clip-path="url(#pdb8534879f)" style="fill: #9ca3af; stroke: #ffffff; stroke-width: 0.531736"/>
    <path d="M 522.535371 498.44088
L 522.535371 498.159159
L 532.07456 498.159159
L 532.07456 498.44088
z
" clip-path="url(#pdb8534879f)" style="fill: #9ca3af; stroke: #ffffff; stroke-width: 0.531736"/>
    <path d="M 534.168528 498.44088
L 534.168528 498.083139
L 543.707717 498.083139
L 543.707717 498.44088
z
" clip-path="url(#pdb8534879f)" style="fill: #9ca3af; stroke: #ffffff; stroke-width: 0.531736"/>
    <path d="M 545.801685 498.44088
L 545.801685 498.123385
L 555.340874 498.123385
L 555.340874 498.44088
z
" clip-path="url(#pdb8534879f)" style="fill: #9ca3af; stroke: #ffffff; stroke-width: 0.531736"/>
    <path d="M 557.434842 498.44088
L 557.434842 498.101026
L 566.974031 498.101026
L 566.974031 498.44088
z
" clip-path="url(#pdb8534879f)" style="fill: #9ca3af; stroke: #ffffff; stroke-width: 0.531736"/>
    <path d="M 569.068 498.44088
L 569.068 497.940042
L 578.607189 497.940042
L 578.607189 498.44088
z
" clip-path="url(#pdb8534879f)" style="fill: #9ca3af; stroke: #ffffff; stroke-width: 0.531736"/>
    <path d="M 580.701157 498.44088
L 580.701157 497.609131
L 590.240346 497.609131
L 590.240346 498.44088
z
" clip-path="url(#pdb8534879f)" style="fill: #9ca3af; stroke: #ffffff; stroke-width: 0.531736"/>
    <path d="M 592.334314 498.44088
L 592.334314 497.246918
L 601.873503 497.246918
L 601.873503 498.44088
z
" clip-path="url(#pdb8534879f)" style="fill: #9ca3af; stroke: #ffffff; stroke-width: 0.531736"/>
    <path d="M 603.967472 498.44088
L 603.967472 497.054632
L 613.50666 497.054632
L 613.50666 498.44088
z
" clip-path="url(#pdb8534879f)" style="fill: #9ca3af; stroke: #ffffff; stroke-width: 0.531736"/>
    <path d="M 615.600629 498.44088
L 615.600629 497.144067
L 625.139818 497.144067
L 625.139818 498.44088
z
" clip-path="url(#pdb8534879f)" style="fill: #9ca3af; stroke: #ffffff; stroke-width: 0.531736"/>
    <path d="M 627.233786 498.44088
L 627.233786 496.598511
L 636.772975 496.598511
L 636.772975 498.44088
z
" clip-path="url(#pdb8534879f)" style="fill: #9ca3af; stroke: #ffffff; stroke-width: 0.531736"/>
    <path d="M 638.866943 498.44088
L 638.866943 496.54485
L 648.406132 496.54485
L 648.406132 498.44088
z
" clip-path="url(#pdb8534879f)" style="fill: #9ca3af; stroke: #ffffff; stroke-width: 0.531736"/>
    <path d="M 650.500101 498.44088
L 650.500101 496.54485
L 660.03929 496.54485
L 660.03929 498.44088
z
" clip-path="url(#pdb8534879f)" style="fill: #9ca3af; stroke: #ffffff; stroke-width: 0.531736"/>
    <path d="M 662.133258 498.44088
L 662.133258 496.048483
L 671.672447 496.048483
L 671.672447 498.44088
z
" clip-path="url(#pdb8534879f)" style="fill: #9ca3af; stroke: #ffffff; stroke-width: 0.531736"/>
    <path d="M 673.766415 498.44088
L 673.766415 495.391133
L 683.305604 495.391133
L 683.305604 498.44088
z
" clip-path="url(#pdb8534879f)" style="fill: #9ca3af; stroke: #ffffff; stroke-width: 0.531736"/>
    <path d="M 685.399572 498.44088
L 685.399572 495.48504
L 694.938761 495.48504
L 694.938761 498.44088
z
" clip-path="url(#pdb8534879f)" style="fill: #9ca3af; stroke: #ffffff; stroke-width: 0.531736"/>
    <path d="M 697.03273 498.44088
L 697.03273 486.31344
L 706.571919 486.31344
L 706.571919 498.44088
z
" clip-path="url(#pdb8534879f)" style="fill: #2a9d8f; stroke: #ffffff; stroke-width: 0.531736"/>
    <path d="M 708.665887 498.44088
L 708.665887 478.049609
L 718.205076 478.049609
L 718.205076 498.44088
z
" clip-path="url(#pdb8534879f)" style="fill: #2a9d8f; stroke: #ffffff; stroke-width: 0.531736"/>
    <path d="M 720.299044 498.44088
L 720.299044 464.200537
L 729.838233 464.200537
L 729.838233 498.44088
z
" clip-path="url(#pdb8534879f)" style="fill: #2a9d8f; stroke: #ffffff; stroke-width: 0.531736"/>
    <path d="M 731.932201 498.44088
L 731.932201 426.530346
L 741.47139 426.530346
L 741.47139 498.44088
z
" clip-path="url(#pdb8534879f)" style="fill: #2a9d8f; stroke: #ffffff; stroke-width: 0.531736"/>
    <path d="M 743.565359 498.44088
L 743.565359 420.488984
L 753.104548 420.488984
L 753.104548 498.44088
z
" clip-path="url(#pdb8534879f)" style="fill: #2a9d8f; stroke: #ffffff; stroke-width: 0.531736"/>
    <path d="M 755.198516 498.44088
L 755.198516 402.964117
L 764.737705 402.964117
L 764.737705 498.44088
z
" clip-path="url(#pdb8534879f)" style="fill: #2a9d8f; stroke: #ffffff; stroke-width: 0.531736"/>
    <path d="M 766.831673 498.44088
L 766.831673 368.120085
L 776.370862 368.120085
L 776.370862 498.44088
z
" clip-path="url(#pdb8534879f)" style="fill: #2a9d8f; stroke: #ffffff; stroke-width: 0.531736"/>
    <path d="M 778.46483 498.44088
L 778.46483 326.076503
L 788.004019 326.076503
L 788.004019 498.44088
z
" clip-path="url(#pdb8534879f)" style="fill: #2a9d8f; stroke: #ffffff; stroke-width: 0.531736"/>
    <path d="M 790.097988 498.44088
L 790.097988 313.801494
L 799.637177 313.801494
L 799.637177 498.44088
z
" clip-path="url(#pdb8534879f)" style="fill: #2a9d8f; stroke: #ffffff; stroke-width: 0.531736"/>
    <path d="M 801.731145 498.44088
L 801.731145 286.30458
L 811.270334 286.30458
L 811.270334 498.44088
z
" clip-path="url(#pdb8534879f)" style="fill: #2a9d8f; stroke: #ffffff; stroke-width: 0.531736"/>
    <path d="M 813.364302 498.44088
L 813.364302 254.993246
L 822.903491 254.993246
L 822.903491 498.44088
z
" clip-path="url(#pdb8534879f)" style="fill: #2a9d8f; stroke: #ffffff; stroke-width: 0.531736"/>
    <path d="M 824.99746 498.44088
L 824.99746 160.035208
L 834.536648 160.035208
L 834.536648 498.44088
z
" clip-path="url(#pdb8534879f)" style="fill: #2a9d8f; stroke: #ffffff; stroke-width: 0.531736"/>
    <path d="M 836.630617 498.44088
L 836.630617 281.568975
L 846.169806 281.568975
L 846.169806 498.44088
z
" clip-path="url(#pdb8534879f)" style="fill: #e76f51; stroke: #ffffff; stroke-width: 0.531736"/>
   </g>
   <g id="text_20">
    <g clip-path="url(#pdb8534879f)">
     <!-- 98 -->
     <g style="fill: #22313f" transform="translate(69.158082 490.259235) scale(0.07 -0.07)">
      <use xlink:href="#DejaVuSans-1c"/>
      <use xlink:href="#DejaVuSans-1b" transform="translate(63.625 0)"/>
     </g>
    </g>
   </g>
   <g id="text_21">
    <g clip-path="url(#pdb8534879f)">
     <!-- 7 -->
     <g style="fill: #22313f" transform="translate(187.716529 490.669995) scale(0.07 -0.07)">
      <use xlink:href="#DejaVuSans-1a"/>
     </g>
    </g>
   </g>
   <g id="text_22">
    <g clip-path="url(#pdb8534879f)">
     <!-- 5 -->
     <g style="fill: #22313f" transform="translate(245.882316 490.629172) scale(0.07 -0.07)">
      <use xlink:href="#DejaVuSans-18"/>
     </g>
    </g>
   </g>
   <g id="text_23">
    <g clip-path="url(#pdb8534879f)">
     <!-- 5 -->
     <g style="fill: #22313f" transform="translate(304.048102 490.629172) scale(0.07 -0.07)">
      <use xlink:href="#DejaVuSans-18"/>
     </g>
    </g>
   </g>
   <g id="text_24">
    <g clip-path="url(#pdb8534879f)">
     <!-- 7 -->
     <g style="fill: #22313f" transform="translate(362.213888 490.669995) scale(0.07 -0.07)">
      <use xlink:href="#DejaVuSans-1a"/>
     </g>
    </g>
   </g>
   <g id="text_25">
    <g clip-path="url(#pdb8534879f)">
     <!-- 16 -->
     <g style="fill: #22313f" transform="translate(418.1528 490.62592) scale(0.07 -0.07)">
      <use xlink:href="#DejaVuSans-14"/>
      <use xlink:href="#DejaVuSans-19" transform="translate(63.625 0)"/>
     </g>
    </g>
   </g>
   <g id="text_26">
    <g clip-path="url(#pdb8534879f)">
     <!-- 51 -->
     <g style="fill: #22313f" transform="translate(476.318586 490.423471) scale(0.07 -0.07)">
      <use xlink:href="#DejaVuSans-18"/>
      <use xlink:href="#DejaVuSans-14" transform="translate(63.625 0)"/>
     </g>
    </g>
   </g>
   <g id="text_27">
    <g clip-path="url(#pdb8534879f)">
     <!-- 80 -->
     <g style="fill: #22313f" transform="translate(534.484372 490.339727) scale(0.07 -0.07)">
      <use xlink:href="#DejaVuSans-1b"/>
      <use xlink:href="#DejaVuSans-13" transform="translate(63.625 0)"/>
     </g>
    </g>
   </g>
   <g id="text_28">
    <g clip-path="url(#pdb8534879f)">
     <!-- 267 -->
     <g style="fill: #22313f" transform="translate(590.423284 489.503506) scale(0.07 -0.07)">
      <use xlink:href="#DejaVuSans-15"/>
      <use xlink:href="#DejaVuSans-19" transform="translate(63.625 0)"/>
      <use xlink:href="#DejaVuSans-1a" transform="translate(127.25 0)"/>
     </g>
    </g>
   </g>
   <g id="text_29">
    <g clip-path="url(#pdb8534879f)">
     <!-- 424 -->
     <g style="fill: #22313f" transform="translate(648.58907 488.851204) scale(0.07 -0.07)">
      <use xlink:href="#DejaVuSans-17"/>
      <use xlink:href="#DejaVuSans-15" transform="translate(63.625 0)"/>
      <use xlink:href="#DejaVuSans-17" transform="translate(127.25 0)"/>
     </g>
    </g>
   </g>
   <g id="text_30">
    <g clip-path="url(#pdb8534879f)">
     <!-- 4,560 -->
     <g style="fill: #22313f" transform="translate(703.415638 469.949088) scale(0.07 -0.07)">
      <use xlink:href="#DejaVuSans-17"/>
      <use xlink:href="#DejaVuSans-f" transform="translate(63.625 0)"/>
      <use xlink:href="#DejaVuSans-18" transform="translate(95.40625 0)"/>
      <use xlink:href="#DejaVuSans-19" transform="translate(159.03125 0)"/>
      <use xlink:href="#DejaVuSans-13" transform="translate(222.65625 0)"/>
     </g>
    </g>
   </g>
   <g id="text_31">
    <g clip-path="url(#pdb8534879f)">
     <!-- 29,143 -->
     <g style="fill: #22313f" transform="translate(759.354549 360.019564) scale(0.07 -0.07)">
      <defs>
       <path id="DejaVuSans-16" d="M 2597 2516
Q 3050 2419 3304 2112
Q 3559 1806 3559 1356
Q 3559 666 3084 287
Q 2609 -91 1734 -91
Q 1441 -91 1130 -33
Q 819 25 488 141
L 488 750
Q 750 597 1062 519
Q 1375 441 1716 441
Q 2309 441 2620 675
Q 2931 909 2931 1356
Q 2931 1769 2642 2001
Q 2353 2234 1838 2234
L 1294 2234
L 1294 2753
L 1863 2753
Q 2328 2753 2575 2939
Q 2822 3125 2822 3475
Q 2822 3834 2567 4026
Q 2313 4219 1838 4219
Q 1578 4219 1281 4162
Q 984 4106 628 3988
L 628 4550
Q 988 4650 1302 4700
Q 1616 4750 1894 4750
Q 2613 4750 3031 4423
Q 3450 4097 3450 3541
Q 3450 3153 3228 2886
Q 3006 2619 2597 2516
z
" transform="scale(0.015625)"/>
      </defs>
      <use xlink:href="#DejaVuSans-15"/>
      <use xlink:href="#DejaVuSans-1c" transform="translate(63.625 0)"/>
      <use xlink:href="#DejaVuSans-f" transform="translate(127.25 0)"/>
      <use xlink:href="#DejaVuSans-14" transform="translate(159.03125 0)"/>
      <use xlink:href="#DejaVuSans-17" transform="translate(222.65625 0)"/>
      <use xlink:href="#DejaVuSans-16" transform="translate(286.28125 0)"/>
     </g>
    </g>
   </g>
   <g id="text_32">
    <g clip-path="url(#pdb8534879f)">
     <!-- 75,676 -->
     <g style="fill: #22313f" transform="translate(817.520335 151.934688) scale(0.07 -0.07)">
      <use xlink:href="#DejaVuSans-1a"/>
      <use xlink:href="#DejaVuSans-18" transform="translate(63.625 0)"/>
      <use xlink:href="#DejaVuSans-f" transform="translate(127.25 0)"/>
      <use xlink:href="#DejaVuSans-19" transform="translate(159.03125 0)"/>
      <use xlink:href="#DejaVuSans-1a" transform="translate(222.65625 0)"/>
      <use xlink:href="#DejaVuSans-19" transform="translate(286.28125 0)"/>
     </g>
    </g>
   </g>
  </g>
  <g id="text_33">
   <!-- OpenAIRE research software records by publication year -->
   <g style="fill: #1f2933" transform="translate(189.300109 21.557344) scale(0.17 -0.17)">
    <defs>
     <path id="DejaVuSans-Bold-32" d="M 2719 3878
Q 2169 3878 1866 3472
Q 1563 3066 1563 2328
Q 1563 1594 1866 1187
Q 2169 781 2719 781
Q 3272 781 3575 1187
Q 3878 1594 3878 2328
Q 3878 3066 3575 3472
Q 3272 3878 2719 3878
z
M 2719 4750
Q 3844 4750 4481 4106
Q 5119 3463 5119 2328
Q 5119 1197 4481 553
Q 3844 -91 2719 -91
Q 1597 -91 958 553
Q 319 1197 319 2328
Q 319 3463 958 4106
Q 1597 4750 2719 4750
z
" transform="scale(0.015625)"/>
     <path id="DejaVuSans-Bold-53" d="M 1656 506
L 1656 -1331
L 538 -1331
L 538 3500
L 1656 3500
L 1656 2988
Q 1888 3294 2169 3439
Q 2450 3584 2816 3584
Q 3463 3584 3878 3070
Q 4294 2556 4294 1747
Q 4294 938 3878 423
Q 3463 -91 2816 -91
Q 2450 -91 2169 54
Q 1888 200 1656 506
z
M 2400 2772
Q 2041 2772 1848 2508
Q 1656 2244 1656 1747
Q 1656 1250 1848 986
Q 2041 722 2400 722
Q 2759 722 2948 984
Q 3138 1247 3138 1747
Q 3138 2247 2948 2509
Q 2759 2772 2400 2772
z
" transform="scale(0.015625)"/>
     <path id="DejaVuSans-Bold-48" d="M 4031 1759
L 4031 1441
L 1416 1441
Q 1456 1047 1700 850
Q 1944 653 2381 653
Q 2734 653 3104 758
Q 3475 863 3866 1075
L 3866 213
Q 3469 63 3072 -14
Q 2675 -91 2278 -91
Q 1328 -91 801 392
Q 275 875 275 1747
Q 275 2603 792 3093
Q 1309 3584 2216 3584
Q 3041 3584 3536 3087
Q 4031 2591 4031 1759
z
M 2881 2131
Q 2881 2450 2695 2645
Q 2509 2841 2209 2841
Q 1884 2841 1681 2658
Q 1478 2475 1428 2131
L 2881 2131
z
" transform="scale(0.015625)"/>
     <path id="DejaVuSans-Bold-51" d="M 4056 2131
L 4056 0
L 2931 0
L 2931 347
L 2931 1631
Q 2931 2084 2911 2256
Q 2891 2428 2841 2509
Q 2775 2619 2662 2680
Q 2550 2741 2406 2741
Q 2056 2741 1856 2470
Q 1656 2200 1656 1722
L 1656 0
L 538 0
L 538 3500
L 1656 3500
L 1656 2988
Q 1909 3294 2193 3439
Q 2478 3584 2822 3584
Q 3428 3584 3742 3212
Q 4056 2841 4056 2131
z
" transform="scale(0.015625)"/>
     <path id="DejaVuSans-Bold-24" d="M 3419 850
L 1538 850
L 1241 0
L 31 0
L 1759 4666
L 3194 4666
L 4922 0
L 3713 0
L 3419 850
z
M 1838 1716
L 3116 1716
L 2478 3572
L 1838 1716
z
" transform="scale(0.015625)"/>
     <path id="DejaVuSans-Bold-2c" d="M 588 4666
L 1791 4666
L 1791 0
L 588 0
L 588 4666
z
" transform="scale(0.015625)"/>
     <path id="DejaVuSans-Bold-35" d="M 2297 2597
Q 2675 2597 2839 2737
Q 3003 2878 3003 3200
Q 3003 3519 2839 3656
Q 2675 3794 2297 3794
L 1791 3794
L 1791 2597
L 2297 2597
z
M 1791 1766
L 1791 0
L 588 0
L 588 4666
L 2425 4666
Q 3347 4666 3776 4356
Q 4206 4047 4206 3378
Q 4206 2916 3982 2619
Q 3759 2322 3309 2181
Q 3556 2125 3751 1926
Q 3947 1728 4147 1325
L 4800 0
L 3519 0
L 2950 1159
Q 2778 1509 2601 1637
Q 2425 1766 2131 1766
L 1791 1766
z
" transform="scale(0.015625)"/>
     <path id="DejaVuSans-Bold-28" d="M 588 4666
L 3834 4666
L 3834 3756
L 1791 3756
L 1791 2888
L 3713 2888
L 3713 1978
L 1791 1978
L 1791 909
L 3903 909
L 3903 0
L 588 0
L 588 4666
z
" transform="scale(0.015625)"/>
     <path id="DejaVuSans-Bold-3" transform="scale(0.015625)"/>
     <path id="DejaVuSans-Bold-55" d="M 3138 2547
Q 2991 2616 2845 2648
Q 2700 2681 2553 2681
Q 2122 2681 1889 2404
Q 1656 2128 1656 1613
L 1656 0
L 538 0
L 538 3500
L 1656 3500
L 1656 2925
Q 1872 3269 2151 3426
Q 2431 3584 2822 3584
Q 2878 3584 2943 3579
Q 3009 3575 3134 3559
L 3138 2547
z
" transform="scale(0.015625)"/>
     <path id="DejaVuSans-Bold-56" d="M 3272 3391
L 3272 2541
Q 2913 2691 2578 2766
Q 2244 2841 1947 2841
Q 1628 2841 1473 2761
Q 1319 2681 1319 2516
Q 1319 2381 1436 2309
Q 1553 2238 1856 2203
L 2053 2175
Q 2913 2066 3209 1816
Q 3506 1566 3506 1031
Q 3506 472 3093 190
Q 2681 -91 1863 -91
Q 1516 -91 1145 -36
Q 775 19 384 128
L 384 978
Q 719 816 1070 734
Q 1422 653 1784 653
Q 2113 653 2278 743
Q 2444 834 2444 1013
Q 2444 1163 2330 1236
Q 2216 1309 1875 1350
L 1678 1375
Q 931 1469 631 1722
Q 331 1975 331 2491
Q 331 3047 712 3315
Q 1094 3584 1881 3584
Q 2191 3584 2531 3537
Q 2872 3491 3272 3391
z
" transform="scale(0.015625)"/>
     <path id="DejaVuSans-Bold-44" d="M 2106 1575
Q 1756 1575 1579 1456
Q 1403 1338 1403 1106
Q 1403 894 1545 773
Q 1688 653 1941 653
Q 2256 653 2472 879
Q 2688 1106 2688 1447
L 2688 1575
L 2106 1575
z
M 3816 1997
L 3816 0
L 2688 0
L 2688 519
Q 2463 200 2181 54
Q 1900 -91 1497 -91
Q 953 -91 614 226
Q 275 544 275 1050
Q 275 1666 698 1953
Q 1122 2241 2028 2241
L 2688 2241
L 2688 2328
Q 2688 2594 2478 2717
Q 2269 2841 1825 2841
Q 1466 2841 1156 2769
Q 847 2697 581 2553
L 581 3406
Q 941 3494 1303 3539
Q 1666 3584 2028 3584
Q 2975 3584 3395 3211
Q 3816 2838 3816 1997
z
" transform="scale(0.015625)"/>
     <path id="DejaVuSans-Bold-46" d="M 3366 3391
L 3366 2478
Q 3138 2634 2908 2709
Q 2678 2784 2431 2784
Q 1963 2784 1702 2511
Q 1441 2238 1441 1747
Q 1441 1256 1702 982
Q 1963 709 2431 709
Q 2694 709 2930 787
Q 3166 866 3366 1019
L 3366 103
Q 3103 6 2833 -42
Q 2563 -91 2291 -91
Q 1344 -91 809 395
Q 275 881 275 1747
Q 275 2613 809 3098
Q 1344 3584 2291 3584
Q 2566 3584 2833 3536
Q 3100 3488 3366 3391
z
" transform="scale(0.015625)"/>
     <path id="DejaVuSans-Bold-4b" d="M 4056 2131
L 4056 0
L 2931 0
L 2931 347
L 2931 1625
Q 2931 2084 2911 2256
Q 2891 2428 2841 2509
Q 2775 2619 2662 2680
Q 2550 2741 2406 2741
Q 2056 2741 1856 2470
Q 1656 2200 1656 1722
L 1656 0
L 538 0
L 538 4863
L 1656 4863
L 1656 2988
Q 1909 3294 2193 3439
Q 2478 3584 2822 3584
Q 3428 3584 3742 3212
Q 4056 2841 4056 2131
z
" transform="scale(0.015625)"/>
     <path id="DejaVuSans-Bold-52" d="M 2203 2784
Q 1831 2784 1636 2517
Q 1441 2250 1441 1747
Q 1441 1244 1636 976
Q 1831 709 2203 709
Q 2569 709 2762 976
Q 2956 1244 2956 1747
Q 2956 2250 2762 2517
Q 2569 2784 2203 2784
z
M 2203 3584
Q 3106 3584 3614 3096
Q 4122 2609 4122 1747
Q 4122 884 3614 396
Q 3106 -91 2203 -91
Q 1297 -91 786 396
Q 275 884 275 1747
Q 275 2609 786 3096
Q 1297 3584 2203 3584
z
" transform="scale(0.015625)"/>
     <path id="DejaVuSans-Bold-49" d="M 2841 4863
L 2841 4128
L 2222 4128
Q 1984 4128 1890 4042
Q 1797 3956 1797 3744
L 1797 3500
L 2753 3500
L 2753 2700
L 1797 2700
L 1797 0
L 678 0
L 678 2700
L 122 2700
L 122 3500
L 678 3500
L 678 3744
Q 678 4316 997 4589
Q 1316 4863 1984 4863
L 2841 4863
z
" transform="scale(0.015625)"/>
     <path id="DejaVuSans-Bold-57" d="M 1759 4494
L 1759 3500
L 2913 3500
L 2913 2700
L 1759 2700
L 1759 1216
Q 1759 972 1856 886
Q 1953 800 2241 800
L 2816 800
L 2816 0
L 1856 0
Q 1194 0 917 276
Q 641 553 641 1216
L 641 2700
L 84 2700
L 84 3500
L 641 3500
L 641 4494
L 1759 4494
z
" transform="scale(0.015625)"/>
     <path id="DejaVuSans-Bold-5a" d="M 225 3500
L 1313 3500
L 1900 1088
L 2491 3500
L 3425 3500
L 4013 1113
L 4603 3500
L 5691 3500
L 4769 0
L 3547 0
L 2956 2406
L 2369 0
L 1147 0
L 225 3500
z
" transform="scale(0.015625)"/>
     <path id="DejaVuSans-Bold-47" d="M 2919 2988
L 2919 4863
L 4044 4863
L 4044 0
L 2919 0
L 2919 506
Q 2688 197 2409 53
Q 2131 -91 1766 -91
Q 1119 -91 703 423
Q 288 938 288 1747
Q 288 2556 703 3070
Q 1119 3584 1766 3584
Q 2128 3584 2408 3439
Q 2688 3294 2919 2988
z
M 2181 722
Q 2541 722 2730 984
Q 2919 1247 2919 1747
Q 2919 2247 2730 2509
Q 2541 2772 2181 2772
Q 1825 2772 1636 2509
Q 1447 2247 1447 1747
Q 1447 1247 1636 984
Q 1825 722 2181 722
z
" transform="scale(0.015625)"/>
     <path id="DejaVuSans-Bold-45" d="M 2400 722
Q 2759 722 2948 984
Q 3138 1247 3138 1747
Q 3138 2247 2948 2509
Q 2759 2772 2400 2772
Q 2041 2772 1848 2508
Q 1656 2244 1656 1747
Q 1656 1250 1848 986
Q 2041 722 2400 722
z
M 1656 2988
Q 1888 3294 2169 3439
Q 2450 3584 2816 3584
Q 3463 3584 3878 3070
Q 4294 2556 4294 1747
Q 4294 938 3878 423
Q 3463 -91 2816 -91
Q 2450 -91 2169 54
Q 1888 200 1656 506
L 1656 0
L 538 0
L 538 4863
L 1656 4863
L 1656 2988
z
" transform="scale(0.015625)"/>
     <path id="DejaVuSans-Bold-5c" d="M 78 3500
L 1197 3500
L 2138 1125
L 2938 3500
L 4056 3500
L 2584 -331
Q 2363 -916 2067 -1148
Q 1772 -1381 1288 -1381
L 641 -1381
L 641 -647
L 991 -647
Q 1275 -647 1404 -556
Q 1534 -466 1606 -231
L 1638 -134
L 78 3500
z
" transform="scale(0.015625)"/>
     <path id="DejaVuSans-Bold-58" d="M 500 1363
L 500 3500
L 1625 3500
L 1625 3150
Q 1625 2866 1622 2436
Q 1619 2006 1619 1863
Q 1619 1441 1641 1255
Q 1663 1069 1716 984
Q 1784 875 1895 815
Q 2006 756 2150 756
Q 2500 756 2700 1025
Q 2900 1294 2900 1772
L 2900 3500
L 4019 3500
L 4019 0
L 2900 0
L 2900 506
Q 2647 200 2364 54
Q 2081 -91 1741 -91
Q 1134 -91 817 281
Q 500 653 500 1363
z
" transform="scale(0.015625)"/>
     <path id="DejaVuSans-Bold-4f" d="M 538 4863
L 1656 4863
L 1656 0
L 538 0
L 538 4863
z
" transform="scale(0.015625)"/>
     <path id="DejaVuSans-Bold-4c" d="M 538 3500
L 1656 3500
L 1656 0
L 538 0
L 538 3500
z
M 538 4863
L 1656 4863
L 1656 3950
L 538 3950
L 538 4863
z
" transform="scale(0.015625)"/>
    </defs>
    <use xlink:href="#DejaVuSans-Bold-32"/>
    <use xlink:href="#DejaVuSans-Bold-53" transform="translate(85.015625 0)"/>
    <use xlink:href="#DejaVuSans-Bold-48" transform="translate(156.59375 0)"/>
    <use xlink:href="#DejaVuSans-Bold-51" transform="translate(224.421875 0)"/>
    <use xlink:href="#DejaVuSans-Bold-24" transform="translate(295.609375 0)"/>
    <use xlink:href="#DejaVuSans-Bold-2c" transform="translate(373 0)"/>
    <use xlink:href="#DejaVuSans-Bold-35" transform="translate(410.203125 0)"/>
    <use xlink:href="#DejaVuSans-Bold-28" transform="translate(487.203125 0)"/>
    <use xlink:href="#DejaVuSans-Bold-3" transform="translate(555.515625 0)"/>
    <use xlink:href="#DejaVuSans-Bold-55" transform="translate(590.328125 0)"/>
    <use xlink:href="#DejaVuSans-Bold-48" transform="translate(639.640625 0)"/>
    <use xlink:href="#DejaVuSans-Bold-56" transform="translate(707.46875 0)"/>
    <use xlink:href="#DejaVuSans-Bold-48" transform="translate(766.984375 0)"/>
    <use xlink:href="#DejaVuSans-Bold-44" transform="translate(834.8125 0)"/>
    <use xlink:href="#DejaVuSans-Bold-55" transform="translate(902.296875 0)"/>
    <use xlink:href="#DejaVuSans-Bold-46" transform="translate(951.609375 0)"/>
    <use xlink:href="#DejaVuSans-Bold-4b" transform="translate(1010.890625 0)"/>
    <use xlink:href="#DejaVuSans-Bold-3" transform="translate(1082.078125 0)"/>
    <use xlink:href="#DejaVuSans-Bold-56" transform="translate(1116.890625 0)"/>
    <use xlink:href="#DejaVuSans-Bold-52" transform="translate(1176.40625 0)"/>
    <use xlink:href="#DejaVuSans-Bold-49" transform="translate(1245.109375 0)"/>
    <use xlink:href="#DejaVuSans-Bold-57" transform="translate(1288.609375 0)"/>
    <use xlink:href="#DejaVuSans-Bold-5a" transform="translate(1336.40625 0)"/>
    <use xlink:href="#DejaVuSans-Bold-44" transform="translate(1428.796875 0)"/>
    <use xlink:href="#DejaVuSans-Bold-55" transform="translate(1496.28125 0)"/>
    <use xlink:href="#DejaVuSans-Bold-48" transform="translate(1545.59375 0)"/>
    <use xlink:href="#DejaVuSans-Bold-3" transform="translate(1613.421875 0)"/>
    <use xlink:href="#DejaVuSans-Bold-55" transform="translate(1648.234375 0)"/>
    <use xlink:href="#DejaVuSans-Bold-48" transform="translate(1697.546875 0)"/>
    <use xlink:href="#DejaVuSans-Bold-46" transform="translate(1765.375 0)"/>
    <use xlink:href="#DejaVuSans-Bold-52" transform="translate(1824.65625 0)"/>
    <use xlink:href="#DejaVuSans-Bold-55" transform="translate(1893.359375 0)"/>
    <use xlink:href="#DejaVuSans-Bold-47" transform="translate(1942.671875 0)"/>
    <use xlink:href="#DejaVuSans-Bold-56" transform="translate(2014.25 0)"/>
    <use xlink:href="#DejaVuSans-Bold-3" transform="translate(2073.765625 0)"/>
    <use xlink:href="#DejaVuSans-Bold-45" transform="translate(2108.578125 0)"/>
    <use xlink:href="#DejaVuSans-Bold-5c" transform="translate(2180.15625 0)"/>
    <use xlink:href="#DejaVuSans-Bold-3" transform="translate(2245.34375 0)"/>
    <use xlink:href="#DejaVuSans-Bold-53" transform="translate(2280.15625 0)"/>
    <use xlink:href="#DejaVuSans-Bold-58" transform="translate(2351.734375 0)"/>
    <use xlink:href="#DejaVuSans-Bold-45" transform="translate(2422.921875 0)"/>
    <use xlink:href="#DejaVuSans-Bold-4f" transform="translate(2494.5 0)"/>
    <use xlink:href="#DejaVuSans-Bold-4c" transform="translate(2528.78125 0)"/>
    <use xlink:href="#DejaVuSans-Bold-46" transform="translate(2563.0625 0)"/>
    <use xlink:href="#DejaVuSans-Bold-44" transform="translate(2622.34375 0)"/>
    <use xlink:href="#DejaVuSans-Bold-57" transform="translate(2689.828125 0)"/>
    <use xlink:href="#DejaVuSans-Bold-4c" transform="translate(2737.625 0)"/>
    <use xlink:href="#DejaVuSans-Bold-52" transform="translate(2771.90625 0)"/>
    <use xlink:href="#DejaVuSans-Bold-51" transform="translate(2840.609375 0)"/>
    <use xlink:href="#DejaVuSans-Bold-3" transform="translate(2911.796875 0)"/>
    <use xlink:href="#DejaVuSans-Bold-5c" transform="translate(2946.609375 0)"/>
    <use xlink:href="#DejaVuSans-Bold-48" transform="translate(3011.796875 0)"/>
    <use xlink:href="#DejaVuSans-Bold-44" transform="translate(3079.625 0)"/>
    <use xlink:href="#DejaVuSans-Bold-55" transform="translate(3147.109375 0)"/>
   </g>
  </g>
  <g id="text_34">
   <!-- Annual records from the OpenAIRE Graph API, 1960-2026 -->
   <g style="fill: #52616b" transform="translate(302.711125 42.639609) scale(0.11 -0.11)">
    <defs>
     <path id="DejaVuSans-24" d="M 2188 4044
L 1331 1722
L 3047 1722
L 2188 4044
z
M 1831 4666
L 2547 4666
L 4325 0
L 3669 0
L 3244 1197
L 1141 1197
L 716 0
L 50 0
L 1831 4666
z
" transform="scale(0.015625)"/>
     <path id="DejaVuSans-51" d="M 3513 2113
L 3513 0
L 2938 0
L 2938 2094
Q 2938 2591 2744 2837
Q 2550 3084 2163 3084
Q 1697 3084 1428 2787
Q 1159 2491 1159 1978
L 1159 0
L 581 0
L 581 3500
L 1159 3500
L 1159 2956
Q 1366 3272 1645 3428
Q 1925 3584 2291 3584
Q 2894 3584 3203 3211
Q 3513 2838 3513 2113
z
" transform="scale(0.015625)"/>
     <path id="DejaVuSans-58" d="M 544 1381
L 544 3500
L 1119 3500
L 1119 1403
Q 1119 906 1312 657
Q 1506 409 1894 409
Q 2359 409 2629 706
Q 2900 1003 2900 1516
L 2900 3500
L 3475 3500
L 3475 0
L 2900 0
L 2900 538
Q 2691 219 2414 64
Q 2138 -91 1772 -91
Q 1169 -91 856 284
Q 544 659 544 1381
z
M 1991 3584
L 1991 3584
z
" transform="scale(0.015625)"/>
     <path id="DejaVuSans-44" d="M 2194 1759
Q 1497 1759 1228 1600
Q 959 1441 959 1056
Q 959 750 1161 570
Q 1363 391 1709 391
Q 2188 391 2477 730
Q 2766 1069 2766 1631
L 2766 1759
L 2194 1759
z
M 3341 1997
L 3341 0
L 2766 0
L 2766 531
Q 2569 213 2275 61
Q 1981 -91 1556 -91
Q 1019 -91 701 211
Q 384 513 384 1019
Q 384 1609 779 1909
Q 1175 2209 1959 2209
L 2766 2209
L 2766 2266
Q 2766 2663 2505 2880
Q 2244 3097 1772 3097
Q 1472 3097 1187 3025
Q 903 2953 641 2809
L 641 3341
Q 956 3463 1253 3523
Q 1550 3584 1831 3584
Q 2591 3584 2966 3190
Q 3341 2797 3341 1997
z
" transform="scale(0.015625)"/>
     <path id="DejaVuSans-4f" d="M 603 4863
L 1178 4863
L 1178 0
L 603 0
L 603 4863
z
" transform="scale(0.015625)"/>
     <path id="DejaVuSans-3" transform="scale(0.015625)"/>
     <path id="DejaVuSans-55" d="M 2631 2963
Q 2534 3019 2420 3045
Q 2306 3072 2169 3072
Q 1681 3072 1420 2755
Q 1159 2438 1159 1844
L 1159 0
L 581 0
L 581 3500
L 1159 3500
L 1159 2956
Q 1341 3275 1631 3429
Q 1922 3584 2338 3584
Q 2397 3584 2469 3576
Q 2541 3569 2628 3553
L 2631 2963
z
" transform="scale(0.015625)"/>
     <path id="DejaVuSans-48" d="M 3597 1894
L 3597 1613
L 953 1613
Q 991 1019 1311 708
Q 1631 397 2203 397
Q 2534 397 2845 478
Q 3156 559 3463 722
L 3463 178
Q 3153 47 2828 -22
Q 2503 -91 2169 -91
Q 1331 -91 842 396
Q 353 884 353 1716
Q 353 2575 817 3079
Q 1281 3584 2069 3584
Q 2775 3584 3186 3129
Q 3597 2675 3597 1894
z
M 3022 2063
Q 3016 2534 2758 2815
Q 2500 3097 2075 3097
Q 1594 3097 1305 2825
Q 1016 2553 972 2059
L 3022 2063
z
" transform="scale(0.015625)"/>
     <path id="DejaVuSans-46" d="M 3122 3366
L 3122 2828
Q 2878 2963 2633 3030
Q 2388 3097 2138 3097
Q 1578 3097 1268 2742
Q 959 2388 959 1747
Q 959 1106 1268 751
Q 1578 397 2138 397
Q 2388 397 2633 464
Q 2878 531 3122 666
L 3122 134
Q 2881 22 2623 -34
Q 2366 -91 2075 -91
Q 1284 -91 818 406
Q 353 903 353 1747
Q 353 2603 823 3093
Q 1294 3584 2113 3584
Q 2378 3584 2631 3529
Q 2884 3475 3122 3366
z
" transform="scale(0.015625)"/>
     <path id="DejaVuSans-52" d="M 1959 3097
Q 1497 3097 1228 2736
Q 959 2375 959 1747
Q 959 1119 1226 758
Q 1494 397 1959 397
Q 2419 397 2687 759
Q 2956 1122 2956 1747
Q 2956 2369 2687 2733
Q 2419 3097 1959 3097
z
M 1959 3584
Q 2709 3584 3137 3096
Q 3566 2609 3566 1747
Q 3566 888 3137 398
Q 2709 -91 1959 -91
Q 1206 -91 779 398
Q 353 888 353 1747
Q 353 2609 779 3096
Q 1206 3584 1959 3584
z
" transform="scale(0.015625)"/>
     <path id="DejaVuSans-47" d="M 2906 2969
L 2906 4863
L 3481 4863
L 3481 0
L 2906 0
L 2906 525
Q 2725 213 2448 61
Q 2172 -91 1784 -91
Q 1150 -91 751 415
Q 353 922 353 1747
Q 353 2572 751 3078
Q 1150 3584 1784 3584
Q 2172 3584 2448 3432
Q 2725 3281 2906 2969
z
M 947 1747
Q 947 1113 1208 752
Q 1469 391 1925 391
Q 2381 391 2643 752
Q 2906 1113 2906 1747
Q 2906 2381 2643 2742
Q 2381 3103 1925 3103
Q 1469 3103 1208 2742
Q 947 2381 947 1747
z
" transform="scale(0.015625)"/>
     <path id="DejaVuSans-56" d="M 2834 3397
L 2834 2853
Q 2591 2978 2328 3040
Q 2066 3103 1784 3103
Q 1356 3103 1142 2972
Q 928 2841 928 2578
Q 928 2378 1081 2264
Q 1234 2150 1697 2047
L 1894 2003
Q 2506 1872 2764 1633
Q 3022 1394 3022 966
Q 3022 478 2636 193
Q 2250 -91 1575 -91
Q 1294 -91 989 -36
Q 684 19 347 128
L 347 722
Q 666 556 975 473
Q 1284 391 1588 391
Q 1994 391 2212 530
Q 2431 669 2431 922
Q 2431 1156 2273 1281
Q 2116 1406 1581 1522
L 1381 1569
Q 847 1681 609 1914
Q 372 2147 372 2553
Q 372 3047 722 3315
Q 1072 3584 1716 3584
Q 2034 3584 2315 3537
Q 2597 3491 2834 3397
z
" transform="scale(0.015625)"/>
     <path id="DejaVuSans-49" d="M 2375 4863
L 2375 4384
L 1825 4384
Q 1516 4384 1395 4259
Q 1275 4134 1275 3809
L 1275 3500
L 2222 3500
L 2222 3053
L 1275 3053
L 1275 0
L 697 0
L 697 3053
L 147 3053
L 147 3500
L 697 3500
L 697 3744
Q 697 4328 969 4595
Q 1241 4863 1831 4863
L 2375 4863
z
" transform="scale(0.015625)"/>
     <path id="DejaVuSans-50" d="M 3328 2828
Q 3544 3216 3844 3400
Q 4144 3584 4550 3584
Q 5097 3584 5394 3201
Q 5691 2819 5691 2113
L 5691 0
L 5113 0
L 5113 2094
Q 5113 2597 4934 2840
Q 4756 3084 4391 3084
Q 3944 3084 3684 2787
Q 3425 2491 3425 1978
L 3425 0
L 2847 0
L 2847 2094
Q 2847 2600 2669 2842
Q 2491 3084 2119 3084
Q 1678 3084 1418 2786
Q 1159 2488 1159 1978
L 1159 0
L 581 0
L 581 3500
L 1159 3500
L 1159 2956
Q 1356 3278 1631 3431
Q 1906 3584 2284 3584
Q 2666 3584 2933 3390
Q 3200 3197 3328 2828
z
" transform="scale(0.015625)"/>
     <path id="DejaVuSans-57" d="M 1172 4494
L 1172 3500
L 2356 3500
L 2356 3053
L 1172 3053
L 1172 1153
Q 1172 725 1289 603
Q 1406 481 1766 481
L 2356 481
L 2356 0
L 1766 0
Q 1100 0 847 248
Q 594 497 594 1153
L 594 3053
L 172 3053
L 172 3500
L 594 3500
L 594 4494
L 1172 4494
z
" transform="scale(0.015625)"/>
     <path id="DejaVuSans-4b" d="M 3513 2113
L 3513 0
L 2938 0
L 2938 2094
Q 2938 2591 2744 2837
Q 2550 3084 2163 3084
Q 1697 3084 1428 2787
Q 1159 2491 1159 1978
L 1159 0
L 581 0
L 581 4863
L 1159 4863
L 1159 2956
Q 1366 3272 1645 3428
Q 1925 3584 2291 3584
Q 2894 3584 3203 3211
Q 3513 2838 3513 2113
z
" transform="scale(0.015625)"/>
     <path id="DejaVuSans-32" d="M 2522 4238
Q 1834 4238 1429 3725
Q 1025 3213 1025 2328
Q 1025 1447 1429 934
Q 1834 422 2522 422
Q 3209 422 3611 934
Q 4013 1447 4013 2328
Q 4013 3213 3611 3725
Q 3209 4238 2522 4238
z
M 2522 4750
Q 3503 4750 4090 4092
Q 4678 3434 4678 2328
Q 4678 1225 4090 567
Q 3503 -91 2522 -91
Q 1538 -91 948 565
Q 359 1222 359 2328
Q 359 3434 948 4092
Q 1538 4750 2522 4750
z
" transform="scale(0.015625)"/>
     <path id="DejaVuSans-53" d="M 1159 525
L 1159 -1331
L 581 -1331
L 581 3500
L 1159 3500
L 1159 2969
Q 1341 3281 1617 3432
Q 1894 3584 2278 3584
Q 2916 3584 3314 3078
Q 3713 2572 3713 1747
Q 3713 922 3314 415
Q 2916 -91 2278 -91
Q 1894 -91 1617 61
Q 1341 213 1159 525
z
M 3116 1747
Q 3116 2381 2855 2742
Q 2594 3103 2138 3103
Q 1681 3103 1420 2742
Q 1159 2381 1159 1747
Q 1159 1113 1420 752
Q 1681 391 2138 391
Q 2594 391 2855 752
Q 3116 1113 3116 1747
z
" transform="scale(0.015625)"/>
     <path id="DejaVuSans-2c" d="M 628 4666
L 1259 4666
L 1259 0
L 628 0
L 628 4666
z
" transform="scale(0.015625)"/>
     <path id="DejaVuSans-35" d="M 2841 2188
Q 3044 2119 3236 1894
Q 3428 1669 3622 1275
L 4263 0
L 3584 0
L 2988 1197
Q 2756 1666 2539 1819
Q 2322 1972 1947 1972
L 1259 1972
L 1259 0
L 628 0
L 628 4666
L 2053 4666
Q 2853 4666 3247 4331
Q 3641 3997 3641 3322
Q 3641 2881 3436 2590
Q 3231 2300 2841 2188
z
M 1259 4147
L 1259 2491
L 2053 2491
Q 2509 2491 2742 2702
Q 2975 2913 2975 3322
Q 2975 3731 2742 3939
Q 2509 4147 2053 4147
L 1259 4147
z
" transform="scale(0.015625)"/>
     <path id="DejaVuSans-28" d="M 628 4666
L 3578 4666
L 3578 4134
L 1259 4134
L 1259 2753
L 3481 2753
L 3481 2222
L 1259 2222
L 1259 531
L 3634 531
L 3634 0
L 628 0
L 628 4666
z
" transform="scale(0.015625)"/>
     <path id="DejaVuSans-2a" d="M 3809 666
L 3809 1919
L 2778 1919
L 2778 2438
L 4434 2438
L 4434 434
Q 4069 175 3628 42
Q 3188 -91 2688 -91
Q 1594 -91 976 548
Q 359 1188 359 2328
Q 359 3472 976 4111
Q 1594 4750 2688 4750
Q 3144 4750 3555 4637
Q 3966 4525 4313 4306
L 4313 3634
Q 3963 3931 3569 4081
Q 3175 4231 2741 4231
Q 1884 4231 1454 3753
Q 1025 3275 1025 2328
Q 1025 1384 1454 906
Q 1884 428 2741 428
Q 3075 428 3337 486
Q 3600 544 3809 666
z
" transform="scale(0.015625)"/>
     <path id="DejaVuSans-33" d="M 1259 4147
L 1259 2394
L 2053 2394
Q 2494 2394 2734 2622
Q 2975 2850 2975 3272
Q 2975 3691 2734 3919
Q 2494 4147 2053 4147
L 1259 4147
z
M 628 4666
L 2053 4666
Q 2838 4666 3239 4311
Q 3641 3956 3641 3272
Q 3641 2581 3239 2228
Q 2838 1875 2053 1875
L 1259 1875
L 1259 0
L 628 0
L 628 4666
z
" transform="scale(0.015625)"/>
     <path id="DejaVuSans-10" d="M 313 2009
L 1997 2009
L 1997 1497
L 313 1497
L 313 2009
z
" transform="scale(0.015625)"/>
    </defs>
    <use xlink:href="#DejaVuSans-24"/>
    <use xlink:href="#DejaVuSans-51" transform="translate(68.40625 0)"/>
    <use xlink:href="#DejaVuSans-51" transform="translate(131.78125 0)"/>
    <use xlink:href="#DejaVuSans-58" transform="translate(195.15625 0)"/>
    <use xlink:href="#DejaVuSans-44" transform="translate(258.53125 0)"/>
    <use xlink:href="#DejaVuSans-4f" transform="translate(319.8125 0)"/>
    <use xlink:href="#DejaVuSans-3" transform="translate(347.59375 0)"/>
    <use xlink:href="#DejaVuSans-55" transform="translate(379.375 0)"/>
    <use xlink:href="#DejaVuSans-48" transform="translate(418.28125 0)"/>
    <use xlink:href="#DejaVuSans-46" transform="translate(479.8125 0)"/>
    <use xlink:href="#DejaVuSans-52" transform="translate(534.796875 0)"/>
    <use xlink:href="#DejaVuSans-55" transform="translate(595.984375 0)"/>
    <use xlink:href="#DejaVuSans-47" transform="translate(635.34375 0)"/>
    <use xlink:href="#DejaVuSans-56" transform="translate(698.828125 0)"/>
    <use xlink:href="#DejaVuSans-3" transform="translate(750.921875 0)"/>
    <use xlink:href="#DejaVuSans-49" transform="translate(782.703125 0)"/>
    <use xlink:href="#DejaVuSans-55" transform="translate(817.90625 0)"/>
    <use xlink:href="#DejaVuSans-52" transform="translate(856.8125 0)"/>
    <use xlink:href="#DejaVuSans-50" transform="translate(918 0)"/>
    <use xlink:href="#DejaVuSans-3" transform="translate(1015.40625 0)"/>
    <use xlink:href="#DejaVuSans-57" transform="translate(1047.1875 0)"/>
    <use xlink:href="#DejaVuSans-4b" transform="translate(1086.390625 0)"/>
    <use xlink:href="#DejaVuSans-48" transform="translate(1149.765625 0)"/>
    <use xlink:href="#DejaVuSans-3" transform="translate(1211.296875 0)"/>
    <use xlink:href="#DejaVuSans-32" transform="translate(1243.078125 0)"/>
    <use xlink:href="#DejaVuSans-53" transform="translate(1321.796875 0)"/>
    <use xlink:href="#DejaVuSans-48" transform="translate(1385.28125 0)"/>
    <use xlink:href="#DejaVuSans-51" transform="translate(1446.8125 0)"/>
    <use xlink:href="#DejaVuSans-24" transform="translate(1510.1875 0)"/>
    <use xlink:href="#DejaVuSans-2c" transform="translate(1578.59375 0)"/>
    <use xlink:href="#DejaVuSans-35" transform="translate(1608.09375 0)"/>
    <use xlink:href="#DejaVuSans-28" transform="translate(1677.578125 0)"/>
    <use xlink:href="#DejaVuSans-3" transform="translate(1740.765625 0)"/>
    <use xlink:href="#DejaVuSans-2a" transform="translate(1772.546875 0)"/>
    <use xlink:href="#DejaVuSans-55" transform="translate(1850.03125 0)"/>
    <use xlink:href="#DejaVuSans-44" transform="translate(1891.140625 0)"/>
    <use xlink:href="#DejaVuSans-53" transform="translate(1952.421875 0)"/>
    <use xlink:href="#DejaVuSans-4b" transform="translate(2015.90625 0)"/>
    <use xlink:href="#DejaVuSans-3" transform="translate(2079.28125 0)"/>
    <use xlink:href="#DejaVuSans-24" transform="translate(2111.0625 0)"/>
    <use xlink:href="#DejaVuSans-33" transform="translate(2179.46875 0)"/>
    <use xlink:href="#DejaVuSans-2c" transform="translate(2239.765625 0)"/>
    <use xlink:href="#DejaVuSans-f" transform="translate(2269.265625 0)"/>
    <use xlink:href="#DejaVuSans-3" transform="translate(2301.046875 0)"/>
    <use xlink:href="#DejaVuSans-14" transform="translate(2332.828125 0)"/>
    <use xlink:href="#DejaVuSans-1c" transform="translate(2396.453125 0)"/>
    <use xlink:href="#DejaVuSans-19" transform="translate(2460.078125 0)"/>
    <use xlink:href="#DejaVuSans-13" transform="translate(2523.703125 0)"/>
    <use xlink:href="#DejaVuSans-10" transform="translate(2587.328125 0)"/>
    <use xlink:href="#DejaVuSans-15" transform="translate(2623.40625 0)"/>
    <use xlink:href="#DejaVuSans-13" transform="translate(2687.03125 0)"/>
    <use xlink:href="#DejaVuSans-15" transform="translate(2750.65625 0)"/>
    <use xlink:href="#DejaVuSans-19" transform="translate(2814.28125 0)"/>
   </g>
  </g>
  <g id="text_35">
   <!-- Source: OpenAIRE Graph API. Retrieved 2026-07-07. -->
   <g style="fill: #6b7280" transform="translate(342.926516 565.197891) scale(0.09 -0.09)">
    <defs>
     <path id="DejaVuSans-36" d="M 3425 4513
L 3425 3897
Q 3066 4069 2747 4153
Q 2428 4238 2131 4238
Q 1616 4238 1336 4038
Q 1056 3838 1056 3469
Q 1056 3159 1242 3001
Q 1428 2844 1947 2747
L 2328 2669
Q 3034 2534 3370 2195
Q 3706 1856 3706 1288
Q 3706 609 3251 259
Q 2797 -91 1919 -91
Q 1588 -91 1214 -16
Q 841 59 441 206
L 441 856
Q 825 641 1194 531
Q 1563 422 1919 422
Q 2459 422 2753 634
Q 3047 847 3047 1241
Q 3047 1584 2836 1778
Q 2625 1972 2144 2069
L 1759 2144
Q 1053 2284 737 2584
Q 422 2884 422 3419
Q 422 4038 858 4394
Q 1294 4750 2059 4750
Q 2388 4750 2728 4690
Q 3069 4631 3425 4513
z
" transform="scale(0.015625)"/>
     <path id="DejaVuSans-1d" d="M 750 794
L 1409 794
L 1409 0
L 750 0
L 750 794
z
M 750 3309
L 1409 3309
L 1409 2516
L 750 2516
L 750 3309
z
" transform="scale(0.015625)"/>
     <path id="DejaVuSans-11" d="M 684 794
L 1344 794
L 1344 0
L 684 0
L 684 794
z
" transform="scale(0.015625)"/>
     <path id="DejaVuSans-4c" d="M 603 3500
L 1178 3500
L 1178 0
L 603 0
L 603 3500
z
M 603 4863
L 1178 4863
L 1178 4134
L 603 4134
L 603 4863
z
" transform="scale(0.015625)"/>
     <path id="DejaVuSans-59" d="M 191 3500
L 800 3500
L 1894 563
L 2988 3500
L 3597 3500
L 2284 0
L 1503 0
L 191 3500
z
" transform="scale(0.015625)"/>
    </defs>
    <use xlink:href="#DejaVuSans-36"/>
    <use xlink:href="#DejaVuSans-52" transform="translate(63.484375 0)"/>
    <use xlink:href="#DejaVuSans-58" transform="translate(124.671875 0)"/>
    <use xlink:href="#DejaVuSans-55" transform="translate(188.046875 0)"/>
    <use xlink:href="#DejaVuSans-46" transform="translate(226.953125 0)"/>
    <use xlink:href="#DejaVuSans-48" transform="translate(281.9375 0)"/>
    <use xlink:href="#DejaVuSans-1d" transform="translate(343.46875 0)"/>
    <use xlink:href="#DejaVuSans-3" transform="translate(377.15625 0)"/>
    <use xlink:href="#DejaVuSans-32" transform="translate(408.9375 0)"/>
    <use xlink:href="#DejaVuSans-53" transform="translate(487.65625 0)"/>
    <use xlink:href="#DejaVuSans-48" transform="translate(551.140625 0)"/>
    <use xlink:href="#DejaVuSans-51" transform="translate(612.671875 0)"/>
    <use xlink:href="#DejaVuSans-24" transform="translate(676.046875 0)"/>
    <use xlink:href="#DejaVuSans-2c" transform="translate(744.453125 0)"/>
    <use xlink:href="#DejaVuSans-35" transform="translate(773.953125 0)"/>
    <use xlink:href="#DejaVuSans-28" transform="translate(843.4375 0)"/>
    <use xlink:href="#DejaVuSans-3" transform="translate(906.625 0)"/>
    <use xlink:href="#DejaVuSans-2a" transform="translate(938.40625 0)"/>
    <use xlink:href="#DejaVuSans-55" transform="translate(1015.890625 0)"/>
    <use xlink:href="#DejaVuSans-44" transform="translate(1057 0)"/>
    <use xlink:href="#DejaVuSans-53" transform="translate(1118.28125 0)"/>
    <use xlink:href="#DejaVuSans-4b" transform="translate(1181.765625 0)"/>
    <use xlink:href="#DejaVuSans-3" transform="translate(1245.140625 0)"/>
    <use xlink:href="#DejaVuSans-24" transform="translate(1276.921875 0)"/>
    <use xlink:href="#DejaVuSans-33" transform="translate(1345.328125 0)"/>
    <use xlink:href="#DejaVuSans-2c" transform="translate(1405.625 0)"/>
    <use xlink:href="#DejaVuSans-11" transform="translate(1435.125 0)"/>
    <use xlink:href="#DejaVuSans-3" transform="translate(1466.90625 0)"/>
    <use xlink:href="#DejaVuSans-35" transform="translate(1498.6875 0)"/>
    <use xlink:href="#DejaVuSans-48" transform="translate(1563.6875 0)"/>
    <use xlink:href="#DejaVuSans-57" transform="translate(1625.21875 0)"/>
    <use xlink:href="#DejaVuSans-55" transform="translate(1664.421875 0)"/>
    <use xlink:href="#DejaVuSans-4c" transform="translate(1705.53125 0)"/>
    <use xlink:href="#DejaVuSans-48" transform="translate(1733.3125 0)"/>
    <use xlink:href="#DejaVuSans-59" transform="translate(1794.84375 0)"/>
    <use xlink:href="#DejaVuSans-48" transform="translate(1854.03125 0)"/>
    <use xlink:href="#DejaVuSans-47" transform="translate(1915.5625 0)"/>
    <use xlink:href="#DejaVuSans-3" transform="translate(1979.046875 0)"/>
    <use xlink:href="#DejaVuSans-15" transform="translate(2010.828125 0)"/>
    <use xlink:href="#DejaVuSans-13" transform="translate(2074.453125 0)"/>
    <use xlink:href="#DejaVuSans-15" transform="translate(2138.078125 0)"/>
    <use xlink:href="#DejaVuSans-19" transform="translate(2201.703125 0)"/>
    <use xlink:href="#DejaVuSans-10" transform="translate(2265.328125 0)"/>
    <use xlink:href="#DejaVuSans-13" transform="translate(2301.40625 0)"/>
    <use xlink:href="#DejaVuSans-1a" transform="translate(2365.03125 0)"/>
    <use xlink:href="#DejaVuSans-10" transform="translate(2428.65625 0)"/>
    <use xlink:href="#DejaVuSans-13" transform="translate(2464.734375 0)"/>
    <use xlink:href="#DejaVuSans-1a" transform="translate(2528.359375 0)"/>
    <use xlink:href="#DejaVuSans-11" transform="translate(2591.984375 0)"/>
   </g>
  </g>
  <g id="text_36">
   <!-- Publication year -->
   <g transform="translate(412.775656 546.836484) scale(0.12 -0.12)">
    <defs>
     <path id="DejaVuSans-45" d="M 3116 1747
Q 3116 2381 2855 2742
Q 2594 3103 2138 3103
Q 1681 3103 1420 2742
Q 1159 2381 1159 1747
Q 1159 1113 1420 752
Q 1681 391 2138 391
Q 2594 391 2855 752
Q 3116 1113 3116 1747
z
M 1159 2969
Q 1341 3281 1617 3432
Q 1894 3584 2278 3584
Q 2916 3584 3314 3078
Q 3713 2572 3713 1747
Q 3713 922 3314 415
Q 2916 -91 2278 -91
Q 1894 -91 1617 61
Q 1341 213 1159 525
L 1159 0
L 581 0
L 581 4863
L 1159 4863
L 1159 2969
z
" transform="scale(0.015625)"/>
     <path id="DejaVuSans-5c" d="M 2059 -325
Q 1816 -950 1584 -1140
Q 1353 -1331 966 -1331
L 506 -1331
L 506 -850
L 844 -850
Q 1081 -850 1212 -737
Q 1344 -625 1503 -206
L 1606 56
L 191 3500
L 800 3500
L 1894 763
L 2988 3500
L 3597 3500
L 2059 -325
z
" transform="scale(0.015625)"/>
    </defs>
    <use xlink:href="#DejaVuSans-33"/>
    <use xlink:href="#DejaVuSans-58" transform="translate(58.546875 0)"/>
    <use xlink:href="#DejaVuSans-45" transform="translate(121.921875 0)"/>
    <use xlink:href="#DejaVuSans-4f" transform="translate(185.40625 0)"/>
    <use xlink:href="#DejaVuSans-4c" transform="translate(213.1875 0)"/>
    <use xlink:href="#DejaVuSans-46" transform="translate(240.96875 0)"/>
    <use xlink:href="#DejaVuSans-44" transform="translate(295.953125 0)"/>
    <use xlink:href="#DejaVuSans-57" transform="translate(357.234375 0)"/>
    <use xlink:href="#DejaVuSans-4c" transform="translate(396.4375 0)"/>
    <use xlink:href="#DejaVuSans-52" transform="translate(424.21875 0)"/>
    <use xlink:href="#DejaVuSans-51" transform="translate(485.40625 0)"/>
    <use xlink:href="#DejaVuSans-3" transform="translate(548.78125 0)"/>
    <use xlink:href="#DejaVuSans-5c" transform="translate(580.5625 0)"/>
    <use xlink:href="#DejaVuSans-48" transform="translate(639.75 0)"/>
    <use xlink:href="#DejaVuSans-44" transform="translate(701.28125 0)"/>
    <use xlink:href="#DejaVuSans-55" transform="translate(762.5625 0)"/>
   </g>
  </g>
  <g id="text_37">
   <!-- Number of records -->
   <g transform="translate(17.758125 354.774659) rotate(-90) scale(0.12 -0.12)">
    <defs>
     <path id="DejaVuSans-31" d="M 628 4666
L 1478 4666
L 3547 763
L 3547 4666
L 4159 4666
L 4159 0
L 3309 0
L 1241 3903
L 1241 0
L 628 0
L 628 4666
z
" transform="scale(0.015625)"/>
    </defs>
    <use xlink:href="#DejaVuSans-31"/>
    <use xlink:href="#DejaVuSans-58" transform="translate(74.8125 0)"/>
    <use xlink:href="#DejaVuSans-50" transform="translate(138.1875 0)"/>
    <use xlink:href="#DejaVuSans-45" transform="translate(235.59375 0)"/>
    <use xlink:href="#DejaVuSans-48" transform="translate(299.078125 0)"/>
    <use xlink:href="#DejaVuSans-55" transform="translate(360.609375 0)"/>
    <use xlink:href="#DejaVuSans-3" transform="translate(401.71875 0)"/>
    <use xlink:href="#DejaVuSans-52" transform="translate(433.5 0)"/>
    <use xlink:href="#DejaVuSans-49" transform="translate(494.6875 0)"/>
    <use xlink:href="#DejaVuSans-3" transform="translate(529.890625 0)"/>
    <use xlink:href="#DejaVuSans-55" transform="translate(561.671875 0)"/>
    <use xlink:href="#DejaVuSans-48" transform="translate(600.578125 0)"/>
    <use xlink:href="#DejaVuSans-46" transform="translate(662.109375 0)"/>
    <use xlink:href="#DejaVuSans-52" transform="translate(717.09375 0)"/>
    <use xlink:href="#DejaVuSans-55" transform="translate(778.28125 0)"/>
    <use xlink:href="#DejaVuSans-47" transform="translate(817.640625 0)"/>
    <use xlink:href="#DejaVuSans-56" transform="translate(881.125 0)"/>
   </g>
  </g>
  <g id="patch_4">
   <path d="M 328.832087 71.936319
L 345.580351 71.936319
L 345.580351 55.188056
L 328.832087 55.188056
z
" clip-path="url(#p36a15660d7)" style="fill: #9ca3af; stroke: #ffffff; stroke-width: 0.531736; stroke-linejoin: miter; stroke-linecap: square"/>
  </g>
  <g id="text_38">
   <!-- Before 2014 -->
   <g transform="translate(351.606219 66.056313) scale(0.096 -0.096)">
    <defs>
     <path id="DejaVuSans-25" d="M 1259 2228
L 1259 519
L 2272 519
Q 2781 519 3026 730
Q 3272 941 3272 1375
Q 3272 1813 3026 2020
Q 2781 2228 2272 2228
L 1259 2228
z
M 1259 4147
L 1259 2741
L 2194 2741
Q 2656 2741 2882 2914
Q 3109 3088 3109 3444
Q 3109 3797 2882 3972
Q 2656 4147 2194 4147
L 1259 4147
z
M 628 4666
L 2241 4666
Q 2963 4666 3353 4366
Q 3744 4066 3744 3513
Q 3744 3084 3544 2831
Q 3344 2578 2956 2516
Q 3422 2416 3680 2098
Q 3938 1781 3938 1306
Q 3938 681 3513 340
Q 3088 0 2303 0
L 628 0
L 628 4666
z
" transform="scale(0.015625)"/>
    </defs>
    <use xlink:href="#DejaVuSans-25"/>
    <use xlink:href="#DejaVuSans-48" transform="translate(68.609375 0)"/>
    <use xlink:href="#DejaVuSans-49" transform="translate(130.140625 0)"/>
    <use xlink:href="#DejaVuSans-52" transform="translate(165.34375 0)"/>
    <use xlink:href="#DejaVuSans-55" transform="translate(226.53125 0)"/>
    <use xlink:href="#DejaVuSans-48" transform="translate(265.4375 0)"/>
    <use xlink:href="#DejaVuSans-3" transform="translate(326.96875 0)"/>
    <use xlink:href="#DejaVuSans-15" transform="translate(358.75 0)"/>
    <use xlink:href="#DejaVuSans-13" transform="translate(422.375 0)"/>
    <use xlink:href="#DejaVuSans-14" transform="translate(486 0)"/>
    <use xlink:href="#DejaVuSans-17" transform="translate(549.625 0)"/>
   </g>
  </g>
  <g id="patch_5">
   <path d="M 416.744087 71.936319
L 433.492351 71.936319
L 433.492351 55.188056
L 416.744087 55.188056
z
" clip-path="url(#p4c5cf2a985)" style="fill: #2a9d8f; stroke: #ffffff; stroke-width: 0.531736; stroke-linejoin: miter; stroke-linecap: square"/>
  </g>
  <g id="text_39">
   <!-- 2014 onward -->
   <g transform="translate(439.518219 66.056313) scale(0.096 -0.096)">
    <defs>
     <path id="DejaVuSans-5a" d="M 269 3500
L 844 3500
L 1563 769
L 2278 3500
L 2956 3500
L 3675 769
L 4391 3500
L 4966 3500
L 4050 0
L 3372 0
L 2619 2869
L 1863 0
L 1184 0
L 269 3500
z
" transform="scale(0.015625)"/>
    </defs>
    <use xlink:href="#DejaVuSans-15"/>
    <use xlink:href="#DejaVuSans-13" transform="translate(63.625 0)"/>
    <use xlink:href="#DejaVuSans-14" transform="translate(127.25 0)"/>
    <use xlink:href="#DejaVuSans-17" transform="translate(190.875 0)"/>
    <use xlink:href="#DejaVuSans-3" transform="translate(254.5 0)"/>
    <use xlink:href="#DejaVuSans-52" transform="translate(286.28125 0)"/>
    <use xlink:href="#DejaVuSans-51" transform="translate(347.46875 0)"/>
    <use xlink:href="#DejaVuSans-5a" transform="translate(410.84375 0)"/>
    <use xlink:href="#DejaVuSans-44" transform="translate(492.625 0)"/>
    <use xlink:href="#DejaVuSans-55" transform="translate(553.90625 0)"/>
    <use xlink:href="#DejaVuSans-47" transform="translate(593.265625 0)"/>
   </g>
  </g>
  <g id="patch_6">
   <path d="M 508.832087 71.936319
L 525.580351 71.936319
L 525.580351 55.188056
L 508.832087 55.188056
z
" clip-path="url(#p19d0488085)" style="fill: #e76f51; stroke: #ffffff; stroke-width: 0.531736; stroke-linejoin: miter; stroke-linecap: square"/>
  </g>
  <g id="text_40">
   <!-- 2026 to date -->
   <g transform="translate(531.606219 66.056313) scale(0.096 -0.096)">
    <use xlink:href="#DejaVuSans-15"/>
    <use xlink:href="#DejaVuSans-13" transform="translate(63.625 0)"/>
    <use xlink:href="#DejaVuSans-15" transform="translate(127.25 0)"/>
    <use xlink:href="#DejaVuSans-19" transform="translate(190.875 0)"/>
    <use xlink:href="#DejaVuSans-3" transform="translate(254.5 0)"/>
    <use xlink:href="#DejaVuSans-57" transform="translate(286.28125 0)"/>
    <use xlink:href="#DejaVuSans-52" transform="translate(325.484375 0)"/>
    <use xlink:href="#DejaVuSans-3" transform="translate(386.671875 0)"/>
    <use xlink:href="#DejaVuSans-47" transform="translate(418.453125 0)"/>
    <use xlink:href="#DejaVuSans-44" transform="translate(481.9375 0)"/>
    <use xlink:href="#DejaVuSans-57" transform="translate(543.21875 0)"/>
    <use xlink:href="#DejaVuSans-48" transform="translate(582.421875 0)"/>
   </g>
  </g>
 </g>
 <defs>
  <clipPath id="pdb8534879f">
   <rect x="66.631938" y="99.122188" width="788.728062" height="399.318693"/>
  </clipPath>
  <clipPath id="p36a15660d7">
   <path d="M 328.566219 72.202188
L 328.566219 54.922188
L 345.846219 54.922188
L 345.846219 72.202188
"/>
  </clipPath>
  <clipPath id="p4c5cf2a985">
   <path d="M 416.478219 72.202188
L 416.478219 54.922188
L 433.758219 54.922188
L 433.758219 72.202188
"/>
  </clipPath>
  <clipPath id="p19d0488085">
   <path d="M 508.566219 72.202188
L 508.566219 54.922188
L 525.846219 54.922188
L 525.846219 72.202188
"/>
  </clipPath>
 </defs>
</svg>
